{"glyphs":{"0":{"ha":615,"x_min":0,"x_max":0,"o":"m 272 1021 l 253 969 l 235 921 l 165 774 l 140 704 l 140 706 l 131 707 l 88 621 l 43 535 l 39 511 l 119 333 l 178 215 l 251 38 l 267 -3 l 274 -15 l 342 -7 l 403 147 l 411 188 l 465 279 l 521 406 l 567 486 l 571 531 l 524 615 l 469 733 l 440 757 l 442 794 l 339 1024 l 325 1026 l 272 1021 z m 215 269 l 186 307 l 188 328 l 101 529 l 129 608 l 226 814 l 229 835 l 260 872 l 286 933 l 286 932 l 303 946 l 303 947 l 321 910 l 335 889 l 440 667 l 500 525 l 513 500 l 504 468 l 504 469 l 444 326 l 404 242 l 353 157 l 308 64 l 285 113 l 215 269 z m 283 544 l 263 518 l 264 499 l 279 474 l 303 444 l 310 447 l 329 478 l 349 499 l 347 519 l 329 547 l 306 576 l 296 572 l 283 544 z "},"1":{"ha":431,"x_min":0,"x_max":0,"o":"m 263 608 l 251 522 l 256 474 l 263 344 l 243 42 l 243 0 l 301 0 l 322 6 l 326 29 l 321 54 b 315 75 317 63 315 68 l 297 478 l 307 899 l 315 1013 l 281 1035 l 267 1029 l 206 958 l 168 918 l 168 919 l 132 889 l 97 858 l 49 819 l 35 800 l 63 763 l 79 743 l 143 833 l 233 921 l 233 919 b 254 900 242 914 246 906 l 254 664 l 263 608 z "},"2":{"ha":525,"x_min":0,"x_max":0,"o":"m 294 432 l 307 479 l 331 488 l 356 529 l 468 783 l 474 829 l 401 894 l 351 960 l 297 1032 l 243 1044 l 215 1010 l 124 918 l 44 844 l 58 819 l 103 799 l 128 842 l 147 875 l 199 929 l 244 971 l 313 910 l 338 910 l 346 875 l 408 793 l 388 722 l 372 685 l 313 571 l 276 483 l 100 133 l 63 36 l 81 -4 l 99 -3 l 197 6 l 447 -3 l 463 7 l 481 69 l 461 81 l 296 54 l 154 60 l 149 67 l 179 157 l 206 222 l 268 364 l 294 432 z "},"3":{"ha":497,"x_min":0,"x_max":0,"o":"m 146 617 l 210 565 l 314 446 l 338 444 l 339 444 l 338 419 l 379 374 l 308 272 l 208 139 l 164 93 l 133 71 l 96 28 l 146 -26 l 171 -15 l 243 104 l 365 268 l 440 342 l 446 406 l 401 446 l 343 506 l 306 543 l 279 547 l 278 547 l 281 563 l 240 603 l 204 650 l 240 700 l 254 739 l 435 963 l 428 1018 l 108 1029 l 65 1036 l 54 1003 l 60 960 l 89 958 l 222 975 l 346 969 l 358 954 l 257 817 l 219 756 l 146 669 l 146 617 z "},"4":{"ha":536,"x_min":0,"x_max":0,"o":"m 379 479 l 389 449 l 396 351 l 404 335 l 394 301 l 394 276 l 376 263 l 300 263 l 210 260 l 140 265 l 140 264 l 135 278 l 132 290 l 163 403 l 163 425 l 161 447 l 174 460 l 226 642 l 226 640 l 251 721 l 274 754 l 356 939 l 376 1013 l 324 1033 l 310 1032 l 304 1019 l 249 839 l 92 365 l 50 250 l 72 207 l 86 207 l 168 215 l 272 214 l 393 214 l 393 215 l 396 203 l 397 178 l 383 72 l 381 -1 l 414 -7 l 450 0 l 449 75 l 442 222 l 439 357 l 451 528 l 449 568 l 382 558 l 379 479 z "},"5":{"ha":493,"x_min":0,"x_max":0,"o":"m 83 626 l 86 600 l 103 590 l 161 558 l 286 449 l 310 447 l 315 424 l 371 372 l 292 260 l 203 153 l 150 111 l 115 81 l 79 43 l 132 -8 l 164 1 l 246 121 l 360 253 l 435 335 l 436 404 l 385 443 l 313 499 l 268 539 l 239 554 l 236 565 l 147 643 l 154 681 l 169 861 l 171 889 l 190 961 l 244 964 l 333 964 l 371 951 l 404 947 l 414 961 l 417 1015 l 406 1024 l 283 1018 l 151 1019 l 126 1004 l 128 968 l 126 907 l 111 781 l 126 771 l 108 744 l 83 626 z "},"6":{"ha":581,"x_min":0,"x_max":0,"o":"m 386 908 l 435 964 l 447 1001 l 376 1035 l 351 988 l 314 886 l 294 860 l 193 631 l 179 582 l 144 529 l 104 436 l 44 339 l 39 283 l 153 157 l 178 157 l 178 158 l 197 108 l 271 17 l 288 -3 l 308 0 l 339 -3 l 389 72 l 422 124 l 451 168 l 490 225 l 556 304 l 549 371 l 507 400 l 478 418 l 465 438 l 403 490 l 340 550 l 300 528 l 293 519 l 294 483 l 342 451 l 342 453 l 418 393 l 490 328 l 436 225 l 419 213 l 410 190 l 369 131 l 326 79 l 276 126 l 181 215 l 154 263 l 106 325 l 146 418 l 167 461 l 193 525 l 247 624 l 386 908 z "},"7":{"ha":500,"x_min":0,"x_max":0,"o":"m 269 603 l 261 563 b 254 522 258 549 256 535 l 247 496 l 247 485 b 250 478 247 483 249 479 l 238 449 l 163 242 l 126 117 l 138 106 l 100 33 l 93 10 l 100 -4 l 172 -17 l 176 0 l 176 18 b 178 36 176 24 178 31 l 190 69 l 286 464 l 286 463 l 411 874 l 456 979 l 438 1019 l 418 1018 l 335 1015 l 144 1015 l 69 1022 l 56 1013 l 50 950 l 75 942 l 185 961 l 224 974 l 250 964 l 356 958 l 356 960 l 371 954 l 289 672 l 269 603 z "},"8":{"ha":588,"x_min":0,"x_max":0,"o":"m 264 521 l 197 442 l 119 364 l 57 308 l 54 233 l 200 89 l 278 -10 l 329 -17 l 372 43 l 433 135 l 433 133 l 485 174 l 561 257 l 556 313 l 531 333 l 476 382 l 406 467 l 336 535 l 406 614 l 417 633 l 482 699 l 532 757 l 524 811 l 496 836 l 496 835 l 386 950 l 363 975 l 326 1025 l 321 1033 l 268 1042 l 190 936 l 57 803 l 56 753 l 129 667 l 153 664 l 168 629 l 200 596 l 264 521 z m 438 343 l 499 274 l 485 250 l 454 201 l 393 128 l 318 65 l 269 106 l 232 153 l 190 172 l 189 200 l 108 276 l 154 332 l 154 331 l 172 338 l 228 404 l 300 488 l 329 456 l 438 343 z m 204 671 l 186 683 l 186 682 l 111 779 l 182 871 l 201 875 l 232 913 l 282 971 l 415 831 l 468 771 l 442 736 l 425 697 l 425 699 l 413 692 l 303 561 l 204 671 z "},"9":{"ha":599,"x_min":0,"x_max":0,"o":"m 346 382 l 294 292 l 299 263 l 272 247 l 253 189 l 169 58 l 156 26 l 232 -6 l 340 260 l 400 397 l 451 511 l 492 589 l 563 711 l 560 764 l 511 811 l 394 932 l 324 1029 l 297 1028 l 265 1028 l 182 910 l 108 803 l 47 733 l 50 672 b 86 636 60 663 75 646 l 190 550 l 274 467 l 299 499 l 331 531 l 274 560 l 274 558 l 186 628 l 104 714 l 136 765 l 149 806 l 175 829 l 279 957 l 325 910 l 404 824 l 436 811 l 433 788 l 496 722 l 454 635 b 413 532 442 604 425 565 l 346 419 l 346 382 z "},"\u0000":{"ha":0,"x_min":0,"x_max":0,"o":""},"\r":{"ha":347,"x_min":0,"x_max":0,"o":""}," ":{"ha":285,"x_min":0,"x_max":0,"o":""},"!":{"ha":294,"x_min":0,"x_max":0,"o":"m 122 619 l 119 535 l 124 499 l 118 486 b 119 403 118 458 119 431 l 110 338 l 114 313 l 147 313 l 175 331 l 167 507 l 171 654 l 163 681 l 175 731 l 185 903 l 179 931 l 188 942 l 193 1011 l 125 1017 l 103 1008 l 106 974 l 107 932 l 128 910 l 108 892 l 117 688 l 122 619 z m 206 61 l 188 78 b 176 75 185 78 179 75 l 169 96 l 156 118 l 140 119 b 115 90 133 110 122 100 l 83 63 l 82 44 l 118 14 b 128 11 119 14 126 11 l 131 7 l 129 8 l 128 0 l 138 -14 l 150 -15 l 175 21 l 206 46 l 206 61 z "},"\"":{"ha":306,"x_min":0,"x_max":0,"o":"m 64 832 l 60 771 l 75 760 l 100 757 l 113 760 l 107 842 l 113 944 l 122 1026 l 108 1039 l 47 1035 l 42 1022 l 58 949 l 58 894 l 64 832 z m 199 833 l 197 761 l 229 758 l 244 764 l 244 843 l 250 947 l 264 1026 l 253 1035 l 192 1038 l 185 1024 l 194 953 l 199 833 z "},"#":{"ha":557,"x_min":0,"x_max":0,"o":"m 69 360 l 51 363 l 17 364 l 14 343 l 10 322 l 13 292 l 31 292 l 88 301 l 124 300 l 113 190 l 111 167 l 108 129 b 89 44 103 101 94 74 l 89 46 l 79 28 l 79 -1 l 136 -7 l 147 1 l 157 10 l 153 28 l 158 124 b 147 133 156 125 150 131 l 161 161 l 168 229 b 175 299 169 251 172 275 l 282 296 l 328 297 l 317 190 l 322 168 l 313 132 b 297 47 308 103 301 76 l 290 29 l 290 -3 l 361 0 l 365 36 l 363 122 l 371 229 l 379 297 l 382 297 b 428 296 397 297 413 296 l 499 286 l 518 294 l 521 361 l 485 353 l 419 354 l 399 347 l 386 347 l 392 382 l 406 575 l 421 689 l 526 674 l 546 685 l 547 746 l 449 738 l 428 738 l 429 743 l 443 888 l 460 974 l 460 972 l 472 1003 l 468 1017 l 403 1022 l 396 985 l 394 925 l 393 853 l 383 789 l 378 736 b 278 735 344 736 311 735 l 225 736 l 226 743 l 239 888 l 239 886 l 260 974 l 265 1004 l 261 1018 l 197 1017 l 190 981 l 189 925 b 189 853 190 903 188 876 b 181 789 186 833 182 810 l 175 739 l 101 742 l 69 747 l 50 749 l 43 733 l 40 679 l 54 676 l 79 679 l 110 692 l 169 689 l 160 586 l 158 588 l 153 560 l 139 432 l 131 356 l 69 360 z m 313 682 l 372 688 l 365 618 l 375 586 l 357 558 l 343 432 l 333 347 l 249 347 l 182 351 l 185 382 l 204 575 l 218 686 l 313 682 z "},"$":{"ha":504,"x_min":0,"x_max":0,"o":"m 49 199 l 40 178 b 132 90 69 150 101 118 l 131 90 l 235 -12 b 233 -74 235 -29 233 -57 l 228 -110 l 242 -117 l 285 -112 l 283 -71 l 283 -10 l 322 43 l 379 131 l 378 131 l 417 172 l 479 239 l 472 289 l 449 310 l 282 533 l 283 767 l 281 828 b 282 951 281 869 282 910 l 319 918 l 318 918 l 381 847 l 399 836 l 442 879 l 381 936 l 338 971 l 301 1015 l 290 1029 b 283 1031 289 1029 285 1031 b 282 1076 283 1046 282 1061 l 286 1129 l 226 1128 l 222 1117 l 228 1088 l 232 1033 l 165 929 l 167 929 l 128 893 l 128 871 l 111 868 l 58 800 l 51 756 l 124 658 l 144 639 l 206 553 b 239 504 215 539 228 518 b 242 208 239 406 242 307 b 235 71 240 164 236 113 l 203 104 l 144 168 l 119 178 l 124 199 l 82 239 l 49 199 z m 286 119 l 283 167 l 278 403 b 279 449 278 418 279 435 b 350 354 304 418 326 386 b 407 256 368 322 389 286 l 364 168 l 365 168 l 285 83 l 286 119 z m 240 869 l 238 731 b 239 596 238 686 239 639 l 121 779 l 165 875 l 182 881 l 204 911 l 236 950 l 240 869 z "},"%":{"ha":797,"x_min":0,"x_max":0,"o":"m 28 826 l 32 804 l 33 779 l 121 665 l 157 607 l 176 582 l 221 585 l 281 674 l 278 697 l 294 697 l 367 781 l 364 826 l 299 910 l 275 935 l 274 951 l 218 1026 l 175 1025 l 153 988 l 136 964 l 121 936 l 28 826 z m 138 886 l 192 963 l 197 963 l 261 869 l 306 800 l 306 783 l 256 708 l 211 649 l 207 649 l 154 719 l 129 729 l 135 746 l 90 813 l 90 821 l 128 869 l 138 886 z m 429 229 l 433 207 l 435 182 l 522 75 l 558 17 l 578 -10 l 622 -7 l 682 83 l 679 106 l 696 106 l 768 196 l 765 242 l 707 310 l 674 342 l 672 361 l 617 436 l 574 435 l 551 397 l 535 374 l 519 344 l 429 229 z m 539 294 l 590 369 l 597 369 l 661 278 l 707 215 l 707 199 l 656 117 l 613 60 l 608 60 l 556 128 l 531 138 l 536 154 l 490 218 l 490 226 l 529 278 l 539 294 z m 506 668 l 558 797 l 644 953 l 661 982 l 661 993 l 604 1024 l 583 990 l 561 925 l 517 779 l 483 722 l 392 538 l 378 513 l 329 399 l 238 185 l 246 160 l 214 129 l 178 75 l 158 53 l 142 18 l 194 -14 l 208 -7 l 219 15 l 228 47 l 244 90 l 292 206 l 432 517 l 506 668 z "},"&":{"ha":724,"x_min":0,"x_max":0,"o":"m 467 843 l 465 864 l 378 940 l 343 976 l 301 1029 l 275 1026 l 246 1024 l 192 942 l 142 878 l 56 794 l 56 756 l 126 676 l 144 671 l 156 633 l 221 558 l 231 543 l 217 525 l 169 469 l 165 456 l 36 317 l 40 258 l 164 126 l 176 131 l 186 96 l 247 24 l 258 0 l 282 1 l 331 -1 l 361 57 l 403 114 l 458 185 l 492 222 l 569 113 l 592 110 l 597 76 l 613 44 l 664 -14 l 714 29 l 722 56 l 615 168 l 532 275 b 533 281 532 276 532 278 l 594 356 l 643 411 l 679 440 l 696 471 l 644 514 l 629 511 l 538 367 l 514 335 l 499 313 l 494 317 l 408 424 l 386 428 l 392 446 l 189 693 l 172 708 l 124 778 l 167 836 b 165 854 167 849 165 850 l 190 868 b 271 964 215 899 246 932 l 318 913 l 336 915 l 339 892 l 388 840 l 426 800 l 467 843 z m 265 499 b 269 497 267 499 267 497 l 272 497 l 435 293 l 451 281 l 454 263 l 411 210 l 400 201 l 385 165 l 300 74 l 256 115 l 201 182 l 125 257 l 97 296 l 114 325 l 133 353 l 253 485 l 265 499 z "},"'":{"ha":172,"x_min":0,"x_max":0,"o":"m 63 835 l 58 774 l 74 763 l 101 761 l 114 769 l 110 843 b 115 944 111 875 114 911 l 126 1026 l 114 1038 l 54 1039 l 49 1026 l 61 951 l 63 835 z "},"(":{"ha":296,"x_min":0,"x_max":0,"o":"m 74 386 l 86 293 l 104 219 l 104 221 l 108 176 l 160 25 l 188 3 l 183 -35 l 197 -86 l 218 -115 l 236 -117 l 279 -85 l 268 -56 l 189 89 l 189 88 l 124 347 l 106 528 l 114 603 l 132 732 l 165 849 l 210 924 l 213 954 l 215 981 l 260 1019 l 290 1085 l 243 1114 l 218 1104 l 139 913 l 75 704 l 65 629 l 63 524 l 61 447 l 74 386 z "},")":{"ha":299,"x_min":0,"x_max":0,"o":"m 229 610 l 219 701 l 194 776 l 194 775 l 190 815 l 136 969 l 107 988 l 118 1022 l 101 1081 l 79 1110 l 61 1111 l 19 1081 l 31 1053 l 106 896 l 106 897 l 144 751 l 179 646 l 185 601 l 186 546 l 196 467 l 186 390 l 157 263 l 129 146 l 129 147 l 86 69 l 81 38 l 79 13 l 33 -28 l 3 -87 l 53 -115 l 78 -107 l 158 81 l 217 292 l 238 363 l 242 471 l 244 547 l 229 610 z "},"*":{"ha":307,"x_min":0,"x_max":0,"o":"m 129 1042 l 135 1007 l 140 935 l 58 957 l 35 957 l 28 938 l 31 906 l 88 906 l 131 901 b 104 863 122 888 113 876 l 76 828 l 61 800 l 111 778 l 129 803 l 133 835 l 133 833 l 161 881 l 190 829 l 199 801 l 224 782 l 265 814 l 242 839 l 243 839 l 208 885 b 188 906 204 890 193 900 l 249 913 l 286 917 l 286 944 l 278 969 l 219 950 l 175 938 l 189 1011 l 190 1042 l 165 1044 l 129 1042 z "},"+":{"ha":514,"x_min":0,"x_max":0,"o":"m 188 525 l 151 525 l 100 532 l 69 538 l 39 540 l 33 525 l 26 472 l 40 469 l 106 478 l 183 481 l 233 479 l 233 436 l 231 322 l 226 292 l 221 251 l 225 238 l 267 238 l 297 246 l 296 281 l 289 317 l 285 479 l 328 479 l 386 474 l 460 465 l 482 475 l 486 510 l 486 539 l 429 535 l 376 526 l 290 522 l 285 522 l 285 524 l 281 596 l 293 710 l 296 771 l 236 772 l 225 750 l 231 639 l 236 631 l 236 568 l 235 524 l 188 525 z "},",":{"ha":197,"x_min":0,"x_max":0,"o":"m 38 -75 l 8 -97 l 0 -114 l 36 -140 l 53 -129 l 86 -81 l 135 -7 l 157 38 l 163 43 l 163 58 l 144 75 b 133 72 142 75 136 72 l 126 93 l 113 115 l 97 117 b 72 88 90 107 79 97 l 40 60 l 39 42 l 75 11 b 79 10 75 11 76 10 l 75 -25 l 38 -75 z "},"-":{"ha":367,"x_min":0,"x_max":0,"o":"m 118 547 l 86 551 l 54 554 l 46 551 l 47 513 l 44 489 l 63 486 l 93 492 l 122 496 l 229 494 l 306 488 l 325 497 l 324 547 l 317 557 l 268 550 l 182 546 l 118 547 z "},".":{"ha":179,"x_min":0,"x_max":0,"o":"m 151 58 l 133 75 b 122 72 131 75 125 72 l 115 93 l 101 115 l 86 117 b 61 88 79 107 68 97 l 29 60 l 28 42 l 64 11 b 74 8 65 11 72 8 l 76 4 l 75 6 l 74 -3 l 83 -17 l 96 -18 l 121 18 l 151 43 l 151 58 z "},"/":{"ha":453,"x_min":0,"x_max":0,"o":"m 319 710 l 356 829 l 347 853 l 365 860 l 421 1011 b 439 1040 425 1019 435 1032 l 438 1056 l 381 1074 l 363 1035 l 346 979 l 301 824 l 279 767 l 218 569 l 206 543 l 169 421 l 94 193 l 103 168 l 86 156 l 35 31 b 22 -1 31 21 26 7 l 8 -40 l 63 -62 l 79 -56 l 88 -32 l 89 0 l 119 94 l 156 218 l 207 365 l 263 549 l 319 710 z "},":":{"ha":179,"x_min":0,"x_max":0,"o":"m 151 568 l 133 585 b 122 582 131 585 125 582 l 115 603 l 101 625 l 86 626 b 61 597 79 617 68 607 l 29 569 l 28 551 l 64 521 b 74 518 65 521 72 518 l 76 514 l 75 515 l 74 507 l 83 493 l 96 492 l 121 528 l 151 553 l 151 568 z m 151 58 l 133 75 b 122 72 131 75 125 72 l 115 93 l 101 115 l 86 117 b 61 88 79 107 68 97 l 29 60 l 28 42 l 64 11 b 74 8 65 11 72 8 l 76 4 l 75 6 l 74 -3 l 83 -17 l 96 -18 l 121 18 l 151 43 l 151 58 z "},";":{"ha":197,"x_min":0,"x_max":0,"o":"m 163 568 l 144 585 b 133 582 142 585 136 582 l 126 603 l 113 625 l 97 626 b 72 597 90 617 79 607 l 40 569 l 39 551 l 75 521 b 85 518 76 521 83 518 l 88 514 l 86 515 l 85 507 l 94 493 l 107 492 l 132 528 l 163 553 l 163 568 z m 38 -58 l 8 -81 l 0 -97 l 36 -124 l 53 -112 l 86 -64 l 135 10 l 157 54 l 163 60 l 163 75 l 144 92 b 133 89 142 92 136 89 l 126 110 l 113 132 l 97 133 b 72 104 90 124 79 114 l 40 76 l 39 58 l 75 28 b 79 26 75 28 76 26 l 75 -8 l 38 -58 z "},"<":{"ha":514,"x_min":0,"x_max":0,"o":"m 138 589 l 74 547 l 49 528 l 31 525 l 33 478 l 36 469 l 107 432 l 107 433 l 131 411 l 153 411 l 221 367 l 376 278 l 376 279 l 396 260 l 426 236 l 446 233 l 467 267 l 482 303 l 439 317 l 408 325 l 290 390 l 251 406 l 115 503 l 124 517 l 242 601 l 282 614 l 353 657 l 407 678 l 475 704 l 468 749 l 438 774 l 400 754 l 356 719 l 292 679 l 238 636 l 203 624 l 138 589 z "},"=":{"ha":514,"x_min":0,"x_max":0,"o":"m 71 643 l 33 649 l 25 618 l 26 604 l 25 581 l 39 578 l 79 581 l 118 589 l 286 581 l 353 589 l 375 585 l 460 575 l 482 586 l 489 646 l 457 646 l 417 635 l 364 632 l 276 624 l 240 631 l 71 643 z m 97 421 l 61 431 l 33 428 l 26 417 b 29 392 26 411 29 399 l 25 361 l 39 358 l 71 360 l 111 369 l 293 368 b 317 371 300 368 310 371 l 460 356 l 482 367 l 478 432 l 246 417 l 219 421 l 97 421 z "},">":{"ha":514,"x_min":0,"x_max":0,"o":"m 369 415 l 407 440 l 457 474 l 472 481 l 474 526 l 471 535 l 399 572 l 399 571 l 376 592 l 353 592 l 285 632 l 143 728 l 143 726 l 129 739 l 93 768 l 74 771 l 51 738 l 39 706 l 81 688 l 111 679 l 215 614 l 254 600 l 390 508 l 383 493 l 264 410 l 224 393 l 168 347 l 113 329 l 46 304 l 51 257 l 82 232 l 119 251 l 165 285 l 214 325 l 268 368 l 303 381 l 369 415 z "},"?":{"ha":474,"x_min":0,"x_max":0,"o":"m 264 553 b 271 574 265 558 269 567 l 311 635 l 429 788 l 433 838 l 358 917 l 313 953 l 318 974 l 274 1044 l 218 1056 l 197 1026 l 199 1026 l 103 926 l 28 851 l 38 829 l 68 804 l 89 807 l 108 868 l 143 921 l 142 921 l 169 947 l 169 946 l 196 967 b 204 971 197 967 201 969 l 231 964 l 231 965 l 272 926 l 271 926 l 369 790 l 342 738 l 319 700 l 321 700 l 274 657 b 229 593 258 636 243 613 l 206 568 l 210 496 b 203 376 208 456 204 417 l 197 321 l 271 303 l 288 339 l 275 378 b 257 415 271 389 263 404 l 272 431 l 264 553 z m 314 57 l 290 81 l 288 81 l 276 101 l 260 124 l 247 126 l 219 92 l 221 92 l 189 58 l 185 43 l 219 11 b 229 8 221 11 228 8 l 232 4 l 231 6 l 229 -4 l 240 -18 l 254 -24 l 283 17 l 282 17 l 311 44 l 314 57 z "},"@":{"ha":786,"x_min":0,"x_max":0,"o":"m 447 939 l 399 943 l 363 908 l 304 839 l 235 767 l 71 610 l 61 592 l 0 550 l -6 508 l 31 465 l 163 339 l 181 319 l 203 281 l 374 103 l 386 78 l 442 81 l 524 154 l 599 226 l 600 249 l 621 244 l 717 322 l 732 342 l 711 372 l 686 392 l 564 267 l 471 179 l 425 146 l 400 160 l 254 314 l 229 319 l 224 344 l 88 485 l 89 490 l 68 518 l 79 529 l 136 600 l 140 619 l 154 610 l 328 779 l 421 875 l 456 844 l 542 765 l 564 739 l 625 678 l 658 672 l 657 650 l 697 611 l 665 581 l 594 518 l 540 569 l 463 660 l 464 660 l 439 690 l 400 686 l 343 622 l 294 579 l 276 560 l 239 532 l 236 500 l 254 479 l 311 436 l 326 411 l 406 318 l 446 313 l 511 386 l 567 429 l 571 461 l 603 456 l 758 586 l 765 628 l 743 650 l 626 750 l 625 749 l 560 815 l 447 939 z m 429 372 l 369 433 l 358 436 l 356 451 l 311 504 l 303 510 l 408 617 l 417 624 l 472 572 l 553 483 l 504 442 l 429 372 z "},"A":{"ha":576,"x_min":0,"x_max":0,"o":"m 422 271 l 426 233 l 431 221 l 438 171 l 454 151 l 440 139 l 458 -4 l 478 -11 l 486 -11 l 533 11 l 510 81 l 497 175 l 460 314 l 460 339 l 379 693 l 375 706 l 372 717 l 378 740 l 332 954 l 326 974 l 319 993 l 324 1025 l 249 1029 l 235 953 l 225 892 l 217 833 l 225 825 l 207 785 l 167 582 l 165 565 l 165 549 l 158 519 l 153 490 l 119 307 l 119 279 l 121 275 l 103 253 l 89 168 l 53 17 l 76 -6 l 131 -10 l 139 50 l 139 103 l 140 111 l 161 236 l 160 242 l 179 249 l 186 251 l 221 263 l 310 289 l 347 313 l 361 314 l 386 318 l 406 321 l 422 271 z m 228 622 l 224 639 l 238 661 l 285 882 l 286 907 l 293 879 l 344 643 l 356 567 l 392 390 l 399 379 l 400 379 l 383 371 l 365 363 l 325 350 l 231 319 l 229 314 l 228 310 l 197 308 l 190 307 l 172 307 l 176 349 l 179 363 l 182 376 l 199 472 l 228 622 z "},"B":{"ha":544,"x_min":0,"x_max":0,"o":"m 292 65 l 314 85 l 338 106 l 389 144 l 447 193 l 499 249 l 508 313 l 496 326 l 356 450 l 324 476 l 278 518 l 274 524 l 394 633 l 476 724 l 481 785 l 467 796 l 375 871 l 189 1040 l 108 1008 l 111 957 l 114 940 l 118 924 l 114 868 l 119 703 l 125 542 l 117 468 l 117 250 l 122 178 l 110 1 l 154 -8 l 200 -21 l 292 65 z m 251 465 l 346 382 l 383 344 l 415 311 l 444 281 l 431 264 l 425 251 l 372 193 l 350 181 l 310 138 l 190 47 l 189 47 l 181 92 l 182 189 l 168 229 l 181 238 l 179 422 l 174 494 l 181 594 l 172 611 l 171 653 l 169 696 l 175 775 l 175 865 l 176 957 l 178 967 l 181 967 l 333 832 l 367 799 l 421 751 l 421 746 l 365 686 l 346 650 l 329 649 l 215 542 l 213 494 l 251 465 z "},"C":{"ha":458,"x_min":0,"x_max":0,"o":"m 75 424 l 132 329 l 190 258 l 196 229 l 304 69 l 318 61 l 328 21 l 353 -12 l 375 0 l 417 36 l 394 71 l 349 126 l 319 165 l 238 293 l 193 360 l 178 363 l 160 417 l 129 458 l 115 483 l 100 513 l 135 569 l 161 622 l 210 707 l 333 871 l 349 907 l 392 956 l 419 1000 l 364 1036 l 347 1015 l 339 990 l 325 988 l 254 865 l 258 846 l 239 836 l 146 694 l 39 544 l 43 467 l 75 424 z "},"D":{"ha":539,"x_min":0,"x_max":0,"o":"m 285 125 l 335 221 l 417 346 l 413 353 l 410 361 l 408 361 l 431 372 l 494 461 l 514 494 l 514 567 l 496 583 l 368 757 l 317 811 l 313 839 l 274 894 l 256 915 l 251 919 l 239 944 l 194 1000 l 165 1039 l 144 1029 l 103 1017 l 104 986 l 107 910 l 117 890 l 113 853 l 118 464 l 124 407 l 118 69 l 113 -3 l 142 -4 l 171 -6 l 189 -12 l 285 125 z m 176 671 l 175 792 l 169 890 l 168 917 l 167 936 l 258 810 l 339 697 l 386 643 l 424 582 l 435 564 l 450 542 l 461 518 l 436 465 l 381 385 l 304 256 l 283 231 l 250 176 l 228 149 l 182 81 l 179 79 l 176 96 l 171 165 l 169 210 l 168 239 l 179 524 l 171 579 l 164 638 l 176 671 z "},"E":{"ha":478,"x_min":0,"x_max":0,"o":"m 414 951 l 418 997 l 417 1022 l 324 1021 l 246 1017 l 222 1021 l 146 1021 l 111 1017 l 115 944 l 122 940 l 115 913 l 117 824 l 115 708 l 115 594 l 111 540 l 121 399 l 126 394 l 117 374 l 118 301 l 119 233 l 114 201 l 111 139 l 108 79 l 103 26 l 108 0 l 176 -1 l 188 6 l 256 6 l 343 -3 l 424 -4 l 433 6 l 439 65 l 408 69 l 371 63 l 249 53 l 226 53 l 182 63 l 181 78 l 178 226 l 171 233 l 179 261 l 169 303 l 179 493 l 210 492 l 342 485 l 379 482 l 383 510 l 390 540 l 379 551 l 340 550 l 271 542 l 174 543 l 168 639 l 167 719 l 176 736 l 179 874 l 182 913 l 181 938 l 176 950 l 174 963 l 204 968 l 221 967 l 238 967 l 324 960 l 346 963 l 388 951 l 414 951 z "},"F":{"ha":469,"x_min":0,"x_max":0,"o":"m 117 386 l 113 240 l 121 203 l 111 103 l 106 1 l 175 -7 l 192 -4 l 192 33 l 185 53 l 188 101 l 176 229 l 178 351 l 174 413 l 172 450 l 172 486 l 331 478 l 346 482 l 372 469 l 388 468 l 393 486 l 397 526 l 393 551 l 311 542 l 211 538 l 188 539 l 178 539 l 172 758 l 164 785 l 174 871 l 183 960 l 203 964 l 254 964 l 306 961 l 399 951 l 422 953 l 429 992 l 429 1025 l 314 1022 l 236 1017 l 199 1017 l 143 1021 l 107 1019 l 111 968 l 108 893 l 124 889 l 117 853 l 122 599 l 121 592 l 121 550 l 117 386 z "},"G":{"ha":536,"x_min":0,"x_max":0,"o":"m 371 572 l 375 490 l 379 471 l 383 431 l 383 228 l 378 193 l 382 110 l 381 101 l 379 97 l 317 185 l 261 278 l 196 365 l 169 386 l 174 399 l 99 519 l 129 564 l 160 632 l 242 738 l 375 917 l 417 963 l 436 992 l 415 1004 l 374 1038 l 331 974 l 331 965 l 329 956 l 251 853 l 238 810 l 193 757 l 156 704 l 104 631 l 60 563 l 51 550 l 46 549 l 43 474 l 115 372 l 163 318 l 193 265 l 219 257 l 218 257 l 211 239 l 274 136 l 332 57 l 349 28 l 356 15 l 365 -10 l 438 -4 l 436 38 l 432 42 l 428 49 l 436 65 l 436 444 l 429 453 l 444 564 l 438 576 l 371 572 z "},"H":{"ha":649,"x_min":0,"x_max":0,"o":"m 111 208 l 106 38 l 104 1 l 163 -4 l 183 -1 l 186 14 l 179 81 l 171 161 l 172 167 l 181 442 l 179 451 l 189 456 l 331 514 l 338 514 l 461 547 l 463 469 l 469 450 l 469 153 l 481 135 l 474 103 l 464 15 l 471 -1 l 529 -1 l 543 1 l 542 42 l 533 82 l 531 272 l 526 540 l 524 569 l 518 640 l 524 775 l 531 901 l 539 986 l 538 1018 l 497 1021 l 465 1022 l 460 1010 l 465 963 l 468 825 l 472 685 l 464 621 l 428 601 l 376 578 l 367 578 l 343 561 l 317 551 l 296 553 l 179 514 l 178 553 l 168 711 l 169 771 l 168 875 l 178 943 l 183 1018 l 117 1026 l 101 1010 l 107 982 l 113 954 l 108 919 l 114 829 l 114 824 l 124 732 l 117 583 l 125 417 l 111 208 z "},"I":{"ha":301,"x_min":0,"x_max":0,"o":"m 132 610 l 126 525 l 122 478 l 122 89 l 110 0 l 132 -1 l 158 -3 l 189 6 l 192 29 l 186 57 l 183 86 l 183 499 l 182 506 l 181 532 l 178 572 l 172 640 l 176 715 l 181 910 l 188 950 l 192 1021 l 136 1032 l 111 1025 l 115 986 l 121 654 l 132 610 z "},"J":{"ha":365,"x_min":0,"x_max":0,"o":"m 194 606 l 186 522 l 188 436 l 189 424 l 189 351 l 183 199 l 188 171 l 147 118 l 104 92 l 90 83 l 71 71 l 72 71 l 28 54 l 28 17 l 74 -26 l 179 69 l 185 86 l 192 100 l 239 131 l 257 163 l 231 440 l 233 464 l 243 475 l 238 883 l 256 1007 l 250 1022 l 171 1019 l 171 985 l 178 949 l 185 689 l 194 606 z "},"K":{"ha":578,"x_min":0,"x_max":0,"o":"m 363 315 l 269 496 l 250 525 l 263 560 l 378 758 l 372 765 l 385 779 l 450 882 l 489 940 l 533 988 l 517 1006 l 456 1031 l 421 942 l 347 800 l 263 656 l 246 619 l 231 606 l 201 553 l 185 513 l 218 456 l 267 372 l 272 374 l 279 374 l 278 353 l 314 288 l 325 267 l 328 246 l 417 78 l 454 -11 l 481 -15 l 539 26 l 497 85 l 476 99 l 478 99 l 476 117 l 424 207 l 363 315 z m 101 1018 l 107 982 l 113 947 l 110 828 l 117 642 l 119 599 l 124 556 l 118 228 l 117 222 l 115 201 l 110 124 l 124 89 l 125 89 l 106 83 l 103 -3 l 146 -4 l 185 -1 l 186 35 l 182 56 l 179 79 l 178 153 l 172 226 l 178 496 l 164 596 l 169 678 l 186 1021 l 167 1026 l 101 1018 z "},"L":{"ha":451,"x_min":0,"x_max":0,"o":"m 340 60 l 192 57 l 176 71 l 183 78 l 182 135 l 175 240 l 164 260 l 163 260 l 175 265 l 171 342 l 171 349 l 168 468 l 167 486 l 167 556 l 176 721 l 183 888 l 189 939 l 190 1018 l 183 1024 l 140 1017 l 103 1017 l 111 917 l 125 906 l 117 874 l 121 374 l 110 128 l 118 85 l 107 54 l 107 0 l 132 -3 l 199 3 l 215 0 l 292 0 l 304 1 l 404 -6 l 415 6 l 422 64 l 417 76 l 375 71 l 340 60 z "},"M":{"ha":668,"x_min":0,"x_max":0,"o":"m 218 922 l 158 1028 l 146 1025 l 101 1017 l 103 974 l 108 951 l 114 931 l 107 903 l 113 838 l 118 767 l 110 175 l 111 133 l 121 131 l 110 119 l 108 113 l 107 71 l 99 18 l 103 -3 l 181 0 l 183 24 l 171 242 l 158 419 l 168 488 l 168 675 l 161 682 l 167 697 l 171 806 l 169 817 l 169 853 l 164 904 l 165 906 l 182 883 l 197 864 l 217 828 l 276 725 l 293 700 l 304 660 l 338 653 l 347 650 l 371 700 l 369 700 l 385 725 l 390 735 l 401 760 l 436 817 l 482 883 l 494 906 l 497 908 l 499 828 l 503 742 l 493 418 l 503 347 l 507 338 l 500 317 l 500 140 l 490 40 l 488 4 l 496 -4 l 569 -1 l 565 54 l 563 106 l 547 764 l 542 785 l 549 825 l 558 1015 l 543 1028 l 504 1029 l 472 974 l 442 919 l 443 919 l 438 917 l 428 890 l 382 811 l 342 750 l 333 736 l 328 724 l 321 736 l 315 751 l 301 782 l 297 786 l 218 922 z "},"N":{"ha":651,"x_min":0,"x_max":0,"o":"m 532 88 l 535 140 l 522 467 l 518 579 l 535 949 l 538 1015 l 510 1021 l 461 1019 l 463 938 l 474 919 l 475 919 l 461 915 l 464 869 l 465 767 l 469 661 l 464 653 l 460 653 l 354 797 l 342 806 l 304 871 l 182 1035 l 117 1017 l 117 969 l 124 904 l 126 814 l 131 722 l 126 419 l 135 397 l 140 388 l 128 335 l 124 239 l 118 126 l 118 96 l 119 79 l 113 -1 l 147 -7 l 192 -4 l 194 51 l 192 74 l 192 232 l 186 285 l 181 339 l 183 674 l 174 696 l 172 700 l 185 788 l 185 914 l 186 922 l 190 925 l 213 904 l 247 860 l 260 844 l 293 803 l 351 721 l 396 663 l 417 625 l 435 586 l 468 518 l 469 397 l 476 364 l 483 332 l 471 329 l 467 218 l 471 138 l 471 76 l 467 -4 l 481 -7 l 535 -6 l 542 8 l 532 88 z "},"O":{"ha":588,"x_min":0,"x_max":0,"o":"m 332 1029 l 282 1025 l 267 1022 l 258 997 l 251 983 l 164 783 l 163 779 l 163 772 l 161 760 l 142 740 l 57 546 l 44 532 l 53 483 l 89 403 l 115 340 l 143 279 l 174 208 l 194 208 l 200 153 l 258 22 l 261 -6 l 319 -14 l 331 -1 l 346 39 l 425 233 l 479 343 l 547 486 l 551 547 l 496 647 l 469 715 l 460 715 l 450 728 l 436 779 l 354 965 l 332 1029 z m 310 89 l 311 89 l 300 82 l 297 81 l 261 174 l 211 282 l 169 369 l 135 460 l 133 464 l 117 506 l 111 518 l 108 524 l 110 535 l 110 542 l 111 547 l 163 669 l 167 708 l 165 708 l 183 721 l 271 886 l 292 932 l 293 942 l 294 944 l 303 938 l 346 846 l 354 844 l 360 844 l 351 826 l 442 618 l 456 593 l 461 579 l 472 569 l 481 529 l 486 513 l 421 325 l 411 289 l 389 271 l 310 89 z "},"P":{"ha":507,"x_min":0,"x_max":0,"o":"m 301 496 l 344 543 l 375 572 l 403 603 l 429 633 l 478 676 l 482 743 l 381 836 l 317 888 l 303 913 l 172 1036 l 157 1033 l 114 1011 l 117 940 l 119 911 l 122 875 l 122 654 l 131 656 l 119 632 l 118 260 l 125 225 l 110 0 l 158 -4 l 188 -1 l 178 175 l 165 178 l 167 178 l 178 193 l 178 219 l 175 324 l 192 365 l 263 443 l 301 496 z m 178 532 l 175 643 l 175 675 l 174 708 l 172 775 l 181 924 l 183 944 l 292 839 l 310 835 l 314 821 l 333 803 l 385 753 l 422 715 l 422 708 l 421 700 l 376 651 l 367 639 l 338 601 l 292 550 l 249 506 l 183 440 l 181 439 l 176 458 l 179 514 l 178 532 z "},"Q":{"ha":599,"x_min":0,"x_max":0,"o":"m 288 1029 l 271 1032 l 160 772 l 151 718 l 124 690 l 51 550 l 49 500 l 60 478 l 63 471 l 82 414 l 151 261 l 165 254 l 164 254 l 176 206 l 233 81 l 269 6 l 301 -75 l 358 -224 l 379 -231 l 438 -193 l 429 -176 l 372 -72 l 364 -72 l 361 -50 l 340 -7 l 343 18 l 347 42 l 364 68 l 436 249 l 435 249 l 444 256 l 482 343 l 493 369 l 553 479 l 561 538 l 503 669 l 488 674 l 493 683 l 443 785 l 338 1036 l 288 1029 z m 307 81 l 304 79 l 299 93 l 269 154 l 194 329 l 171 339 l 172 339 l 176 363 l 150 429 l 125 496 l 124 501 l 118 517 l 113 532 l 156 654 l 164 675 l 190 740 l 283 928 l 290 936 l 293 942 l 303 949 l 411 715 l 428 697 l 449 638 l 472 578 l 490 531 l 499 511 l 422 310 l 307 81 z "},"R":{"ha":550,"x_min":0,"x_max":0,"o":"m 224 460 l 229 435 l 253 394 l 306 311 l 319 278 l 375 175 l 394 139 l 446 13 l 460 -14 l 524 17 l 529 39 l 486 89 l 456 149 l 436 182 l 424 193 l 419 224 l 369 308 l 331 364 l 325 389 l 289 457 l 346 522 l 375 568 l 425 618 l 486 694 l 483 760 l 436 801 l 424 804 l 394 838 l 171 1042 l 106 1018 l 111 911 l 124 614 l 119 340 l 121 300 l 122 279 l 122 260 l 113 197 l 106 1 l 158 -3 l 185 6 l 183 96 l 171 121 l 169 121 l 179 126 l 174 261 l 179 383 l 169 506 l 176 574 l 174 692 l 167 715 l 167 751 l 176 911 l 175 933 l 175 956 l 211 928 l 231 925 l 243 901 l 364 788 l 376 778 l 425 722 l 421 715 l 397 667 l 335 592 l 224 460 z "},"S":{"ha":471,"x_min":0,"x_max":0,"o":"m 336 332 l 263 215 l 239 183 l 240 183 l 219 169 l 179 117 l 138 67 l 101 35 l 96 13 l 151 -25 l 179 -4 l 197 29 l 215 64 l 272 142 l 307 192 l 358 254 l 414 329 l 417 400 l 383 426 l 243 569 l 217 586 l 189 608 l 133 671 l 168 728 l 206 785 l 300 900 l 307 932 l 363 967 l 379 1004 l 328 1039 l 311 1036 l 282 986 l 265 964 l 232 915 l 192 858 l 153 806 l 71 710 l 71 633 l 104 607 l 138 582 l 222 514 l 286 442 l 292 439 l 351 371 l 336 332 z "},"T":{"ha":486,"x_min":0,"x_max":0,"o":"m 346 1021 l 275 1018 l 210 1017 l 193 1017 l 176 1019 l 146 1021 l 32 1026 l 22 953 l 40 946 l 106 958 l 117 960 l 135 965 l 210 965 l 210 936 l 215 900 l 221 865 l 214 779 l 224 707 l 215 400 l 208 201 l 213 190 l 217 181 l 200 76 l 200 1 l 240 -4 l 274 0 l 293 13 l 275 93 l 272 369 l 264 394 l 257 421 l 256 421 l 265 429 l 269 494 l 268 608 l 268 650 l 267 667 l 265 728 l 269 864 l 272 914 l 276 967 l 364 967 l 424 954 l 436 949 l 461 947 l 464 989 l 458 1022 l 346 1021 z "},"U":{"ha":643,"x_min":0,"x_max":0,"o":"m 131 219 l 122 106 l 124 49 l 186 -6 l 251 -7 l 288 14 l 444 86 l 461 69 l 468 29 l 475 -8 l 540 3 l 526 85 l 518 260 l 522 588 l 513 618 l 514 657 l 514 688 l 518 783 l 528 876 l 521 890 l 515 904 l 531 918 l 535 982 l 529 1018 l 499 1019 l 458 1018 l 456 951 l 461 785 l 471 779 l 469 779 l 474 778 l 463 758 l 460 640 l 465 549 l 471 457 l 467 263 l 458 156 l 422 135 l 424 135 l 375 107 l 368 103 l 369 103 l 307 81 l 269 65 l 250 58 l 226 63 l 189 93 l 183 131 l 172 310 l 185 489 l 181 600 l 179 615 l 178 708 l 189 768 l 189 792 l 188 807 l 188 879 l 193 926 l 194 1018 l 125 1021 l 118 1000 l 125 772 l 133 719 l 122 682 l 121 581 l 129 419 l 131 219 z "},"V":{"ha":572,"x_min":0,"x_max":0,"o":"m 193 543 l 167 763 l 147 800 l 146 800 l 156 804 l 135 894 l 121 1024 l 72 1024 l 42 1007 l 89 850 l 100 744 l 131 629 l 135 581 l 153 528 l 213 236 l 247 26 l 263 -8 l 296 -7 l 326 -4 l 347 90 l 369 249 l 421 469 l 421 475 l 419 482 l 418 497 l 438 536 l 456 658 l 472 782 l 483 829 l 496 879 l 519 978 l 532 1019 l 465 1031 l 456 1019 l 435 879 l 435 843 l 439 838 l 419 815 l 400 664 l 378 519 l 363 474 l 346 375 l 319 244 l 293 117 l 289 118 l 286 119 l 281 153 l 263 224 l 235 383 l 193 543 z "},"W":{"ha":707,"x_min":0,"x_max":0,"o":"m 517 369 l 508 240 l 504 190 l 501 146 l 488 186 l 474 229 l 460 278 l 457 307 l 404 506 l 393 590 l 385 628 l 349 638 l 326 631 l 247 267 l 210 131 l 208 131 l 203 186 l 171 671 l 167 794 l 154 882 l 158 1015 l 135 1031 l 110 1026 l 75 1022 l 97 863 l 121 522 l 142 504 l 132 463 l 142 328 l 153 85 l 157 38 l 157 0 l 200 -7 l 206 -7 l 226 -4 l 226 8 l 228 15 l 275 165 l 275 183 l 321 368 l 335 406 l 338 428 l 338 439 l 339 451 l 346 488 l 353 519 l 372 438 l 381 401 l 385 393 l 439 182 l 446 156 l 483 26 l 488 -4 l 517 -3 l 547 0 l 547 57 l 549 65 l 564 253 l 565 297 l 567 319 l 567 342 l 601 785 l 632 1018 l 618 1024 l 558 1029 l 554 982 l 557 849 l 556 831 l 556 781 l 543 765 l 538 653 l 532 542 l 517 369 z "},"X":{"ha":558,"x_min":0,"x_max":0,"o":"m 60 56 l 43 13 l 88 -6 l 115 -12 l 126 11 l 167 160 l 203 249 l 282 456 l 390 168 l 401 161 l 400 161 l 399 128 l 432 35 l 432 17 l 446 -12 l 514 10 l 511 43 l 493 71 l 443 189 l 428 214 l 388 336 l 342 443 l 315 533 l 338 594 l 404 750 l 464 885 l 464 906 l 463 906 l 472 914 l 518 1011 l 463 1035 l 457 1035 l 444 1032 l 435 985 l 425 939 l 378 819 l 361 761 l 324 675 l 289 593 l 238 713 l 219 757 l 215 768 l 211 776 l 196 838 l 163 915 l 132 1033 l 81 1026 l 54 1010 l 114 871 l 132 856 l 125 842 l 190 690 l 207 644 l 226 597 l 253 532 l 201 383 l 176 311 l 174 311 l 135 224 l 104 143 l 60 56 z "},"Y":{"ha":543,"x_min":0,"x_max":0,"o":"m 299 -4 l 311 6 l 307 44 l 303 83 l 304 143 l 299 172 l 304 285 l 304 322 l 303 339 l 301 393 l 301 479 l 350 597 l 407 750 l 435 833 l 451 868 l 468 904 l 485 928 l 515 1007 l 500 1018 l 479 1028 l 442 1032 l 436 1003 l 424 951 l 393 839 l 365 782 l 344 714 l 319 643 l 304 613 l 296 592 l 294 586 l 286 569 l 283 561 l 276 565 l 272 572 l 244 646 l 226 686 l 188 794 l 171 850 l 144 915 l 131 947 l 118 963 l 121 981 l 106 1029 l 76 1024 l 35 1013 l 31 990 l 89 890 l 93 865 l 142 754 l 185 646 l 200 611 l 235 522 l 236 511 l 240 482 l 246 442 l 243 371 l 249 174 l 251 160 l 247 142 l 233 40 l 231 -1 l 299 -4 z "},"Z":{"ha":494,"x_min":0,"x_max":0,"o":"m 357 1018 l 271 1014 l 168 1014 l 157 1017 l 72 1019 l 64 947 l 75 938 l 97 942 l 154 954 l 244 960 l 315 960 b 340 961 324 960 335 961 l 349 956 l 347 956 l 338 918 l 328 878 l 300 786 l 310 782 l 308 782 l 297 768 l 229 563 l 186 406 l 125 256 l 125 225 l 60 51 l 78 0 l 133 0 l 204 4 l 288 3 l 393 3 l 431 -1 l 438 43 l 438 71 l 429 81 l 342 61 l 169 60 b 143 53 161 58 151 54 l 190 261 l 190 269 b 192 281 190 275 192 279 l 235 426 l 304 615 l 329 711 l 361 826 l 415 951 l 414 951 l 433 963 b 425 982 431 967 428 976 l 422 990 l 417 1021 l 399 1021 l 357 1018 z "},"[":{"ha":346,"x_min":0,"x_max":0,"o":"m 131 558 b 133 208 131 442 133 324 l 125 85 l 131 -33 l 126 -64 l 124 -101 l 138 -106 b 178 -103 149 -106 167 -103 l 331 -107 l 332 -60 l 325 -50 l 294 -53 l 239 -58 l 181 -58 b 179 -29 181 -49 179 -39 l 185 119 l 179 168 l 165 185 l 179 213 b 181 408 179 260 181 358 l 185 535 l 179 563 l 185 767 l 179 814 l 181 1014 b 182 1068 181 1032 182 1050 l 286 1058 l 326 1060 l 329 1103 l 324 1114 l 294 1114 l 256 1113 l 171 1114 l 126 1113 l 121 1100 l 125 1067 l 133 856 l 125 731 l 131 558 z "},"\\":{"ha":453,"x_min":0,"x_max":0,"o":"m 185 549 l 240 365 l 292 218 l 328 94 l 358 0 l 360 -32 l 368 -56 l 385 -62 l 439 -40 l 425 -1 b 413 31 421 7 417 21 l 361 156 l 344 168 l 353 193 l 278 421 l 242 543 l 229 569 l 168 767 l 146 824 l 101 979 l 85 1035 l 67 1074 l 10 1056 l 8 1040 b 26 1011 13 1032 22 1019 l 82 860 l 100 853 l 92 829 l 128 710 l 185 549 z "},"]":{"ha":343,"x_min":0,"x_max":0,"o":"m 221 731 l 211 856 l 221 1067 l 224 1100 l 218 1113 l 174 1114 l 89 1113 l 50 1114 l 19 1114 l 15 1103 l 18 1060 l 58 1058 l 163 1068 l 164 1014 l 165 933 b 178 913 169 928 174 919 l 165 896 l 165 814 l 160 753 l 165 563 l 160 535 l 164 408 b 165 167 164 328 165 247 l 160 119 l 165 -29 b 164 -58 165 -39 164 -49 l 106 -58 l 50 -53 l 18 -50 l 13 -60 l 14 -107 l 167 -103 l 207 -106 l 222 -101 l 219 -64 l 214 -33 l 221 85 l 211 208 b 214 558 211 324 214 442 l 221 731 z "},"^":{"ha":632,"x_min":0,"x_max":0,"o":"m 100 -3 l 139 3 l 156 0 l 233 0 l 246 1 l 515 -4 l 576 -1 l 578 22 l 579 115 l 564 128 l 574 163 l 569 667 l 578 899 l 574 943 l 582 975 l 579 1022 l 560 1025 l 493 1019 l 479 1022 l 346 1022 l 333 1021 l 61 1025 l 68 1006 l 58 1003 l 61 907 l 71 894 l 61 860 l 65 372 l 58 125 l 67 81 l 56 47 l 56 0 l 71 -3 l 93 0 l 100 -3 z m 111 131 l 110 126 l 110 236 l 93 244 l 110 267 l 106 340 l 106 347 l 104 468 l 103 486 l 103 556 l 111 724 l 117 888 l 118 897 l 119 974 l 528 975 l 526 883 l 525 803 l 542 779 l 525 772 l 529 699 l 529 692 l 531 571 l 532 553 l 532 483 l 524 315 l 522 150 l 517 49 l 493 49 l 107 46 l 111 131 z "},"_":{"ha":694,"x_min":0,"x_max":0,"o":"m 92 -24 l 57 -22 l 22 -19 l 19 -35 l 22 -54 l 21 -79 l 35 -83 l 67 -78 l 96 -72 l 461 -76 l 524 -72 l 572 -74 l 658 -76 l 679 -67 l 681 -15 l 622 -21 l 593 -25 l 563 -28 l 349 -24 l 268 -25 l 254 -36 l 243 -25 l 92 -24 z "},"`":{"ha":217,"x_min":0,"x_max":0,"o":"m 118 1111 l 142 1085 l 150 1076 l 188 1086 l 189 1096 l 154 1135 l 96 1218 l 86 1226 l 33 1208 l 28 1197 l 57 1165 l 118 1111 z "},"a":{"ha":576,"x_min":0,"x_max":0,"o":"m 422 271 l 426 233 l 431 221 l 438 171 l 454 151 l 440 139 l 458 -4 l 478 -11 l 486 -11 l 533 11 l 510 81 l 497 175 l 460 314 l 460 339 l 379 693 l 375 706 l 372 717 l 378 740 l 332 954 l 326 974 l 319 993 l 324 1025 l 249 1029 l 235 953 l 225 892 l 217 833 l 225 825 l 207 785 l 167 582 l 165 565 l 165 549 l 158 519 l 153 490 l 119 307 l 119 279 l 121 275 l 103 253 l 89 168 l 53 17 l 76 -6 l 131 -10 l 139 50 l 139 103 l 140 111 l 161 236 l 160 242 l 179 249 l 186 251 l 221 263 l 310 289 l 347 313 l 361 314 l 386 318 l 406 321 l 422 271 z m 228 622 l 224 639 l 238 661 l 285 882 l 286 907 l 293 879 l 344 643 l 356 567 l 392 390 l 399 379 l 400 379 l 383 371 l 365 363 l 325 350 l 231 319 l 229 314 l 228 310 l 197 308 l 190 307 l 172 307 l 176 349 l 179 363 l 182 376 l 199 472 l 228 622 z "},"b":{"ha":544,"x_min":0,"x_max":0,"o":"m 292 65 l 314 85 l 338 106 l 389 144 l 447 193 l 499 249 l 508 313 l 496 326 l 356 450 l 324 476 l 278 518 l 274 524 l 394 633 l 476 724 l 481 785 l 467 796 l 375 871 l 189 1040 l 108 1008 l 111 957 l 114 940 l 118 924 l 114 868 l 119 703 l 125 542 l 117 468 l 117 250 l 122 178 l 110 1 l 154 -8 l 200 -21 l 292 65 z m 251 465 l 346 382 l 383 344 l 415 311 l 444 281 l 431 264 l 425 251 l 372 193 l 350 181 l 310 138 l 190 47 l 189 47 l 181 92 l 182 189 l 168 229 l 181 238 l 179 422 l 174 494 l 181 594 l 172 611 l 171 653 l 169 696 l 175 775 l 175 865 l 176 957 l 178 967 l 181 967 l 333 832 l 367 799 l 421 751 l 421 746 l 365 686 l 346 650 l 329 649 l 215 542 l 213 494 l 251 465 z "},"c":{"ha":458,"x_min":0,"x_max":0,"o":"m 75 424 l 132 329 l 190 258 l 196 229 l 304 69 l 318 61 l 328 21 l 353 -12 l 375 0 l 417 36 l 394 71 l 349 126 l 319 165 l 238 293 l 193 360 l 178 363 l 160 417 l 129 458 l 115 483 l 100 513 l 135 569 l 161 622 l 210 707 l 333 871 l 349 907 l 392 956 l 419 1000 l 364 1036 l 347 1015 l 339 990 l 325 988 l 254 865 l 258 846 l 239 836 l 146 694 l 39 544 l 43 467 l 75 424 z "},"d":{"ha":539,"x_min":0,"x_max":0,"o":"m 285 125 l 335 221 l 417 346 l 413 353 l 410 361 l 408 361 l 431 372 l 494 461 l 514 494 l 514 567 l 496 583 l 368 757 l 317 811 l 313 839 l 274 894 l 256 915 l 251 919 l 239 944 l 194 1000 l 165 1039 l 144 1029 l 103 1017 l 104 986 l 107 910 l 117 890 l 113 853 l 118 464 l 124 407 l 118 69 l 113 -3 l 142 -4 l 171 -6 l 189 -12 l 285 125 z m 176 671 l 175 792 l 169 888 l 168 918 l 167 938 l 258 810 l 339 697 l 386 643 l 424 582 l 435 564 l 450 542 l 461 518 l 436 465 l 381 385 l 304 256 l 283 231 l 250 176 l 228 149 l 182 81 l 179 79 l 176 96 l 171 165 l 169 210 l 168 239 l 179 524 l 171 579 l 164 638 l 176 671 z "},"e":{"ha":478,"x_min":0,"x_max":0,"o":"m 414 951 l 418 997 l 417 1022 l 324 1021 l 246 1017 l 222 1021 l 146 1021 l 111 1017 l 115 944 l 122 940 l 115 913 l 117 824 l 115 708 l 115 594 l 111 540 l 121 399 l 126 394 l 117 374 l 118 301 l 119 233 l 114 201 l 111 139 l 108 79 l 103 26 l 108 0 l 176 -1 l 188 6 l 256 6 l 343 -3 l 424 -4 l 433 6 l 439 65 l 408 69 l 371 63 l 249 53 l 226 53 l 182 63 l 181 78 l 178 226 l 171 233 l 179 261 l 169 303 l 179 493 l 210 492 l 342 485 l 379 482 l 383 510 l 390 540 l 379 551 l 340 550 l 271 542 l 174 543 l 168 639 l 167 719 l 176 736 l 179 874 l 182 913 l 181 938 l 176 950 l 174 963 l 204 968 l 221 967 l 238 967 l 324 960 l 346 963 l 388 951 l 414 951 z "},"f":{"ha":469,"x_min":0,"x_max":0,"o":"m 117 386 l 113 240 l 121 203 l 111 103 l 106 1 l 175 -7 l 192 -4 l 192 33 l 185 53 l 188 101 l 176 229 l 178 351 l 174 413 l 172 450 l 172 486 l 331 478 l 346 482 l 372 469 l 388 468 l 393 486 l 397 526 l 393 551 l 311 542 l 211 538 l 188 539 l 178 539 l 172 758 l 164 785 l 174 871 l 183 960 l 203 964 l 254 964 l 306 961 l 399 951 l 422 953 l 429 992 l 429 1025 l 314 1022 l 236 1017 l 199 1017 l 143 1021 l 107 1019 l 111 968 l 108 893 l 124 889 l 117 853 l 122 599 l 121 592 l 121 550 l 117 386 z "},"g":{"ha":536,"x_min":0,"x_max":0,"o":"m 371 572 l 375 490 l 379 471 l 383 431 l 383 228 l 378 193 l 382 110 l 381 101 l 379 97 l 317 185 l 261 278 l 196 365 l 169 386 l 174 399 l 99 519 l 129 564 l 160 632 l 242 738 l 375 917 l 417 963 l 436 992 l 415 1004 l 374 1038 l 331 974 l 331 965 l 329 956 l 251 853 l 238 810 l 193 757 l 156 704 l 104 631 l 60 563 l 51 550 l 46 549 l 43 474 l 115 372 l 163 318 l 193 265 l 219 257 l 218 257 l 211 239 l 274 136 l 332 57 l 349 28 l 356 15 l 365 -10 l 438 -4 l 436 38 l 432 42 l 428 49 l 436 65 l 436 444 l 429 453 l 444 564 l 438 576 l 371 572 z "},"h":{"ha":649,"x_min":0,"x_max":0,"o":"m 111 208 l 106 38 l 104 1 l 163 -4 l 183 -1 l 186 14 l 179 81 l 171 161 l 172 167 l 181 442 l 179 451 l 189 456 l 331 514 l 338 514 l 461 547 l 463 469 l 469 450 l 469 153 l 481 135 l 474 103 l 464 15 l 471 -1 l 529 -1 l 543 1 l 542 42 l 533 82 l 531 272 l 526 540 l 524 569 l 518 640 l 524 775 l 531 901 l 539 986 l 538 1018 l 497 1021 l 465 1022 l 460 1010 l 465 963 l 468 825 l 472 685 l 464 621 l 428 601 l 376 578 l 367 578 l 343 561 l 317 551 l 296 553 l 179 514 l 178 553 l 168 711 l 169 771 l 168 875 l 178 943 l 183 1018 l 117 1026 l 101 1010 l 107 982 l 113 954 l 108 919 l 114 829 l 114 824 l 124 732 l 117 583 l 125 417 l 111 208 z "},"i":{"ha":301,"x_min":0,"x_max":0,"o":"m 132 610 l 126 525 l 122 478 l 122 89 l 110 0 l 132 -1 l 158 -3 l 189 6 l 192 29 l 186 57 l 183 86 l 183 499 l 182 506 l 181 532 l 178 572 l 172 640 l 176 715 l 181 910 l 188 950 l 192 1021 l 136 1032 l 111 1025 l 115 986 l 121 654 l 132 610 z "},"j":{"ha":369,"x_min":0,"x_max":0,"o":"m 194 606 l 186 522 l 188 436 l 189 424 l 189 351 l 183 199 l 188 171 l 147 118 l 104 92 l 90 83 l 71 71 l 72 71 l 28 54 l 28 17 l 74 -26 l 179 69 l 185 86 l 192 100 l 239 131 l 257 163 l 231 440 l 233 464 l 243 475 l 238 883 l 256 1007 l 250 1022 l 171 1019 l 171 985 l 178 949 l 185 689 l 194 606 z "},"k":{"ha":578,"x_min":0,"x_max":0,"o":"m 363 315 l 269 496 l 250 525 l 263 560 l 378 758 l 372 765 l 385 779 l 450 882 l 489 940 l 533 988 l 517 1006 l 456 1031 l 421 942 l 347 800 l 263 656 l 246 619 l 231 606 l 201 553 l 185 513 l 218 456 l 267 372 l 272 374 l 279 374 l 278 353 l 314 288 l 325 267 l 328 246 l 417 78 l 454 -11 l 481 -15 l 539 26 l 497 85 l 476 99 l 478 99 l 476 117 l 424 207 l 363 315 z m 101 1018 l 107 982 l 113 947 l 110 828 l 117 642 l 119 599 l 124 556 l 118 228 l 117 222 l 115 201 l 110 124 l 124 89 l 125 89 l 106 83 l 103 -3 l 146 -4 l 185 -1 l 186 35 l 182 56 l 179 79 l 178 153 l 172 226 l 178 496 l 164 596 l 169 678 l 186 1021 l 167 1026 l 101 1018 z "},"l":{"ha":451,"x_min":0,"x_max":0,"o":"m 340 60 l 192 57 l 176 71 l 183 78 l 182 135 l 175 240 l 164 260 l 163 260 l 175 265 l 171 342 l 171 349 l 168 468 l 167 486 l 167 556 l 176 721 l 183 888 l 189 939 l 190 1018 l 183 1024 l 140 1017 l 103 1017 l 111 917 l 125 906 l 117 874 l 121 374 l 110 128 l 118 85 l 107 54 l 107 0 l 132 -3 l 199 3 l 215 0 l 292 0 l 304 1 l 404 -6 l 415 6 l 422 64 l 417 76 l 375 71 l 340 60 z "},"m":{"ha":668,"x_min":0,"x_max":0,"o":"m 218 922 l 158 1028 l 146 1025 l 101 1017 l 103 974 l 108 951 l 114 931 l 107 903 l 113 838 l 118 767 l 110 175 l 111 133 l 121 131 l 110 119 l 108 113 l 107 71 l 99 18 l 103 -3 l 181 0 l 183 24 l 171 242 l 158 419 l 168 488 l 168 675 l 161 682 l 167 697 l 171 806 l 169 817 l 169 853 l 164 904 l 165 906 l 182 883 l 197 864 l 217 828 l 276 725 l 293 700 l 304 660 l 338 653 l 347 650 l 371 700 l 369 700 l 385 725 l 390 735 l 401 760 l 436 817 l 482 883 l 494 906 l 497 908 l 499 828 l 503 742 l 493 418 l 503 347 l 507 338 l 500 317 l 500 140 l 490 40 l 488 4 l 496 -4 l 569 -1 l 565 54 l 563 106 l 547 764 l 542 785 l 549 825 l 558 1015 l 543 1028 l 504 1029 l 472 974 l 442 919 l 443 919 l 438 917 l 428 890 l 382 811 l 342 750 l 333 736 l 328 724 l 321 736 l 315 751 l 301 782 l 297 786 l 218 922 z "},"n":{"ha":651,"x_min":0,"x_max":0,"o":"m 532 88 l 535 140 l 522 467 l 518 579 l 535 949 l 538 1015 l 510 1021 l 461 1019 l 463 938 l 474 919 l 475 919 l 461 915 l 464 869 l 465 767 l 469 661 l 464 653 l 460 653 l 354 797 l 342 806 l 304 871 l 182 1035 l 117 1017 l 117 969 l 124 904 l 126 814 l 131 722 l 126 419 l 135 397 l 140 388 l 128 335 l 124 239 l 118 126 l 118 96 l 119 79 l 113 -1 l 147 -7 l 192 -4 l 194 51 l 192 74 l 192 232 l 186 285 l 181 339 l 183 674 l 174 696 l 172 700 l 185 788 l 185 914 l 186 922 l 190 925 l 213 904 l 247 860 l 260 844 l 293 803 l 351 721 l 396 663 l 417 625 l 435 586 l 468 518 l 469 397 l 476 364 l 483 332 l 471 329 l 467 218 l 471 138 l 471 76 l 467 -4 l 481 -7 l 535 -6 l 542 8 l 532 88 z "},"o":{"ha":588,"x_min":0,"x_max":0,"o":"m 332 1029 l 282 1025 l 267 1022 l 258 997 l 251 983 l 164 783 l 163 779 l 163 772 l 161 760 l 142 740 l 57 546 l 44 532 l 53 483 l 89 403 l 115 340 l 143 279 l 174 208 l 194 208 l 200 153 l 258 22 l 261 -6 l 319 -14 l 331 -1 l 346 39 l 425 233 l 479 343 l 547 486 l 551 547 l 496 647 l 469 715 l 460 715 l 450 728 l 436 779 l 354 965 l 332 1029 z m 310 89 l 311 89 l 300 82 l 297 81 l 261 174 l 211 282 l 169 369 l 135 460 l 133 464 l 117 506 l 111 518 l 108 524 l 110 535 l 110 542 l 111 547 l 163 669 l 167 708 l 165 708 l 183 721 l 271 886 l 292 932 l 293 942 l 294 944 l 303 938 l 346 846 l 354 844 l 360 844 l 351 826 l 442 618 l 454 593 l 460 579 l 467 569 l 481 529 l 486 513 l 421 325 l 411 289 l 389 271 l 310 89 z "},"p":{"ha":507,"x_min":0,"x_max":0,"o":"m 301 496 l 344 543 l 375 572 l 403 603 l 429 633 l 478 676 l 482 743 l 381 836 l 317 888 l 303 913 l 172 1036 l 157 1033 l 114 1011 l 117 940 l 119 911 l 122 875 l 122 654 l 131 656 l 119 632 l 118 260 l 125 225 l 110 0 l 158 -4 l 188 -1 l 178 175 l 165 178 l 167 178 l 178 193 l 178 219 l 175 324 l 192 365 l 263 443 l 301 496 z m 178 532 l 175 643 l 175 675 l 174 708 l 172 775 l 181 924 l 183 944 l 292 839 l 310 835 l 314 821 l 333 803 l 385 753 l 422 715 l 422 708 l 421 700 l 376 651 l 367 639 l 338 601 l 292 550 l 249 506 l 183 440 l 181 439 l 176 458 l 179 514 l 178 532 z "},"q":{"ha":599,"x_min":0,"x_max":0,"o":"m 288 1029 l 271 1032 l 160 772 l 151 718 l 124 690 l 51 550 l 49 500 l 60 478 l 63 471 l 82 414 l 151 261 l 165 254 l 164 254 l 176 206 l 233 81 l 269 6 l 301 -75 l 358 -224 l 379 -231 l 438 -193 l 429 -176 l 372 -72 l 364 -72 l 361 -50 l 340 -7 l 343 18 l 347 42 l 364 68 l 436 249 l 435 249 l 444 256 l 482 343 l 493 369 l 553 479 l 561 538 l 503 669 l 488 674 l 493 683 l 443 785 l 338 1036 l 288 1029 z m 307 81 l 304 79 l 299 93 l 269 154 l 194 329 l 171 339 l 172 339 l 176 363 l 150 429 l 125 496 l 124 501 l 118 517 l 113 532 l 156 654 l 164 675 l 190 740 l 283 928 l 290 936 l 293 942 l 303 949 l 411 715 l 428 697 l 449 638 l 472 578 l 490 531 l 499 511 l 422 310 l 307 81 z "},"r":{"ha":550,"x_min":0,"x_max":0,"o":"m 224 460 l 229 435 l 253 394 l 306 311 l 319 278 l 375 175 l 394 139 l 446 13 l 460 -14 l 524 17 l 529 39 l 486 89 l 456 149 l 436 182 l 424 193 l 419 224 l 369 308 l 331 364 l 325 389 l 289 457 l 346 522 l 375 568 l 425 618 l 486 694 l 483 760 l 436 801 l 424 804 l 394 838 l 171 1042 l 106 1018 l 111 911 l 124 614 l 119 340 l 121 300 l 122 279 l 122 260 l 113 197 l 106 1 l 158 -3 l 185 6 l 183 96 l 171 121 l 169 121 l 179 126 l 174 261 l 179 383 l 169 506 l 176 574 l 174 692 l 167 715 l 167 751 l 176 911 l 175 933 l 175 956 l 211 928 l 231 925 l 243 901 l 364 788 l 376 778 l 425 722 l 421 715 l 397 667 l 335 592 l 224 460 z "},"s":{"ha":471,"x_min":0,"x_max":0,"o":"m 336 332 l 263 215 l 239 183 l 240 183 l 219 169 l 179 117 l 138 67 l 101 35 l 96 13 l 151 -25 l 179 -4 l 197 29 l 215 64 l 272 142 l 307 192 l 358 254 l 414 329 l 417 400 l 383 426 l 243 569 l 217 586 l 189 608 l 133 671 l 168 728 l 206 785 l 300 900 l 307 932 l 363 967 l 379 1004 l 328 1039 l 311 1036 l 282 986 l 265 964 l 232 915 l 192 858 l 153 806 l 71 710 l 71 633 l 104 607 l 138 582 l 222 514 l 286 442 l 292 439 l 351 371 l 336 332 z "},"t":{"ha":486,"x_min":0,"x_max":0,"o":"m 346 1021 l 275 1018 l 210 1017 l 193 1017 l 176 1019 l 146 1021 l 32 1026 l 22 953 l 40 946 l 106 958 l 117 960 l 135 965 l 210 965 l 210 936 l 215 900 l 221 865 l 214 779 l 224 707 l 215 400 l 208 201 l 213 190 l 217 181 l 200 76 l 200 1 l 240 -4 l 274 0 l 293 13 l 275 93 l 272 369 l 264 394 l 257 421 l 256 421 l 265 429 l 269 494 l 268 608 l 268 650 l 267 667 l 265 728 l 269 864 l 272 914 l 276 967 l 364 967 l 424 954 l 436 949 l 461 947 l 464 989 l 458 1022 l 346 1021 z "},"u":{"ha":643,"x_min":0,"x_max":0,"o":"m 131 219 l 122 106 l 124 49 l 186 -6 l 251 -7 l 288 14 l 444 86 l 461 69 l 468 29 l 475 -8 l 540 3 l 526 85 l 518 260 l 522 588 l 513 618 l 514 657 l 514 688 l 518 783 l 528 876 l 521 890 l 515 904 l 531 918 l 535 982 l 529 1018 l 499 1019 l 458 1018 l 456 951 l 461 785 l 471 779 l 469 779 l 474 778 l 463 758 l 460 640 l 465 549 l 471 457 l 467 263 l 458 156 l 422 135 l 424 135 l 375 107 l 368 103 l 369 103 l 307 81 l 269 65 l 250 58 l 226 63 l 189 93 l 183 131 l 172 310 l 185 489 l 181 600 l 179 615 l 178 708 l 189 768 l 189 792 l 188 807 l 188 879 l 193 926 l 194 1018 l 125 1021 l 118 1000 l 125 772 l 133 719 l 122 682 l 121 581 l 129 419 l 131 219 z "},"v":{"ha":572,"x_min":0,"x_max":0,"o":"m 193 543 l 167 763 l 147 800 l 146 800 l 156 804 l 135 894 l 121 1024 l 72 1024 l 42 1007 l 89 850 l 100 744 l 131 629 l 135 581 l 153 528 l 213 236 l 247 26 l 263 -8 l 296 -7 l 326 -4 l 347 90 l 369 249 l 421 469 l 421 475 l 419 482 l 418 497 l 438 536 l 456 658 l 472 782 l 483 829 l 496 879 l 519 978 l 532 1019 l 465 1031 l 456 1019 l 435 879 l 435 843 l 439 838 l 419 815 l 400 664 l 378 519 l 363 474 l 346 375 l 319 244 l 293 117 l 289 118 l 286 119 l 281 153 l 263 224 l 235 383 l 193 543 z "},"w":{"ha":707,"x_min":0,"x_max":0,"o":"m 517 369 l 508 240 l 504 190 l 501 146 l 488 186 l 474 229 l 460 278 l 457 307 l 404 506 l 393 590 l 385 628 l 349 638 l 326 631 l 247 267 l 210 131 l 208 131 l 203 186 l 171 671 l 167 794 l 154 882 l 158 1015 l 135 1031 l 110 1026 l 75 1022 l 97 863 l 121 522 l 142 504 l 132 463 l 142 328 l 153 85 l 157 38 l 157 0 l 200 -7 l 206 -7 l 226 -4 l 226 8 l 228 15 l 275 165 l 275 183 l 321 368 l 335 406 l 338 428 l 338 439 l 339 451 l 346 488 l 353 519 l 372 438 l 381 401 l 385 393 l 439 182 l 446 156 l 483 26 l 488 -4 l 517 -3 l 547 0 l 547 57 l 549 65 l 564 253 l 565 297 l 567 319 l 567 342 l 601 785 l 632 1018 l 618 1024 l 558 1029 l 554 982 l 557 849 l 556 831 l 556 781 l 543 765 l 538 653 l 532 542 l 517 369 z "},"x":{"ha":558,"x_min":0,"x_max":0,"o":"m 60 56 l 43 13 l 88 -6 l 115 -12 l 126 11 l 167 160 l 203 249 l 282 456 l 390 168 l 401 161 l 400 161 l 399 128 l 432 35 l 432 17 l 446 -12 l 514 10 l 511 43 l 493 71 l 443 189 l 428 214 l 388 336 l 342 443 l 315 533 l 338 594 l 404 750 l 464 885 l 464 906 l 463 906 l 472 914 l 518 1011 l 463 1035 l 457 1035 l 444 1032 l 435 985 l 425 939 l 378 819 l 361 761 l 324 675 l 289 593 l 238 713 l 219 757 l 215 768 l 211 776 l 196 838 l 163 915 l 132 1033 l 81 1026 l 54 1010 l 114 871 l 132 856 l 125 842 l 190 690 l 207 644 l 226 597 l 253 532 l 201 383 l 176 311 l 174 311 l 135 224 l 104 143 l 60 56 z "},"y":{"ha":543,"x_min":0,"x_max":0,"o":"m 299 -4 l 311 6 l 307 44 l 303 83 l 304 143 l 299 172 l 304 285 l 304 322 l 303 339 l 301 393 l 301 479 l 350 597 l 407 750 l 435 833 l 451 868 l 468 904 l 485 928 l 515 1007 l 500 1018 l 479 1028 l 442 1032 l 436 1003 l 424 951 l 393 839 l 365 782 l 344 714 l 319 643 l 304 613 l 296 592 l 294 586 l 286 569 l 283 561 l 276 565 l 272 572 l 244 646 l 226 686 l 188 794 l 171 850 l 144 915 l 131 947 l 118 963 l 121 981 l 106 1029 l 76 1024 l 35 1013 l 31 990 l 89 890 l 93 865 l 142 754 l 185 646 l 200 611 l 235 522 l 236 511 l 240 482 l 246 442 l 243 371 l 249 174 l 251 160 l 247 142 l 233 40 l 231 -1 l 299 -4 z "},"z":{"ha":494,"x_min":0,"x_max":0,"o":"m 357 1018 l 271 1014 l 168 1014 l 157 1017 l 72 1019 l 64 947 l 75 938 l 97 942 l 154 954 l 244 960 l 315 960 b 340 961 324 960 335 961 l 349 956 l 347 956 l 338 918 l 328 878 l 300 786 l 310 782 l 308 782 l 297 768 l 229 563 l 186 406 l 125 256 l 125 225 l 60 51 l 78 0 l 133 0 l 204 4 l 288 3 l 393 3 l 431 -1 l 438 43 l 438 71 l 429 81 l 342 61 l 169 60 b 143 53 161 58 151 54 l 190 261 l 190 269 b 192 281 190 275 192 279 l 235 426 l 304 615 l 329 711 l 361 826 l 415 951 l 414 951 l 433 963 b 425 982 431 967 428 976 l 422 990 l 417 1021 l 399 1021 l 357 1018 z "},"{":{"ha":349,"x_min":0,"x_max":0,"o":"m 175 628 l 113 586 l 115 571 l 101 581 l 40 547 l 39 488 l 117 446 l 176 401 l 129 85 l 119 47 l 115 17 l 125 -11 l 179 -28 l 315 -117 l 344 -61 l 338 -51 l 186 21 l 185 50 l 193 169 l 185 197 l 201 229 l 240 422 l 203 451 l 114 504 l 96 518 l 235 606 l 231 638 l 218 686 l 186 958 l 188 1007 l 257 1040 l 340 1064 l 329 1114 l 313 1125 l 249 1092 l 136 1039 l 124 1013 l 140 907 l 157 896 l 144 878 l 175 628 z "},"|":{"ha":285,"x_min":0,"x_max":0,"o":"m 164 610 l 172 654 l 178 997 l 165 1013 l 178 1026 l 182 1094 l 157 1101 l 101 1097 l 106 1019 l 113 979 l 117 785 l 121 640 l 115 572 l 115 532 l 126 507 l 113 499 l 110 64 l 122 56 l 110 31 l 110 -53 l 107 -82 l 101 -110 l 104 -136 l 124 -144 l 161 -140 l 183 -139 l 171 -50 l 171 478 l 167 525 l 164 610 z "},"}":{"ha":350,"x_min":0,"x_max":0,"o":"m 181 403 l 243 446 l 240 460 l 256 454 l 315 483 l 317 543 l 239 586 l 179 629 l 226 929 l 233 965 l 240 993 l 232 1021 l 179 1044 l 42 1121 l 14 1068 l 21 1058 l 172 996 b 174 967 172 986 174 976 l 163 863 l 171 833 l 154 801 l 115 608 l 153 581 l 242 526 l 260 513 l 124 425 l 128 393 l 140 331 l 169 61 b 168 13 169 43 168 32 l 99 -31 l 14 -56 l 32 -106 l 49 -117 l 104 -82 l 221 -19 l 233 7 l 215 113 l 199 124 l 211 142 l 181 403 z "},"~":{"ha":632,"x_min":0,"x_max":0,"o":"m 100 -3 l 139 3 l 156 0 l 233 0 l 246 1 l 515 -4 l 576 -1 l 578 22 l 579 115 l 564 128 l 574 163 l 569 667 l 578 899 l 574 943 l 582 975 l 579 1022 l 560 1025 l 493 1019 l 479 1022 l 346 1022 l 333 1021 l 61 1025 l 68 1006 l 58 1003 l 61 907 l 71 894 l 61 860 l 65 372 l 58 125 l 67 81 l 56 47 l 56 0 l 71 -3 l 93 0 l 100 -3 z m 111 131 l 110 126 l 110 236 l 93 244 l 110 267 l 106 340 l 106 347 l 104 468 l 103 486 l 103 556 l 111 724 l 117 888 l 118 897 l 119 974 l 528 975 l 526 883 l 525 803 l 542 779 l 525 772 l 529 699 l 529 692 l 531 571 l 532 553 l 532 483 l 524 315 l 522 150 l 517 49 l 493 49 l 107 46 l 111 131 z "},"":{"ha":285,"x_min":0,"x_max":0,"o":""},"":{"ha":294,"x_min":0,"x_max":0,"o":"m 122 393 l 117 325 l 108 121 l 128 103 l 107 81 l 106 39 l 103 4 l 125 -4 l 193 1 l 188 71 l 179 82 l 185 110 l 175 282 l 163 332 l 171 358 l 167 506 l 175 682 l 147 700 l 114 700 l 110 675 l 119 610 b 118 526 119 582 118 554 l 124 514 l 119 478 l 122 393 z m 206 951 l 206 967 l 175 992 l 150 1028 l 138 1026 l 128 1013 l 129 1004 l 131 1006 l 128 1001 b 118 999 126 1001 119 999 l 82 968 l 83 950 l 115 922 b 140 893 122 913 133 903 l 156 894 l 169 917 l 176 938 b 188 935 179 938 185 935 l 206 951 z "},"":{"ha":488,"x_min":0,"x_max":0,"o":"m 401 669 l 406 699 l 354 732 l 300 788 l 301 789 l 290 786 l 299 950 l 289 956 l 299 968 l 303 1021 l 276 1026 l 225 1024 l 229 961 l 236 929 l 233 799 l 233 774 l 228 772 l 157 692 l 79 603 l 19 547 l 17 472 l 160 317 l 238 215 l 238 149 l 251 142 l 238 121 l 238 60 l 235 36 l 229 14 l 232 -8 l 253 -15 l 290 -11 l 314 -11 l 301 63 l 301 225 l 333 265 l 400 301 l 410 319 l 386 354 l 363 356 l 332 321 l 278 290 l 229 328 l 192 375 l 150 401 l 150 429 l 85 507 l 114 574 l 114 572 l 132 582 l 188 656 l 244 721 l 281 721 l 307 700 l 363 642 l 376 642 l 401 669 z "},"":{"ha":440,"x_min":0,"x_max":0,"o":"m 79 544 b 61 550 67 544 71 547 b 29 550 51 553 43 550 l 21 547 l 21 535 b 22 522 21 531 22 526 l 22 511 l 19 490 l 38 488 b 68 493 49 488 58 490 l 83 496 l 131 496 l 132 374 l 128 128 l 129 88 l 81 99 l -1 50 l 10 7 l 39 -4 l 93 47 l 158 35 l 308 -1 l 303 0 l 346 -1 l 417 35 l 428 46 l 411 81 l 403 93 l 372 75 l 339 53 l 203 69 l 188 83 l 194 90 l 193 135 l 186 240 l 175 260 l 174 260 l 186 265 l 182 342 l 182 349 l 183 468 l 182 486 l 182 494 l 194 494 l 314 485 l 335 496 l 342 543 l 335 553 l 283 547 l 182 544 l 182 556 l 188 721 l 192 828 l 246 910 l 304 967 l 351 958 l 394 940 l 406 958 l 411 1010 l 332 1022 l 271 1018 l 158 892 l 128 838 l 131 543 l 79 544 z "},"":{"ha":632,"x_min":0,"x_max":0,"o":"m 100 -3 l 139 3 l 156 0 l 233 0 l 246 1 l 515 -4 l 576 -1 l 578 22 l 579 115 l 564 128 l 574 163 l 569 667 l 578 899 l 574 943 l 582 975 l 579 1022 l 560 1025 l 493 1019 l 479 1022 l 346 1022 l 333 1021 l 61 1025 l 68 1006 l 58 1003 l 61 907 l 71 894 l 61 860 l 65 372 l 58 125 l 67 81 l 56 47 l 56 0 l 71 -3 l 93 0 l 100 -3 z m 111 131 l 110 126 l 110 236 l 93 244 l 110 267 l 106 340 l 106 347 l 104 468 l 103 486 l 103 556 l 111 724 l 117 888 l 118 897 l 119 974 l 528 975 l 526 883 l 525 803 l 542 779 l 525 772 l 529 699 l 529 692 l 531 571 l 532 553 l 532 483 l 524 315 l 522 150 l 517 49 l 493 49 l 107 46 l 111 131 z "},"":{"ha":543,"x_min":0,"x_max":0,"o":"m 132 464 l 96 474 l 68 471 l 61 460 b 64 435 61 454 64 442 l 60 404 l 74 401 l 106 403 l 146 413 l 244 411 l 243 371 l 246 283 l 106 296 l 68 301 l 60 271 l 61 257 l 60 233 l 74 231 l 114 233 l 153 242 l 247 236 l 249 174 l 251 160 l 247 142 l 233 40 l 231 -1 l 299 -4 l 311 6 l 303 83 l 304 143 l 299 172 l 301 235 l 360 242 l 382 238 l 453 228 l 475 239 l 482 299 l 450 299 l 410 288 l 371 285 l 303 278 l 304 285 l 304 322 l 303 339 l 301 393 l 301 411 b 324 414 308 411 317 414 l 453 399 l 475 410 l 471 475 l 301 463 l 301 479 l 350 597 l 407 750 l 435 833 l 451 868 l 468 904 l 485 928 l 515 1007 l 500 1018 l 479 1028 l 442 1032 l 436 1003 l 424 951 l 393 839 l 365 782 l 344 714 l 319 643 l 304 613 l 296 592 l 294 586 l 286 569 l 283 561 l 276 565 l 272 572 l 244 646 l 226 686 l 188 794 l 171 850 l 144 915 l 131 947 l 118 963 l 121 981 l 106 1029 l 76 1024 l 35 1013 l 31 990 l 89 890 l 93 865 l 142 754 l 185 646 l 200 611 l 235 522 l 236 511 l 240 482 l 243 461 l 226 464 l 132 464 z "},"":{"ha":283,"x_min":0,"x_max":0,"o":"m 154 468 l 110 460 l 113 411 l 118 340 l 110 64 l 122 56 l 110 31 l 110 -53 l 107 -82 l 101 -110 l 104 -136 l 124 -144 l 161 -140 l 182 -137 l 171 -50 l 163 299 l 167 393 l 161 403 l 168 414 l 174 460 l 154 468 z m 135 585 l 165 590 l 168 610 l 164 654 l 168 782 l 178 994 l 168 1001 l 178 1015 l 182 1094 l 157 1101 l 101 1097 l 106 1008 l 113 968 l 122 785 l 119 640 l 114 593 l 135 585 z "},"":{"ha":632,"x_min":0,"x_max":0,"o":"m 100 -3 l 139 3 l 156 0 l 233 0 l 246 1 l 515 -4 l 576 -1 l 578 22 l 579 115 l 564 128 l 574 163 l 569 667 l 578 899 l 574 943 l 582 975 l 579 1022 l 560 1025 l 493 1019 l 479 1022 l 346 1022 l 333 1021 l 61 1025 l 68 1006 l 58 1003 l 61 907 l 71 894 l 61 860 l 65 372 l 58 125 l 67 81 l 56 47 l 56 0 l 71 -3 l 93 0 l 100 -3 z m 111 131 l 110 126 l 110 236 l 93 244 l 110 267 l 106 340 l 106 347 l 104 468 l 103 486 l 103 556 l 111 724 l 117 888 l 118 897 l 119 974 l 528 975 l 526 883 l 525 803 l 542 779 l 525 772 l 529 699 l 529 692 l 531 571 l 532 553 l 532 483 l 524 315 l 522 150 l 517 49 l 493 49 l 107 46 l 111 131 z "},"":{"ha":306,"x_min":0,"x_max":0,"o":"m 125 1150 l 90 1189 l 78 1190 l 31 1149 l 28 1132 l 51 1111 l 71 1092 l 86 1086 l 106 1111 l 132 1138 l 125 1150 z m 181 1128 l 215 1089 l 228 1086 l 275 1129 l 278 1147 l 257 1165 l 236 1186 l 218 1190 l 201 1165 l 175 1139 l 181 1128 z "},"":{"ha":632,"x_min":0,"x_max":0,"o":"m 100 -3 l 139 3 l 156 0 l 233 0 l 246 1 l 515 -4 l 576 -1 l 578 22 l 579 115 l 564 128 l 574 163 l 569 667 l 578 899 l 574 943 l 582 975 l 579 1022 l 560 1025 l 493 1019 l 479 1022 l 346 1022 l 333 1021 l 61 1025 l 68 1006 l 58 1003 l 61 907 l 71 894 l 61 860 l 65 372 l 58 125 l 67 81 l 56 47 l 56 0 l 71 -3 l 93 0 l 100 -3 z m 111 131 l 110 126 l 110 236 l 93 244 l 110 267 l 106 340 l 106 347 l 104 468 l 103 486 l 103 556 l 111 724 l 117 888 l 118 897 l 119 974 l 528 975 l 526 883 l 525 803 l 542 779 l 525 772 l 529 699 l 529 692 l 531 571 l 532 553 l 532 483 l 524 315 l 522 150 l 517 49 l 493 49 l 107 46 l 111 131 z "},"":{"ha":632,"x_min":0,"x_max":0,"o":"m 100 -3 l 139 3 l 156 0 l 233 0 l 246 1 l 515 -4 l 576 -1 l 578 22 l 579 115 l 564 128 l 574 163 l 569 667 l 578 899 l 574 943 l 582 975 l 579 1022 l 560 1025 l 493 1019 l 479 1022 l 346 1022 l 333 1021 l 61 1025 l 68 1006 l 58 1003 l 61 907 l 71 894 l 61 860 l 65 372 l 58 125 l 67 81 l 56 47 l 56 0 l 71 -3 l 93 0 l 100 -3 z m 111 131 l 110 126 l 110 236 l 93 244 l 110 267 l 106 340 l 106 347 l 104 468 l 103 486 l 103 556 l 111 724 l 117 888 l 118 897 l 119 974 l 528 975 l 526 883 l 525 803 l 542 779 l 525 772 l 529 699 l 529 692 l 531 571 l 532 553 l 532 483 l 524 315 l 522 150 l 517 49 l 493 49 l 107 46 l 111 131 z "},"":{"ha":521,"x_min":0,"x_max":0,"o":"m 104 583 l 107 571 l 71 549 l 26 501 l 26 458 l 33 451 l 103 379 l 115 376 l 150 329 l 197 297 l 197 278 l 203 263 l 231 231 l 261 251 l 278 285 l 247 310 l 178 375 l 165 386 l 83 483 l 161 568 l 201 614 l 228 633 l 281 685 l 271 701 l 232 728 l 189 678 l 192 676 l 131 610 l 104 583 z m 306 583 l 308 571 l 272 549 l 228 501 l 228 458 l 235 451 l 304 379 l 317 376 l 351 329 l 399 297 l 399 278 l 404 263 l 432 231 l 463 251 l 479 285 l 449 310 l 379 375 l 367 386 l 285 483 l 363 568 l 403 614 l 429 633 l 482 685 l 472 701 l 433 728 l 390 678 l 393 676 l 332 610 l 306 583 z "},"":{"ha":514,"x_min":0,"x_max":0,"o":"m 108 554 b 72 556 100 554 82 556 l 38 564 l 24 549 l 28 489 l 42 486 l 82 496 l 115 506 l 289 499 l 325 508 l 378 504 l 425 494 l 436 464 b 439 357 436 433 439 388 l 425 314 l 425 264 l 490 260 l 489 310 b 486 425 489 347 486 388 l 490 542 l 481 561 l 431 556 b 367 549 410 554 386 550 l 267 554 l 108 554 z "},"":{"ha":367,"x_min":0,"x_max":0,"o":"m 118 547 l 86 551 l 54 554 l 46 551 l 47 513 l 44 489 l 63 486 l 93 492 l 122 496 l 229 494 l 306 488 l 325 497 l 324 547 l 317 557 l 268 550 l 182 546 l 118 547 z "},"":{"ha":632,"x_min":0,"x_max":0,"o":"m 100 -3 l 139 3 l 156 0 l 233 0 l 246 1 l 515 -4 l 576 -1 l 578 22 l 579 115 l 564 128 l 574 163 l 569 667 l 578 899 l 574 943 l 582 975 l 579 1022 l 560 1025 l 493 1019 l 479 1022 l 346 1022 l 333 1021 l 61 1025 l 68 1006 l 58 1003 l 61 907 l 71 894 l 61 860 l 65 372 l 58 125 l 67 81 l 56 47 l 56 0 l 71 -3 l 93 0 l 100 -3 z m 111 131 l 110 126 l 110 236 l 93 244 l 110 267 l 106 340 l 106 347 l 104 468 l 103 486 l 103 556 l 111 724 l 117 888 l 118 897 l 119 974 l 528 975 l 526 883 l 525 803 l 542 779 l 525 772 l 529 699 l 529 692 l 531 571 l 532 553 l 532 483 l 524 315 l 522 150 l 517 49 l 493 49 l 107 46 l 111 131 z "},"":{"ha":356,"x_min":0,"x_max":0,"o":"m 32 924 l 36 910 l 38 894 l 115 819 l 146 779 l 167 756 l 192 760 l 250 819 l 249 836 l 264 836 l 325 901 l 324 926 l 267 981 l 246 997 l 244 1010 l 192 1068 l 165 1068 l 143 1033 l 124 1019 l 110 1000 l 32 924 z m 128 958 l 176 1013 l 185 1013 l 238 956 l 269 918 l 269 906 l 221 854 l 186 815 l 179 814 l 140 853 l 117 860 l 122 871 l 86 911 l 86 918 l 119 947 l 128 958 z "},"":{"ha":514,"x_min":0,"x_max":0,"o":"m 188 525 l 151 525 l 100 532 l 69 538 l 39 540 l 33 525 l 26 472 l 40 469 l 106 478 l 183 481 l 233 479 l 233 436 l 231 322 l 226 292 l 221 251 l 225 238 l 267 238 l 297 246 l 296 281 l 289 317 l 285 479 l 328 479 l 386 474 l 460 465 l 482 475 l 486 510 l 486 539 l 429 535 l 376 526 l 290 522 l 285 522 l 285 524 l 281 596 l 293 710 l 296 771 l 236 772 l 225 750 l 231 639 l 236 631 l 236 568 l 235 524 l 188 525 z m 113 69 l 76 78 l 40 83 l 35 58 l 32 14 l 46 10 l 88 14 l 131 19 l 279 19 l 344 18 b 396 15 361 18 381 15 l 451 4 l 474 17 l 482 76 l 436 74 l 360 65 b 242 64 321 65 281 64 l 113 69 z "},"":{"ha":632,"x_min":0,"x_max":0,"o":"m 100 -3 l 139 3 l 156 0 l 233 0 l 246 1 l 515 -4 l 576 -1 l 578 22 l 579 115 l 564 128 l 574 163 l 569 667 l 578 899 l 574 943 l 582 975 l 579 1022 l 560 1025 l 493 1019 l 479 1022 l 346 1022 l 333 1021 l 61 1025 l 68 1006 l 58 1003 l 61 907 l 71 894 l 61 860 l 65 372 l 58 125 l 67 81 l 56 47 l 56 0 l 71 -3 l 93 0 l 100 -3 z m 111 131 l 110 126 l 110 236 l 93 244 l 110 267 l 106 340 l 106 347 l 104 468 l 103 486 l 103 556 l 111 724 l 117 888 l 118 897 l 119 974 l 528 975 l 526 883 l 525 803 l 542 779 l 525 772 l 529 699 l 529 692 l 531 571 l 532 553 l 532 483 l 524 315 l 522 150 l 517 49 l 493 49 l 107 46 l 111 131 z "},"":{"ha":632,"x_min":0,"x_max":0,"o":"m 100 -3 l 139 3 l 156 0 l 233 0 l 246 1 l 515 -4 l 576 -1 l 578 22 l 579 115 l 564 128 l 574 163 l 569 667 l 578 899 l 574 943 l 582 975 l 579 1022 l 560 1025 l 493 1019 l 479 1022 l 346 1022 l 333 1021 l 61 1025 l 68 1006 l 58 1003 l 61 907 l 71 894 l 61 860 l 65 372 l 58 125 l 67 81 l 56 47 l 56 0 l 71 -3 l 93 0 l 100 -3 z m 111 131 l 110 126 l 110 236 l 93 244 l 110 267 l 106 340 l 106 347 l 104 468 l 103 486 l 103 556 l 111 724 l 117 888 l 118 897 l 119 974 l 528 975 l 526 883 l 525 803 l 542 779 l 525 772 l 529 699 l 529 692 l 531 571 l 532 553 l 532 483 l 524 315 l 522 150 l 517 49 l 493 49 l 107 46 l 111 131 z "},"":{"ha":217,"x_min":0,"x_max":0,"o":"m 160 1165 l 189 1197 l 183 1208 l 131 1226 l 121 1218 l 63 1135 l 28 1094 l 28 1085 l 68 1075 l 78 1083 l 100 1111 l 160 1165 z "},"":{"ha":632,"x_min":0,"x_max":0,"o":"m 100 -3 l 139 3 l 156 0 l 233 0 l 246 1 l 515 -4 l 576 -1 l 578 22 l 579 115 l 564 128 l 574 163 l 569 667 l 578 899 l 574 943 l 582 975 l 579 1022 l 560 1025 l 493 1019 l 479 1022 l 346 1022 l 333 1021 l 61 1025 l 68 1006 l 58 1003 l 61 907 l 71 894 l 61 860 l 65 372 l 58 125 l 67 81 l 56 47 l 56 0 l 71 -3 l 93 0 l 100 -3 z m 111 131 l 110 126 l 110 236 l 93 244 l 110 267 l 106 340 l 106 347 l 104 468 l 103 486 l 103 556 l 111 724 l 117 888 l 118 897 l 119 974 l 528 975 l 526 883 l 525 803 l 542 779 l 525 772 l 529 699 l 529 692 l 531 571 l 532 553 l 532 483 l 524 315 l 522 150 l 517 49 l 493 49 l 107 46 l 111 131 z "},"":{"ha":632,"x_min":0,"x_max":0,"o":"m 100 -3 l 139 3 l 156 0 l 233 0 l 246 1 l 515 -4 l 576 -1 l 578 22 l 579 115 l 564 128 l 574 163 l 569 667 l 578 899 l 574 943 l 582 975 l 579 1022 l 560 1025 l 493 1019 l 479 1022 l 346 1022 l 333 1021 l 61 1025 l 68 1006 l 58 1003 l 61 907 l 71 894 l 61 860 l 65 372 l 58 125 l 67 81 l 56 47 l 56 0 l 71 -3 l 93 0 l 100 -3 z m 111 131 l 110 126 l 110 236 l 93 244 l 110 267 l 106 340 l 106 347 l 104 468 l 103 486 l 103 556 l 111 724 l 117 888 l 118 897 l 119 974 l 528 975 l 526 883 l 525 803 l 542 779 l 525 772 l 529 699 l 529 692 l 531 571 l 532 553 l 532 483 l 524 315 l 522 150 l 517 49 l 493 49 l 107 46 l 111 131 z "},"":{"ha":179,"x_min":0,"x_max":0,"o":"m 151 536 l 133 553 b 122 550 131 553 125 550 l 115 571 l 101 593 l 86 594 b 61 565 79 585 68 575 l 29 538 l 28 519 l 64 489 b 74 486 65 489 72 486 l 76 482 l 75 483 l 74 475 l 83 461 l 96 460 l 121 496 l 151 521 l 151 536 z "},"":{"ha":194,"x_min":0,"x_max":0,"o":"m 94 33 l 31 -24 l 29 -65 l 60 -78 l 94 -96 l 110 -122 l 99 -139 l 67 -168 l 28 -190 l 44 -229 l 63 -242 l 76 -239 l 103 -200 l 119 -179 l 160 -147 l 167 -118 l 135 -86 l 69 -33 l 108 -10 l 125 0 l 133 7 l 94 33 z "},"":{"ha":632,"x_min":0,"x_max":0,"o":"m 100 -3 l 139 3 l 156 0 l 233 0 l 246 1 l 515 -4 l 576 -1 l 578 22 l 579 115 l 564 128 l 574 163 l 569 667 l 578 899 l 574 943 l 582 975 l 579 1022 l 560 1025 l 493 1019 l 479 1022 l 346 1022 l 333 1021 l 61 1025 l 68 1006 l 58 1003 l 61 907 l 71 894 l 61 860 l 65 372 l 58 125 l 67 81 l 56 47 l 56 0 l 71 -3 l 93 0 l 100 -3 z m 111 131 l 110 126 l 110 236 l 93 244 l 110 267 l 106 340 l 106 347 l 104 468 l 103 486 l 103 556 l 111 724 l 117 888 l 118 897 l 119 974 l 528 975 l 526 883 l 525 803 l 542 779 l 525 772 l 529 699 l 529 692 l 531 571 l 532 553 l 532 483 l 524 315 l 522 150 l 517 49 l 493 49 l 107 46 l 111 131 z "},"":{"ha":632,"x_min":0,"x_max":0,"o":"m 100 -3 l 139 3 l 156 0 l 233 0 l 246 1 l 515 -4 l 576 -1 l 578 22 l 579 115 l 564 128 l 574 163 l 569 667 l 578 899 l 574 943 l 582 975 l 579 1022 l 560 1025 l 493 1019 l 479 1022 l 346 1022 l 333 1021 l 61 1025 l 68 1006 l 58 1003 l 61 907 l 71 894 l 61 860 l 65 372 l 58 125 l 67 81 l 56 47 l 56 0 l 71 -3 l 93 0 l 100 -3 z m 111 131 l 110 126 l 110 236 l 93 244 l 110 267 l 106 340 l 106 347 l 104 468 l 103 486 l 103 556 l 111 724 l 117 888 l 118 897 l 119 974 l 528 975 l 526 883 l 525 803 l 542 779 l 525 772 l 529 699 l 529 692 l 531 571 l 532 553 l 532 483 l 524 315 l 522 150 l 517 49 l 493 49 l 107 46 l 111 131 z "},"":{"ha":521,"x_min":0,"x_max":0,"o":"m 204 583 l 178 610 l 117 676 l 119 678 l 76 728 l 38 701 l 28 685 l 81 633 l 107 614 l 147 568 l 225 483 l 143 386 l 131 375 l 61 310 l 31 285 l 47 251 l 78 231 l 106 263 l 111 278 l 111 297 l 158 329 l 193 376 l 206 379 l 275 451 l 282 458 l 282 501 l 238 549 l 201 571 l 204 583 z m 407 583 l 381 610 l 319 676 l 322 678 l 279 728 l 240 701 l 231 685 l 283 633 l 310 614 l 350 568 l 428 483 l 346 386 l 333 375 l 264 310 l 233 285 l 250 251 l 281 231 l 308 263 l 314 278 l 314 297 l 361 329 l 396 376 l 408 379 l 478 451 l 485 458 l 485 501 l 440 549 l 404 571 l 407 583 z "},"":{"ha":632,"x_min":0,"x_max":0,"o":"m 100 -3 l 139 3 l 156 0 l 233 0 l 246 1 l 515 -4 l 576 -1 l 578 22 l 579 115 l 564 128 l 574 163 l 569 667 l 578 899 l 574 943 l 582 975 l 579 1022 l 560 1025 l 493 1019 l 479 1022 l 346 1022 l 333 1021 l 61 1025 l 68 1006 l 58 1003 l 61 907 l 71 894 l 61 860 l 65 372 l 58 125 l 67 81 l 56 47 l 56 0 l 71 -3 l 93 0 l 100 -3 z m 111 131 l 110 126 l 110 236 l 93 244 l 110 267 l 106 340 l 106 347 l 104 468 l 103 486 l 103 556 l 111 724 l 117 888 l 118 897 l 119 974 l 528 975 l 526 883 l 525 803 l 542 779 l 525 772 l 529 699 l 529 692 l 531 571 l 532 553 l 532 483 l 524 315 l 522 150 l 517 49 l 493 49 l 107 46 l 111 131 z "},"":{"ha":632,"x_min":0,"x_max":0,"o":"m 100 -3 l 139 3 l 156 0 l 233 0 l 246 1 l 515 -4 l 576 -1 l 578 22 l 579 115 l 564 128 l 574 163 l 569 667 l 578 899 l 574 943 l 582 975 l 579 1022 l 560 1025 l 493 1019 l 479 1022 l 346 1022 l 333 1021 l 61 1025 l 68 1006 l 58 1003 l 61 907 l 71 894 l 61 860 l 65 372 l 58 125 l 67 81 l 56 47 l 56 0 l 71 -3 l 93 0 l 100 -3 z m 111 131 l 110 126 l 110 236 l 93 244 l 110 267 l 106 340 l 106 347 l 104 468 l 103 486 l 103 556 l 111 724 l 117 888 l 118 897 l 119 974 l 528 975 l 526 883 l 525 803 l 542 779 l 525 772 l 529 699 l 529 692 l 531 571 l 532 553 l 532 483 l 524 315 l 522 150 l 517 49 l 493 49 l 107 46 l 111 131 z "},"":{"ha":632,"x_min":0,"x_max":0,"o":"m 100 -3 l 139 3 l 156 0 l 233 0 l 246 1 l 515 -4 l 576 -1 l 578 22 l 579 115 l 564 128 l 574 163 l 569 667 l 578 899 l 574 943 l 582 975 l 579 1022 l 560 1025 l 493 1019 l 479 1022 l 346 1022 l 333 1021 l 61 1025 l 68 1006 l 58 1003 l 61 907 l 71 894 l 61 860 l 65 372 l 58 125 l 67 81 l 56 47 l 56 0 l 71 -3 l 93 0 l 100 -3 z m 111 131 l 110 126 l 110 236 l 93 244 l 110 267 l 106 340 l 106 347 l 104 468 l 103 486 l 103 556 l 111 724 l 117 888 l 118 897 l 119 974 l 528 975 l 526 883 l 525 803 l 542 779 l 525 772 l 529 699 l 529 692 l 531 571 l 532 553 l 532 483 l 524 315 l 522 150 l 517 49 l 493 49 l 107 46 l 111 131 z "},"":{"ha":474,"x_min":0,"x_max":0,"o":"m 197 479 b 190 458 196 474 192 465 l 150 397 l 32 244 l 28 194 l 103 115 l 149 79 l 143 58 l 188 -12 l 243 -24 l 264 6 l 263 6 l 358 106 l 433 181 l 424 203 l 393 228 l 372 225 l 353 164 l 318 111 l 319 111 l 292 85 l 292 86 l 265 65 b 257 61 264 65 260 63 l 231 68 l 231 67 l 189 106 l 190 106 l 92 242 l 119 294 l 142 332 l 140 332 l 188 375 b 232 439 203 396 218 419 l 256 464 l 251 536 b 258 656 253 576 257 615 l 264 711 l 190 729 l 174 693 l 186 654 b 204 617 190 643 199 628 l 189 601 l 197 479 z m 147 975 l 171 951 l 174 951 l 185 931 l 201 908 l 214 906 l 242 940 l 240 940 l 272 974 l 276 989 l 242 1021 b 232 1024 240 1021 233 1024 l 229 1028 l 231 1026 l 232 1036 l 221 1050 l 207 1056 l 178 1015 l 179 1015 l 150 988 l 147 975 z "},"":{"ha":576,"x_min":0,"x_max":0,"o":"m 422 271 l 426 233 l 431 221 l 438 171 l 454 151 l 440 139 l 458 -4 l 478 -11 l 486 -11 l 533 11 l 510 81 l 497 175 l 460 314 l 460 339 l 379 693 l 375 706 l 372 717 l 378 740 l 332 954 l 326 974 l 319 993 l 324 1025 l 249 1029 l 235 953 l 225 892 l 217 833 l 225 825 l 207 785 l 167 582 l 165 565 l 165 549 l 158 519 l 153 490 l 119 307 l 119 279 l 121 275 l 103 253 l 89 168 l 53 17 l 76 -6 l 131 -10 l 139 50 l 139 103 l 140 111 l 161 236 l 160 242 l 179 249 l 186 251 l 221 263 l 310 289 l 347 313 l 361 314 l 386 318 l 406 321 l 422 271 z m 228 622 l 224 639 l 238 661 l 285 882 l 286 907 l 293 879 l 344 643 l 356 567 l 392 390 l 399 379 l 400 379 l 383 371 l 365 363 l 325 350 l 231 319 l 229 314 l 228 310 l 197 308 l 190 307 l 172 307 l 176 349 l 179 363 l 182 376 l 199 472 l 228 622 z m 264 1111 l 288 1085 l 296 1076 l 333 1086 l 335 1096 l 300 1135 l 242 1218 l 232 1226 l 179 1208 l 174 1197 l 203 1165 l 264 1111 z "},"":{"ha":576,"x_min":0,"x_max":0,"o":"m 422 271 l 426 233 l 431 221 l 438 171 l 454 151 l 440 139 l 458 -4 l 478 -11 l 486 -11 l 533 11 l 510 81 l 497 175 l 460 314 l 460 339 l 379 693 l 375 706 l 372 717 l 378 740 l 332 954 l 326 974 l 319 993 l 324 1025 l 249 1029 l 235 953 l 225 892 l 217 833 l 225 825 l 207 785 l 167 582 l 165 565 l 165 549 l 158 519 l 153 490 l 119 307 l 119 279 l 121 275 l 103 253 l 89 168 l 53 17 l 76 -6 l 131 -10 l 139 50 l 139 103 l 140 111 l 161 236 l 160 242 l 179 249 l 186 251 l 221 263 l 310 289 l 347 313 l 361 314 l 386 318 l 406 321 l 422 271 z m 228 622 l 224 639 l 238 661 l 285 882 l 286 907 l 293 879 l 344 643 l 356 567 l 392 390 l 399 379 l 400 379 l 383 371 l 365 363 l 325 350 l 231 319 l 229 314 l 228 310 l 197 308 l 190 307 l 172 307 l 176 349 l 179 363 l 182 376 l 199 472 l 228 622 z m 365 1165 l 394 1197 l 389 1208 l 336 1226 l 326 1218 l 268 1135 l 233 1094 l 233 1085 l 274 1075 l 283 1083 l 306 1111 l 365 1165 z "},"":{"ha":576,"x_min":0,"x_max":0,"o":"m 422 271 l 426 233 l 431 221 l 438 171 l 454 151 l 440 139 l 458 -4 l 478 -11 l 486 -11 l 533 11 l 510 81 l 497 175 l 460 314 l 460 339 l 379 693 l 375 706 l 372 717 l 378 740 l 332 954 l 326 974 l 319 993 l 324 1025 l 249 1029 l 235 953 l 225 892 l 217 833 l 225 825 l 207 785 l 167 582 l 165 565 l 165 549 l 158 519 l 153 490 l 119 307 l 119 279 l 121 275 l 103 253 l 89 168 l 53 17 l 76 -6 l 131 -10 l 139 50 l 139 103 l 140 111 l 161 236 l 160 242 l 179 249 l 186 251 l 221 263 l 310 289 l 347 313 l 361 314 l 386 318 l 406 321 l 422 271 z m 228 622 l 224 639 l 238 661 l 285 882 l 286 907 l 293 879 l 344 643 l 356 567 l 392 390 l 399 379 l 400 379 l 383 371 l 365 363 l 325 350 l 231 319 l 229 314 l 228 310 l 197 308 l 190 307 l 172 307 l 176 349 l 179 363 l 182 376 l 199 472 l 228 622 z m 404 1082 l 418 1100 l 415 1114 l 381 1140 l 344 1179 l 311 1215 l 283 1218 l 254 1190 l 160 1101 l 169 1081 l 211 1075 l 226 1107 l 260 1150 l 278 1164 l 296 1154 l 342 1100 l 365 1068 l 404 1082 z "},"":{"ha":576,"x_min":0,"x_max":0,"o":"m 422 271 l 426 233 l 431 221 l 438 171 l 454 151 l 440 139 l 458 -4 l 478 -11 l 486 -11 l 533 11 l 510 81 l 497 175 l 460 314 l 460 339 l 379 693 l 375 706 l 372 717 l 378 740 l 332 954 l 326 974 l 319 993 l 324 1025 l 249 1029 l 235 953 l 225 892 l 217 833 l 225 825 l 207 785 l 167 582 l 165 565 l 165 549 l 158 519 l 153 490 l 119 307 l 119 279 l 121 275 l 103 253 l 89 168 l 53 17 l 76 -6 l 131 -10 l 139 50 l 139 103 l 140 111 l 161 236 l 160 242 l 179 249 l 186 251 l 221 263 l 310 289 l 347 313 l 361 314 l 386 318 l 406 321 l 422 271 z m 228 622 l 224 639 l 238 661 l 285 882 l 286 907 l 293 879 l 344 643 l 356 567 l 392 390 l 399 379 l 400 379 l 383 371 l 365 363 l 325 350 l 231 319 l 229 314 l 228 310 l 197 308 l 190 307 l 172 307 l 176 349 l 179 363 l 182 376 l 199 472 l 228 622 z m 378 1089 l 454 1190 l 443 1204 l 406 1206 l 401 1186 l 374 1151 l 351 1149 l 263 1211 l 225 1213 l 199 1188 l 135 1117 l 144 1099 l 183 1099 l 190 1128 l 214 1157 l 240 1153 l 343 1083 l 378 1089 z "},"":{"ha":576,"x_min":0,"x_max":0,"o":"m 422 271 l 426 233 l 431 221 l 438 171 l 454 151 l 440 139 l 458 -4 l 478 -11 l 486 -11 l 533 11 l 510 81 l 497 175 l 460 314 l 460 339 l 379 693 l 375 706 l 372 717 l 378 740 l 332 954 l 326 974 l 319 993 l 324 1025 l 249 1029 l 235 953 l 225 892 l 217 833 l 225 825 l 207 785 l 167 582 l 165 565 l 165 549 l 158 519 l 153 490 l 119 307 l 119 279 l 121 275 l 103 253 l 89 168 l 53 17 l 76 -6 l 131 -10 l 139 50 l 139 103 l 140 111 l 161 236 l 160 242 l 179 249 l 186 251 l 221 263 l 310 289 l 347 313 l 361 314 l 386 318 l 406 321 l 422 271 z m 228 622 l 224 639 l 238 661 l 285 882 l 286 907 l 293 879 l 344 643 l 356 567 l 392 390 l 399 379 l 400 379 l 383 371 l 365 363 l 325 350 l 231 319 l 229 314 l 228 310 l 197 308 l 190 307 l 172 307 l 176 349 l 179 363 l 182 376 l 199 472 l 228 622 z m 258 1150 l 224 1189 l 211 1190 l 164 1149 l 161 1132 l 185 1111 l 204 1092 l 219 1086 l 239 1111 l 265 1138 l 258 1150 z m 314 1128 l 349 1089 l 361 1086 l 408 1129 l 411 1147 l 390 1165 l 369 1186 l 351 1190 l 335 1165 l 308 1139 l 314 1128 z "},"":{"ha":576,"x_min":0,"x_max":0,"o":"m 163 1104 l 165 1076 l 229 1013 l 244 994 l 235 953 l 225 892 l 217 833 l 225 825 l 207 785 l 167 582 l 165 565 l 165 549 l 158 519 l 153 490 l 119 307 l 119 279 l 121 275 l 103 253 l 89 168 l 53 17 l 76 -6 l 131 -10 l 139 50 l 139 103 l 161 236 l 160 242 l 179 249 l 186 251 l 221 263 l 310 289 l 347 313 l 361 314 l 386 318 l 406 321 l 422 271 l 426 233 l 431 221 l 438 171 l 454 151 l 440 139 l 458 -4 l 478 -11 l 486 -11 l 533 11 l 510 81 l 497 175 l 460 314 l 460 339 l 379 693 l 375 706 l 372 717 l 378 740 l 332 954 l 326 974 l 319 993 l 342 1024 l 340 1035 l 353 1035 l 407 1081 l 406 1104 l 358 1150 l 340 1164 l 339 1174 l 294 1222 l 272 1222 l 253 1194 l 235 1175 l 222 1158 l 163 1104 z m 228 622 l 224 639 l 238 661 l 285 882 l 286 907 l 293 879 l 344 643 l 356 567 l 392 390 l 399 379 l 400 379 l 383 371 l 365 363 l 325 350 l 231 319 l 229 314 l 228 310 l 197 308 l 190 307 l 172 307 l 176 349 l 182 376 l 199 472 l 228 622 z m 244 1133 l 279 1168 l 288 1168 l 326 1126 l 356 1094 l 356 1089 l 313 1042 l 283 1014 l 253 1049 l 235 1056 l 239 1063 l 211 1088 l 208 1096 l 240 1124 l 244 1133 z "},"":{"ha":758,"x_min":0,"x_max":0,"o":"m 697 950 l 701 997 l 700 1022 l 607 1021 l 529 1017 l 506 1021 l 429 1021 l 394 1017 l 361 1018 l 333 939 l 317 879 l 301 822 l 308 814 l 283 776 l 213 579 l 208 563 l 207 546 l 196 518 l 186 490 l 129 313 l 126 285 l 126 281 l 107 261 l 82 178 l 15 15 l 39 0 l 92 -11 l 108 38 l 114 89 l 125 115 l 165 236 l 164 242 l 185 247 l 192 249 l 231 254 l 399 283 l 401 285 l 403 233 l 397 201 l 394 139 l 392 79 l 386 26 l 392 0 l 460 -1 l 471 6 l 539 6 l 626 -3 l 707 -4 l 717 6 l 722 65 l 692 69 l 654 63 l 532 53 l 510 53 l 465 63 l 464 78 l 461 226 l 454 233 l 463 261 l 453 303 l 463 493 l 493 492 l 625 485 l 663 482 l 667 510 l 674 540 l 663 551 l 624 550 l 554 542 l 457 543 l 451 639 l 450 719 l 460 736 l 463 874 l 465 913 l 464 939 l 460 951 l 457 964 l 488 969 l 504 968 l 521 968 l 607 960 l 629 963 l 671 950 l 697 950 z m 244 304 l 243 300 l 210 304 l 203 303 l 185 306 l 194 346 l 203 374 l 229 465 l 283 611 l 282 628 l 297 647 l 399 914 l 400 824 l 399 708 l 399 594 l 394 540 l 404 399 l 410 394 l 400 374 l 400 339 l 247 310 l 244 304 z "},"":{"ha":467,"x_min":0,"x_max":0,"o":"m 79 424 l 136 329 l 194 258 l 200 229 l 308 69 l 322 61 l 332 21 l 285 -24 l 283 -65 l 314 -78 l 349 -96 l 364 -122 l 353 -139 l 321 -168 l 282 -190 l 299 -229 l 317 -242 l 331 -239 l 357 -200 l 374 -179 l 414 -147 l 421 -118 l 389 -86 l 324 -33 l 363 -10 l 363 -8 l 379 0 l 421 36 l 399 71 l 353 126 l 324 165 l 242 293 l 197 360 l 182 363 l 164 417 l 133 458 l 119 483 l 104 513 l 139 569 l 165 622 l 214 707 l 338 871 l 353 907 l 396 956 l 424 1000 l 368 1036 l 351 1015 l 343 990 l 329 988 l 258 865 l 263 846 l 243 836 l 150 694 l 43 544 l 47 467 l 79 424 z "},"":{"ha":478,"x_min":0,"x_max":0,"o":"m 414 951 l 418 997 l 417 1022 l 324 1021 l 246 1017 l 222 1021 l 146 1021 l 111 1017 l 115 944 l 122 940 l 115 913 l 117 824 l 115 708 l 115 594 l 111 540 l 121 399 l 126 394 l 117 374 l 118 301 l 119 233 l 114 201 l 111 139 l 108 79 l 103 26 l 108 0 l 176 -1 l 188 6 l 256 6 l 343 -3 l 424 -4 l 433 6 l 439 65 l 408 69 l 371 63 l 249 53 l 226 53 l 182 63 l 181 78 l 178 226 l 171 233 l 179 261 l 169 303 l 179 493 l 210 492 l 342 485 l 379 482 l 383 510 l 390 540 l 379 551 l 340 550 l 271 542 l 174 543 l 168 639 l 167 719 l 176 736 l 179 874 l 182 913 l 181 938 l 176 950 l 174 963 l 204 968 l 221 967 l 238 967 l 324 960 l 346 963 l 388 951 l 414 951 z m 256 1111 l 279 1085 l 288 1076 l 325 1086 l 326 1096 l 292 1135 l 233 1218 l 224 1226 l 171 1208 l 165 1197 l 194 1165 l 256 1111 z "},"":{"ha":478,"x_min":0,"x_max":0,"o":"m 414 951 l 418 997 l 417 1022 l 324 1021 l 246 1017 l 222 1021 l 146 1021 l 111 1017 l 115 944 l 122 940 l 115 913 l 117 824 l 115 708 l 115 594 l 111 540 l 121 399 l 126 394 l 117 374 l 118 301 l 119 233 l 114 201 l 111 139 l 108 79 l 103 26 l 108 0 l 176 -1 l 188 6 l 256 6 l 343 -3 l 424 -4 l 433 6 l 439 65 l 408 69 l 371 63 l 249 53 l 226 53 l 182 63 l 181 78 l 178 226 l 171 233 l 179 261 l 169 303 l 179 493 l 210 492 l 342 485 l 379 482 l 383 510 l 390 540 l 379 551 l 340 550 l 271 542 l 174 543 l 168 639 l 167 719 l 176 736 l 179 874 l 182 913 l 181 938 l 176 950 l 174 963 l 204 968 l 221 967 l 238 967 l 324 960 l 346 963 l 388 951 l 414 951 z m 357 1165 l 386 1197 l 381 1208 l 328 1226 l 318 1218 l 260 1135 l 225 1094 l 225 1085 l 265 1075 l 275 1083 l 297 1111 l 357 1165 z "},"":{"ha":478,"x_min":0,"x_max":0,"o":"m 414 951 l 418 997 l 417 1022 l 324 1021 l 246 1017 l 222 1021 l 146 1021 l 111 1017 l 115 944 l 122 940 l 115 913 l 117 824 l 115 708 l 115 594 l 111 540 l 121 399 l 126 394 l 117 374 l 118 301 l 119 233 l 114 201 l 111 139 l 108 79 l 103 26 l 108 0 l 176 -1 l 188 6 l 256 6 l 343 -3 l 424 -4 l 433 6 l 439 65 l 408 69 l 371 63 l 249 53 l 226 53 l 182 63 l 181 78 l 178 226 l 171 233 l 179 261 l 169 303 l 179 493 l 210 492 l 342 485 l 379 482 l 383 510 l 390 540 l 379 551 l 340 550 l 271 542 l 174 543 l 168 639 l 167 719 l 176 736 l 179 874 l 182 913 l 181 938 l 176 950 l 174 963 l 204 968 l 221 967 l 238 967 l 324 960 l 346 963 l 388 951 l 414 951 z m 396 1082 l 410 1100 l 407 1114 l 372 1140 l 336 1179 l 303 1215 l 275 1218 l 246 1190 l 151 1101 l 161 1081 l 203 1075 l 218 1107 l 251 1150 l 269 1164 l 288 1154 l 333 1100 l 357 1068 l 396 1082 z "},"":{"ha":478,"x_min":0,"x_max":0,"o":"m 414 951 l 418 997 l 417 1022 l 324 1021 l 246 1017 l 222 1021 l 146 1021 l 111 1017 l 115 944 l 122 940 l 115 913 l 117 824 l 115 708 l 115 594 l 111 540 l 121 399 l 126 394 l 117 374 l 118 301 l 119 233 l 114 201 l 111 139 l 108 79 l 103 26 l 108 0 l 176 -1 l 188 6 l 256 6 l 343 -3 l 424 -4 l 433 6 l 439 65 l 408 69 l 371 63 l 249 53 l 226 53 l 182 63 l 181 78 l 178 226 l 171 233 l 179 261 l 169 303 l 179 493 l 210 492 l 342 485 l 379 482 l 383 510 l 390 540 l 379 551 l 340 550 l 271 542 l 174 543 l 168 639 l 167 719 l 176 736 l 179 874 l 182 913 l 181 938 l 176 950 l 174 963 l 204 968 l 221 967 l 238 967 l 324 960 l 346 963 l 388 951 l 414 951 z m 250 1150 l 215 1189 l 203 1190 l 156 1149 l 153 1132 l 176 1111 l 196 1092 l 211 1086 l 231 1111 l 257 1138 l 250 1150 z m 306 1128 l 340 1089 l 353 1086 l 400 1129 l 403 1147 l 382 1165 l 361 1186 l 343 1190 l 326 1165 l 300 1139 l 306 1128 z "},"":{"ha":301,"x_min":0,"x_max":0,"o":"m 132 610 l 126 525 l 122 478 l 122 89 l 110 0 l 132 -1 l 158 -3 l 189 6 l 192 29 l 186 57 l 183 86 l 183 499 l 182 506 l 181 532 l 178 572 l 172 640 l 176 715 l 181 910 l 188 950 l 192 1021 l 136 1032 l 111 1025 l 115 986 l 121 654 l 132 610 z m 131 1118 l 154 1092 l 163 1083 l 200 1093 l 201 1103 l 167 1142 l 108 1225 l 99 1233 l 46 1215 l 40 1204 l 69 1172 l 131 1118 z "},"":{"ha":301,"x_min":0,"x_max":0,"o":"m 132 610 l 126 525 l 122 478 l 122 89 l 110 0 l 132 -1 l 158 -3 l 189 6 l 192 29 l 186 57 l 183 86 l 183 499 l 182 506 l 181 532 l 178 572 l 172 640 l 176 715 l 181 910 l 188 950 l 192 1021 l 136 1032 l 111 1025 l 115 986 l 121 654 l 132 610 z m 232 1172 l 261 1204 l 256 1215 l 203 1233 l 193 1225 l 135 1142 l 100 1101 l 100 1092 l 140 1082 l 150 1090 l 172 1118 l 232 1172 z "},"":{"ha":301,"x_min":0,"x_max":0,"o":"m 132 610 l 126 525 l 122 478 l 122 89 l 110 0 l 132 -1 l 158 -3 l 189 6 l 192 29 l 186 57 l 183 86 l 183 499 l 182 506 l 181 532 l 178 572 l 172 640 l 176 715 l 181 910 l 188 950 l 192 1021 l 136 1032 l 111 1025 l 115 986 l 121 654 l 132 610 z m 271 1082 l 285 1100 l 282 1114 l 247 1140 l 211 1179 l 178 1215 l 150 1218 l 121 1190 l 26 1101 l 36 1081 l 78 1075 l 93 1107 l 126 1150 l 144 1164 l 163 1154 l 208 1100 l 232 1068 l 271 1082 z "},"":{"ha":301,"x_min":0,"x_max":0,"o":"m 132 610 l 126 525 l 122 478 l 122 89 l 110 0 l 132 -1 l 158 -3 l 189 6 l 192 29 l 186 57 l 183 86 l 183 499 l 182 506 l 181 532 l 178 572 l 172 640 l 176 715 l 181 910 l 188 950 l 192 1021 l 136 1032 l 111 1025 l 115 986 l 121 654 l 132 610 z m 125 1150 l 90 1189 l 78 1190 l 31 1149 l 28 1132 l 51 1111 l 71 1092 l 86 1086 l 106 1111 l 132 1138 l 125 1150 z m 181 1128 l 215 1089 l 228 1086 l 275 1129 l 278 1147 l 257 1165 l 236 1186 l 218 1190 l 201 1165 l 175 1139 l 181 1128 z "},"":{"ha":539,"x_min":0,"x_max":0,"o":"m 285 125 l 335 221 l 417 346 l 413 353 l 410 361 l 408 361 l 431 372 l 494 461 l 514 494 l 514 567 l 496 583 l 368 757 l 317 811 l 313 839 l 274 894 l 256 915 l 251 919 l 239 944 l 194 1000 l 165 1039 l 144 1029 l 103 1017 l 104 986 l 107 910 l 117 890 l 113 853 l 117 538 l 61 542 l 26 544 l 24 542 l 24 522 l 21 508 l 18 486 l 33 483 b 65 488 53 485 46 486 l 117 489 l 118 464 l 124 407 l 118 69 l 113 -3 l 171 -6 l 189 -12 l 285 125 z m 176 671 l 175 792 l 169 888 l 168 914 l 167 933 l 258 808 l 339 697 l 386 643 l 424 582 l 435 564 l 450 542 l 461 518 l 436 465 l 381 385 l 304 256 l 283 231 l 250 176 l 228 149 l 182 81 l 179 79 l 176 96 l 171 165 l 169 210 l 168 239 l 178 490 l 188 490 l 263 486 l 281 493 l 282 543 l 281 546 l 240 540 l 176 538 l 171 579 l 164 638 l 176 671 z "},"":{"ha":651,"x_min":0,"x_max":0,"o":"m 532 88 l 535 140 l 522 467 l 518 579 l 535 949 l 538 1015 l 510 1021 l 461 1019 l 463 938 l 474 919 l 475 919 l 461 915 l 464 869 l 465 767 l 469 661 l 464 653 l 460 653 l 354 797 l 342 806 l 304 871 l 182 1035 l 117 1017 l 117 969 l 124 904 l 126 814 l 131 722 l 126 419 l 135 397 l 140 388 l 128 335 l 124 239 l 118 126 l 118 96 l 119 79 l 113 -1 l 147 -7 l 192 -4 l 194 51 l 192 74 l 192 232 l 186 285 l 181 339 l 183 674 l 174 696 l 172 700 l 185 788 l 185 914 l 186 922 l 190 925 l 213 904 l 247 860 l 260 844 l 293 803 l 351 721 l 396 663 l 417 625 l 435 586 l 468 518 l 469 397 l 476 364 l 483 332 l 471 329 l 467 218 l 471 138 l 471 76 l 467 -4 l 481 -7 l 535 -6 l 542 8 l 532 88 z m 422 1089 l 499 1190 l 488 1204 l 450 1206 l 446 1186 l 418 1151 l 396 1149 l 307 1211 l 269 1213 l 243 1188 l 179 1117 l 189 1099 l 228 1099 l 235 1128 l 258 1157 l 285 1153 l 388 1083 l 422 1089 z "},"":{"ha":588,"x_min":0,"x_max":0,"o":"m 332 1029 l 282 1025 l 267 1022 l 258 997 l 251 983 l 164 783 l 163 779 l 163 772 l 161 760 l 142 740 l 57 546 l 44 532 l 53 483 l 89 403 l 115 340 l 143 279 l 174 208 l 194 208 l 200 153 l 258 22 l 261 -6 l 319 -14 l 331 -1 l 346 39 l 425 233 l 479 343 l 547 486 l 551 547 l 496 647 l 469 715 l 460 715 l 450 728 l 436 779 l 354 965 l 332 1029 z m 310 89 l 311 89 l 300 82 l 297 81 l 261 174 l 211 282 l 169 369 l 135 460 l 133 464 l 117 506 l 111 518 l 108 524 l 110 535 l 110 542 l 111 547 l 163 669 l 167 708 l 165 708 l 183 721 l 271 886 l 292 932 l 293 942 l 294 944 l 303 938 l 346 846 l 354 844 l 360 844 l 351 826 l 442 618 l 456 593 l 461 579 l 472 569 l 481 529 l 486 513 l 421 325 l 411 289 l 389 271 l 310 89 z m 281 1111 l 304 1085 l 313 1076 l 350 1086 l 351 1096 l 317 1135 l 258 1218 l 249 1226 l 196 1208 l 190 1197 l 219 1165 l 281 1111 z "},"":{"ha":588,"x_min":0,"x_max":0,"o":"m 332 1029 l 282 1025 l 267 1022 l 258 997 l 251 983 l 164 783 l 163 779 l 163 772 l 161 760 l 142 740 l 57 546 l 44 532 l 53 483 l 89 403 l 115 340 l 143 279 l 174 208 l 194 208 l 200 153 l 258 22 l 261 -6 l 319 -14 l 331 -1 l 346 39 l 425 233 l 479 343 l 547 486 l 551 547 l 496 647 l 469 715 l 460 715 l 450 728 l 436 779 l 354 965 l 332 1029 z m 310 89 l 311 89 l 300 82 l 297 81 l 261 174 l 211 282 l 169 369 l 135 460 l 133 464 l 117 506 l 111 518 l 108 524 l 110 535 l 110 542 l 111 547 l 163 669 l 167 708 l 165 708 l 183 721 l 271 886 l 292 932 l 293 942 l 294 944 l 303 938 l 346 846 l 354 844 l 360 844 l 351 826 l 442 618 l 456 593 l 461 579 l 472 569 l 481 529 l 486 513 l 421 325 l 411 289 l 389 271 l 310 89 z m 382 1165 l 411 1197 l 406 1208 l 353 1226 l 343 1218 l 285 1135 l 250 1094 l 250 1085 l 290 1075 l 300 1083 l 322 1111 l 382 1165 z "},"":{"ha":588,"x_min":0,"x_max":0,"o":"m 332 1029 l 282 1025 l 267 1022 l 258 997 l 251 983 l 164 783 l 163 779 l 163 772 l 161 760 l 142 740 l 57 546 l 44 532 l 53 483 l 89 403 l 115 340 l 143 279 l 174 208 l 194 208 l 200 153 l 258 22 l 261 -6 l 319 -14 l 331 -1 l 346 39 l 425 233 l 479 343 l 547 486 l 551 547 l 496 647 l 469 715 l 460 715 l 450 728 l 436 779 l 354 965 l 332 1029 z m 310 89 l 311 89 l 300 82 l 297 81 l 261 174 l 211 282 l 169 369 l 135 460 l 133 464 l 117 506 l 111 518 l 108 524 l 110 535 l 110 542 l 111 547 l 163 669 l 167 708 l 165 708 l 183 721 l 271 886 l 292 932 l 293 942 l 294 944 l 303 938 l 346 846 l 354 844 l 360 844 l 351 826 l 442 618 l 456 593 l 461 579 l 472 569 l 481 529 l 486 513 l 421 325 l 411 289 l 389 271 l 310 89 z m 421 1082 l 435 1100 l 432 1114 l 397 1140 l 361 1179 l 328 1215 l 300 1218 l 271 1190 l 176 1101 l 186 1081 l 228 1075 l 243 1107 l 276 1150 l 294 1164 l 313 1154 l 358 1100 l 382 1068 l 421 1082 z "},"":{"ha":588,"x_min":0,"x_max":0,"o":"m 332 1029 l 282 1025 l 267 1022 l 258 997 l 251 983 l 164 783 l 163 779 l 163 772 l 161 760 l 142 740 l 57 546 l 44 532 l 53 483 l 89 403 l 115 340 l 143 279 l 174 208 l 194 208 l 200 153 l 258 22 l 261 -6 l 319 -14 l 331 -1 l 346 39 l 425 233 l 479 343 l 547 486 l 551 547 l 496 647 l 469 715 l 460 715 l 450 728 l 436 779 l 354 965 l 332 1029 z m 310 89 l 311 89 l 300 82 l 297 81 l 261 174 l 211 282 l 169 369 l 135 460 l 133 464 l 117 506 l 111 518 l 108 524 l 110 535 l 110 542 l 111 547 l 163 669 l 167 708 l 165 708 l 183 721 l 271 886 l 292 932 l 293 942 l 294 944 l 303 938 l 346 846 l 354 844 l 360 844 l 351 826 l 442 618 l 456 593 l 461 579 l 472 569 l 481 529 l 486 513 l 421 325 l 411 289 l 389 271 l 310 89 z m 394 1089 l 471 1190 l 460 1204 l 422 1206 l 418 1186 l 390 1151 l 368 1149 l 279 1211 l 242 1213 l 215 1188 l 151 1117 l 161 1099 l 200 1099 l 207 1128 l 231 1157 l 257 1153 l 360 1083 l 394 1089 z "},"":{"ha":588,"x_min":0,"x_max":0,"o":"m 332 1029 l 282 1025 l 267 1022 l 258 997 l 251 983 l 164 783 l 163 779 l 163 772 l 161 760 l 142 740 l 57 546 l 44 532 l 53 483 l 89 403 l 115 340 l 143 279 l 174 208 l 194 208 l 200 153 l 258 22 l 261 -6 l 319 -14 l 331 -1 l 346 39 l 425 233 l 479 343 l 547 486 l 551 547 l 496 647 l 469 715 l 460 715 l 450 728 l 436 779 l 354 965 l 332 1029 z m 310 89 l 311 89 l 300 82 l 297 81 l 261 174 l 211 282 l 169 369 l 135 460 l 133 464 l 117 506 l 111 518 l 108 524 l 110 535 l 110 542 l 111 547 l 163 669 l 167 708 l 165 708 l 183 721 l 271 886 l 292 932 l 293 942 l 294 944 l 303 938 l 346 846 l 354 844 l 360 844 l 351 826 l 442 618 l 456 593 l 461 579 l 472 569 l 481 529 l 486 513 l 421 325 l 411 289 l 389 271 l 310 89 z m 275 1150 l 240 1189 l 228 1190 l 181 1149 l 178 1132 l 201 1111 l 221 1092 l 236 1086 l 256 1111 l 282 1138 l 275 1150 z m 331 1128 l 365 1089 l 378 1086 l 425 1129 l 428 1147 l 407 1165 l 386 1186 l 368 1190 l 351 1165 l 325 1139 l 331 1128 z "},"":{"ha":514,"x_min":0,"x_max":0,"o":"m 165 443 l 125 401 l 86 368 l 86 369 l 64 350 l 35 326 l 40 301 l 57 289 l 83 268 l 100 282 l 114 303 l 129 335 l 251 476 l 379 343 l 399 321 l 397 321 l 417 281 l 429 272 l 447 288 l 472 315 l 479 328 l 449 354 l 414 379 l 414 378 l 282 513 l 283 514 l 342 565 l 393 624 l 393 622 l 463 678 l 465 701 l 425 740 l 403 735 l 390 697 l 392 697 l 354 654 l 256 544 b 176 638 229 575 201 607 l 135 690 l 85 742 l 46 708 l 43 679 l 83 653 l 83 654 l 132 608 l 169 576 l 168 576 l 222 508 l 165 443 z "},"":{"ha":622,"x_min":0,"x_max":0,"o":"m 349 1029 l 299 1025 l 283 1022 l 275 997 l 268 983 l 181 783 l 179 779 l 179 772 l 178 760 l 158 740 l 74 546 l 61 532 l 69 483 l 106 403 l 132 340 l 154 289 l 150 281 l 147 254 l 119 221 l 90 157 l 71 132 l 115 94 l 128 99 l 150 156 l 150 172 l 181 231 l 190 208 l 211 208 l 217 153 l 275 22 l 278 -6 l 336 -14 l 347 -1 l 363 39 l 442 233 l 496 343 l 564 486 l 568 547 l 513 647 l 486 715 l 476 715 l 467 728 l 460 751 l 521 857 l 539 888 l 539 900 l 496 933 l 475 897 l 449 843 l 451 824 l 439 810 l 371 965 l 349 1029 z m 379 610 l 426 692 l 458 618 l 471 593 l 476 579 l 483 569 l 497 529 l 503 513 l 438 325 l 428 289 l 406 271 l 326 89 l 328 89 l 317 82 l 314 81 l 278 174 l 228 282 l 217 304 l 325 525 l 379 610 z m 360 674 l 303 551 l 282 528 l 192 358 l 186 369 l 151 460 l 150 464 l 133 506 l 128 518 l 125 524 l 126 535 l 126 542 l 128 547 l 179 669 l 183 708 l 182 708 l 200 721 l 288 886 l 308 932 l 310 942 l 311 944 l 319 938 l 363 846 l 371 844 l 376 844 l 368 826 l 401 749 l 396 735 l 360 674 z "},"":{"ha":643,"x_min":0,"x_max":0,"o":"m 131 219 l 122 106 l 124 49 l 186 -6 l 251 -7 l 288 14 l 444 86 l 461 69 l 468 29 l 475 -8 l 540 3 l 526 85 l 518 260 l 522 588 l 513 618 l 514 657 l 514 688 l 518 783 l 528 876 l 521 890 l 515 904 l 531 918 l 535 982 l 529 1018 l 499 1019 l 458 1018 l 456 951 l 461 785 l 471 779 l 469 779 l 474 778 l 463 758 l 460 640 l 465 549 l 471 457 l 467 263 l 458 156 l 422 135 l 424 135 l 375 107 l 368 103 l 369 103 l 307 81 l 269 65 l 250 58 l 226 63 l 189 93 l 183 131 l 172 310 l 185 489 l 181 600 l 179 615 l 178 708 l 189 768 l 189 792 l 188 807 l 188 879 l 193 926 l 194 1018 l 125 1021 l 118 1000 l 125 772 l 133 719 l 122 682 l 121 581 l 129 419 l 131 219 z m 307 1111 l 331 1085 l 339 1076 l 376 1086 l 378 1096 l 343 1135 l 285 1218 l 275 1226 l 222 1208 l 217 1197 l 246 1165 l 307 1111 z "},"":{"ha":643,"x_min":0,"x_max":0,"o":"m 131 219 l 122 106 l 124 49 l 186 -6 l 251 -7 l 288 14 l 444 86 l 461 69 l 468 29 l 475 -8 l 540 3 l 526 85 l 518 260 l 522 588 l 513 618 l 514 657 l 514 688 l 518 783 l 528 876 l 521 890 l 515 904 l 531 918 l 535 982 l 529 1018 l 499 1019 l 458 1018 l 456 951 l 461 785 l 471 779 l 469 779 l 474 778 l 463 758 l 460 640 l 465 549 l 471 457 l 467 263 l 458 156 l 422 135 l 424 135 l 375 107 l 368 103 l 369 103 l 307 81 l 269 65 l 250 58 l 226 63 l 189 93 l 183 131 l 172 310 l 185 489 l 181 600 l 179 615 l 178 708 l 189 768 l 189 792 l 188 807 l 188 879 l 193 926 l 194 1018 l 125 1021 l 118 1000 l 125 772 l 133 719 l 122 682 l 121 581 l 129 419 l 131 219 z m 408 1165 l 438 1197 l 432 1208 l 379 1226 l 369 1218 l 311 1135 l 276 1094 l 276 1085 l 317 1075 l 326 1083 l 349 1111 l 408 1165 z "},"":{"ha":643,"x_min":0,"x_max":0,"o":"m 131 219 l 122 106 l 124 49 l 186 -6 l 251 -7 l 288 14 l 444 86 l 461 69 l 468 29 l 475 -8 l 540 3 l 526 85 l 518 260 l 522 588 l 513 618 l 514 657 l 514 688 l 518 783 l 528 876 l 521 890 l 515 904 l 531 918 l 535 982 l 529 1018 l 499 1019 l 458 1018 l 456 951 l 461 785 l 471 779 l 469 779 l 474 778 l 463 758 l 460 640 l 465 549 l 471 457 l 467 263 l 458 156 l 422 135 l 424 135 l 375 107 l 368 103 l 369 103 l 307 81 l 269 65 l 250 58 l 226 63 l 189 93 l 183 131 l 172 310 l 185 489 l 181 600 l 179 615 l 178 708 l 189 768 l 189 792 l 188 807 l 188 879 l 193 926 l 194 1018 l 125 1021 l 118 1000 l 125 772 l 133 719 l 122 682 l 121 581 l 129 419 l 131 219 z m 447 1082 l 461 1100 l 458 1114 l 424 1140 l 388 1179 l 354 1215 l 326 1218 l 297 1190 l 203 1101 l 213 1081 l 254 1075 l 269 1107 l 303 1150 l 321 1164 l 339 1154 l 385 1100 l 408 1068 l 447 1082 z "},"":{"ha":643,"x_min":0,"x_max":0,"o":"m 131 219 l 122 106 l 124 49 l 186 -6 l 251 -7 l 288 14 l 444 86 l 461 69 l 468 29 l 475 -8 l 540 3 l 526 85 l 518 260 l 522 588 l 513 618 l 514 657 l 514 688 l 518 783 l 528 876 l 521 890 l 515 904 l 531 918 l 535 982 l 529 1018 l 499 1019 l 458 1018 l 456 951 l 461 785 l 471 779 l 469 779 l 474 778 l 463 758 l 460 640 l 465 549 l 471 457 l 467 263 l 458 156 l 422 135 l 424 135 l 375 107 l 368 103 l 369 103 l 307 81 l 269 65 l 250 58 l 226 63 l 189 93 l 183 131 l 172 310 l 185 489 l 181 600 l 179 615 l 178 708 l 189 768 l 189 792 l 188 807 l 188 879 l 193 926 l 194 1018 l 125 1021 l 118 1000 l 125 772 l 133 719 l 122 682 l 121 581 l 129 419 l 131 219 z m 301 1150 l 267 1189 l 254 1190 l 207 1149 l 204 1132 l 228 1111 l 247 1092 l 263 1086 l 282 1111 l 308 1138 l 301 1150 z m 357 1128 l 392 1089 l 404 1086 l 451 1129 l 454 1147 l 433 1165 l 413 1186 l 394 1190 l 378 1165 l 351 1139 l 357 1128 z "},"":{"ha":543,"x_min":0,"x_max":0,"o":"m 299 -4 l 311 6 l 307 44 l 303 83 l 304 143 l 299 172 l 304 285 l 304 322 l 303 339 l 301 393 l 301 479 l 350 597 l 407 750 l 435 833 l 451 868 l 468 904 l 485 928 l 515 1007 l 500 1018 l 479 1028 l 442 1032 l 436 1003 l 424 951 l 393 839 l 365 782 l 344 714 l 319 643 l 304 613 l 296 592 l 294 586 l 286 569 l 283 561 l 276 565 l 272 572 l 244 646 l 226 686 l 188 794 l 171 850 l 144 915 l 131 947 l 118 963 l 121 981 l 106 1029 l 76 1024 l 35 1013 l 31 990 l 89 890 l 93 865 l 142 754 l 185 646 l 200 611 l 235 522 l 236 511 l 240 482 l 246 442 l 243 371 l 249 174 l 251 160 l 247 142 l 233 40 l 231 -1 l 299 -4 z m 351 1165 l 381 1197 l 375 1208 l 322 1226 l 313 1218 l 254 1135 l 219 1094 l 219 1085 l 260 1075 l 269 1083 l 292 1111 l 351 1165 z "},"":{"ha":518,"x_min":0,"x_max":0,"o":"m 360 375 l 411 414 l 465 465 l 485 479 l 486 544 l 400 617 b 321 674 371 635 350 654 l 310 690 l 238 757 l 179 810 l 179 904 l 186 946 l 192 1014 l 140 1022 l 113 1015 l 118 982 l 125 688 l 131 454 l 144 450 l 128 421 l 126 250 l 126 121 l 108 -3 l 158 -7 l 190 -4 l 186 61 b 176 151 183 100 179 113 l 186 193 l 265 275 l 360 375 z m 181 342 l 175 554 l 183 700 l 188 718 l 349 582 l 378 550 l 422 511 l 415 496 l 358 432 l 253 322 b 193 281 233 310 213 294 b 181 286 193 281 185 283 l 182 332 l 181 342 z "},"":{"ha":603,"x_min":0,"x_max":0,"o":"m 358 -29 l 433 85 l 526 201 l 576 267 l 578 313 l 517 365 l 518 365 l 418 442 l 392 472 l 374 492 l 344 518 l 340 532 l 419 632 l 533 767 l 529 814 l 428 914 l 393 961 l 340 1028 l 282 1028 l 249 986 l 149 865 l 110 818 l 118 679 l 115 604 l 118 558 l 115 253 b 122 179 117 229 121 203 l 104 3 l 133 -8 l 182 -10 l 192 -1 l 188 86 l 189 181 l 169 233 l 182 244 l 178 424 b 171 585 176 476 172 531 l 178 733 b 171 783 176 751 172 765 b 174 796 171 788 174 792 l 244 888 b 306 971 261 913 288 944 l 365 896 l 397 860 l 464 783 l 460 765 l 460 767 l 379 672 b 378 635 379 660 378 647 l 361 626 l 281 536 l 279 490 l 321 461 l 321 463 l 476 314 l 507 279 l 493 250 l 401 128 l 403 128 l 318 53 l 304 33 l 289 15 l 358 -29 z "},"":{"ha":576,"x_min":0,"x_max":0,"o":"m 422 271 l 426 233 l 431 221 l 438 171 l 454 151 l 440 139 l 458 -4 l 478 -11 l 486 -11 l 533 11 l 510 81 l 497 175 l 460 314 l 460 339 l 379 693 l 375 706 l 372 717 l 378 740 l 332 954 l 326 974 l 319 993 l 324 1025 l 249 1029 l 235 953 l 225 892 l 217 833 l 225 825 l 207 785 l 167 582 l 165 565 l 165 549 l 158 519 l 153 490 l 119 307 l 119 279 l 121 275 l 103 253 l 89 168 l 53 17 l 76 -6 l 131 -10 l 139 50 l 139 103 l 140 111 l 161 236 l 160 242 l 179 249 l 186 251 l 221 263 l 310 289 l 347 313 l 361 314 l 386 318 l 406 321 l 422 271 z m 228 622 l 224 639 l 238 661 l 285 882 l 286 907 l 293 879 l 344 643 l 356 567 l 392 390 l 399 379 l 400 379 l 383 371 l 365 363 l 325 350 l 231 319 l 229 314 l 228 310 l 197 308 l 190 307 l 172 307 l 176 349 l 179 363 l 182 376 l 199 472 l 228 622 z m 264 1111 l 288 1085 l 296 1076 l 333 1086 l 335 1096 l 300 1135 l 242 1218 l 232 1226 l 179 1208 l 174 1197 l 203 1165 l 264 1111 z "},"":{"ha":576,"x_min":0,"x_max":0,"o":"m 422 271 l 426 233 l 431 221 l 438 171 l 454 151 l 440 139 l 458 -4 l 478 -11 l 486 -11 l 533 11 l 510 81 l 497 175 l 460 314 l 460 339 l 379 693 l 375 706 l 372 717 l 378 740 l 332 954 l 326 974 l 319 993 l 324 1025 l 249 1029 l 235 953 l 225 892 l 217 833 l 225 825 l 207 785 l 167 582 l 165 565 l 165 549 l 158 519 l 153 490 l 119 307 l 119 279 l 121 275 l 103 253 l 89 168 l 53 17 l 76 -6 l 131 -10 l 139 50 l 139 103 l 140 111 l 161 236 l 160 242 l 179 249 l 186 251 l 221 263 l 310 289 l 347 313 l 361 314 l 386 318 l 406 321 l 422 271 z m 228 622 l 224 639 l 238 661 l 285 882 l 286 907 l 293 879 l 344 643 l 356 567 l 392 390 l 399 379 l 400 379 l 383 371 l 365 363 l 325 350 l 231 319 l 229 314 l 228 310 l 197 308 l 190 307 l 172 307 l 176 349 l 179 363 l 182 376 l 199 472 l 228 622 z m 365 1165 l 394 1197 l 389 1208 l 336 1226 l 326 1218 l 268 1135 l 233 1094 l 233 1085 l 274 1075 l 283 1083 l 306 1111 l 365 1165 z "},"":{"ha":576,"x_min":0,"x_max":0,"o":"m 422 271 l 426 233 l 431 221 l 438 171 l 454 151 l 440 139 l 458 -4 l 478 -11 l 486 -11 l 533 11 l 510 81 l 497 175 l 460 314 l 460 339 l 379 693 l 375 706 l 372 717 l 378 740 l 332 954 l 326 974 l 319 993 l 324 1025 l 249 1029 l 235 953 l 225 892 l 217 833 l 225 825 l 207 785 l 167 582 l 165 565 l 165 549 l 158 519 l 153 490 l 119 307 l 119 279 l 121 275 l 103 253 l 89 168 l 53 17 l 76 -6 l 131 -10 l 139 50 l 139 103 l 140 111 l 161 236 l 160 242 l 179 249 l 186 251 l 221 263 l 310 289 l 347 313 l 361 314 l 386 318 l 406 321 l 422 271 z m 228 622 l 224 639 l 238 661 l 285 882 l 286 907 l 293 879 l 344 643 l 356 567 l 392 390 l 399 379 l 400 379 l 383 371 l 365 363 l 325 350 l 231 319 l 229 314 l 228 310 l 197 308 l 190 307 l 172 307 l 176 349 l 179 363 l 182 376 l 199 472 l 228 622 z m 404 1082 l 418 1100 l 415 1114 l 381 1140 l 344 1179 l 311 1215 l 283 1218 l 254 1190 l 160 1101 l 169 1081 l 211 1075 l 226 1107 l 260 1150 l 278 1164 l 296 1154 l 342 1100 l 365 1068 l 404 1082 z "},"":{"ha":576,"x_min":0,"x_max":0,"o":"m 422 271 l 426 233 l 431 221 l 438 171 l 454 151 l 440 139 l 458 -4 l 478 -11 l 486 -11 l 533 11 l 510 81 l 497 175 l 460 314 l 460 339 l 379 693 l 375 706 l 372 717 l 378 740 l 332 954 l 326 974 l 319 993 l 324 1025 l 249 1029 l 235 953 l 225 892 l 217 833 l 225 825 l 207 785 l 167 582 l 165 565 l 165 549 l 158 519 l 153 490 l 119 307 l 119 279 l 121 275 l 103 253 l 89 168 l 53 17 l 76 -6 l 131 -10 l 139 50 l 139 103 l 140 111 l 161 236 l 160 242 l 179 249 l 186 251 l 221 263 l 310 289 l 347 313 l 361 314 l 386 318 l 406 321 l 422 271 z m 228 622 l 224 639 l 238 661 l 285 882 l 286 907 l 293 879 l 344 643 l 356 567 l 392 390 l 399 379 l 400 379 l 383 371 l 365 363 l 325 350 l 231 319 l 229 314 l 228 310 l 197 308 l 190 307 l 172 307 l 176 349 l 179 363 l 182 376 l 199 472 l 228 622 z m 378 1089 l 454 1190 l 443 1204 l 406 1206 l 401 1186 l 374 1151 l 351 1149 l 263 1211 l 225 1213 l 199 1188 l 135 1117 l 144 1099 l 183 1099 l 190 1128 l 214 1157 l 240 1153 l 343 1083 l 378 1089 z "},"":{"ha":576,"x_min":0,"x_max":0,"o":"m 422 271 l 426 233 l 431 221 l 438 171 l 454 151 l 440 139 l 458 -4 l 478 -11 l 486 -11 l 533 11 l 510 81 l 497 175 l 460 314 l 460 339 l 379 693 l 375 706 l 372 717 l 378 740 l 332 954 l 326 974 l 319 993 l 324 1025 l 249 1029 l 235 953 l 225 892 l 217 833 l 225 825 l 207 785 l 167 582 l 165 565 l 165 549 l 158 519 l 153 490 l 119 307 l 119 279 l 121 275 l 103 253 l 89 168 l 53 17 l 76 -6 l 131 -10 l 139 50 l 139 103 l 140 111 l 161 236 l 160 242 l 179 249 l 186 251 l 221 263 l 310 289 l 347 313 l 361 314 l 386 318 l 406 321 l 422 271 z m 228 622 l 224 639 l 238 661 l 285 882 l 286 907 l 293 879 l 344 643 l 356 567 l 392 390 l 399 379 l 400 379 l 383 371 l 365 363 l 325 350 l 231 319 l 229 314 l 228 310 l 197 308 l 190 307 l 172 307 l 176 349 l 179 363 l 182 376 l 199 472 l 228 622 z m 258 1150 l 224 1189 l 211 1190 l 164 1149 l 161 1132 l 185 1111 l 204 1092 l 219 1086 l 239 1111 l 265 1138 l 258 1150 z m 314 1128 l 349 1089 l 361 1086 l 408 1129 l 411 1147 l 390 1165 l 369 1186 l 351 1190 l 335 1165 l 308 1139 l 314 1128 z "},"":{"ha":576,"x_min":0,"x_max":0,"o":"m 163 1104 l 165 1076 l 229 1013 l 244 994 l 235 953 l 225 892 l 217 833 l 225 825 l 207 785 l 167 582 l 165 565 l 165 549 l 158 519 l 153 490 l 119 307 l 119 279 l 121 275 l 103 253 l 89 168 l 53 17 l 76 -6 l 131 -10 l 139 50 l 139 103 l 161 236 l 160 242 l 179 249 l 186 251 l 221 263 l 310 289 l 347 313 l 361 314 l 386 318 l 406 321 l 422 271 l 426 233 l 431 221 l 438 171 l 454 151 l 440 139 l 458 -4 l 478 -11 l 486 -11 l 533 11 l 510 81 l 497 175 l 460 314 l 460 339 l 379 693 l 375 706 l 372 717 l 378 740 l 332 954 l 326 974 l 319 993 l 342 1024 l 340 1035 l 353 1035 l 407 1081 l 406 1104 l 358 1150 l 340 1164 l 339 1174 l 294 1222 l 272 1222 l 253 1194 l 235 1175 l 222 1158 l 163 1104 z m 228 622 l 224 639 l 238 661 l 285 882 l 286 907 l 293 879 l 344 643 l 356 567 l 392 390 l 399 379 l 400 379 l 383 371 l 365 363 l 325 350 l 231 319 l 229 314 l 228 310 l 197 308 l 190 307 l 172 307 l 176 349 l 182 376 l 199 472 l 228 622 z m 244 1133 l 279 1168 l 288 1168 l 326 1126 l 356 1094 l 356 1089 l 313 1042 l 283 1014 l 253 1049 l 235 1056 l 239 1063 l 211 1088 l 208 1096 l 240 1124 l 244 1133 z "},"":{"ha":758,"x_min":0,"x_max":0,"o":"m 697 950 l 701 997 l 700 1022 l 607 1021 l 529 1017 l 506 1021 l 429 1021 l 394 1017 l 361 1018 l 333 939 l 317 879 l 301 822 l 308 814 l 283 776 l 213 579 l 208 563 l 207 546 l 196 518 l 186 490 l 129 313 l 126 285 l 126 281 l 107 261 l 82 178 l 15 15 l 39 0 l 92 -11 l 108 38 l 114 89 l 125 115 l 165 236 l 164 242 l 185 247 l 192 249 l 231 254 l 399 283 l 401 285 l 403 233 l 397 201 l 394 139 l 392 79 l 386 26 l 392 0 l 460 -1 l 471 6 l 539 6 l 626 -3 l 707 -4 l 717 6 l 722 65 l 692 69 l 654 63 l 532 53 l 510 53 l 465 63 l 464 78 l 461 226 l 454 233 l 463 261 l 453 303 l 463 493 l 493 492 l 625 485 l 663 482 l 667 510 l 674 540 l 663 551 l 624 550 l 554 542 l 457 543 l 451 639 l 450 719 l 460 736 l 463 874 l 465 913 l 464 939 l 460 951 l 457 964 l 488 969 l 504 968 l 521 968 l 607 960 l 629 963 l 671 950 l 697 950 z m 244 304 l 243 300 l 210 304 l 203 303 l 185 306 l 194 346 l 203 374 l 229 465 l 283 611 l 282 628 l 297 647 l 399 914 l 400 824 l 399 708 l 399 594 l 394 540 l 404 399 l 410 394 l 400 374 l 400 339 l 247 310 l 244 304 z "},"":{"ha":467,"x_min":0,"x_max":0,"o":"m 79 424 l 136 329 l 194 258 l 200 229 l 308 69 l 322 61 l 332 21 l 285 -24 l 283 -65 l 314 -78 l 349 -96 l 364 -122 l 353 -139 l 321 -168 l 282 -190 l 299 -229 l 317 -242 l 331 -239 l 357 -200 l 374 -179 l 414 -147 l 421 -118 l 389 -86 l 324 -33 l 363 -10 l 363 -8 l 379 0 l 421 36 l 399 71 l 353 126 l 324 165 l 242 293 l 197 360 l 182 363 l 164 417 l 133 458 l 119 483 l 104 513 l 139 569 l 165 622 l 214 707 l 338 871 l 353 907 l 396 956 l 424 1000 l 368 1036 l 351 1015 l 343 990 l 329 988 l 258 865 l 263 846 l 243 836 l 150 694 l 43 544 l 47 467 l 79 424 z "},"":{"ha":478,"x_min":0,"x_max":0,"o":"m 414 951 l 418 997 l 417 1022 l 324 1021 l 246 1017 l 222 1021 l 146 1021 l 111 1017 l 115 944 l 122 940 l 115 913 l 117 824 l 115 708 l 115 594 l 111 540 l 121 399 l 126 394 l 117 374 l 118 301 l 119 233 l 114 201 l 111 139 l 108 79 l 103 26 l 108 0 l 176 -1 l 188 6 l 256 6 l 343 -3 l 424 -4 l 433 6 l 439 65 l 408 69 l 371 63 l 249 53 l 226 53 l 182 63 l 181 78 l 178 226 l 171 233 l 179 261 l 169 303 l 179 493 l 210 492 l 342 485 l 379 482 l 383 510 l 390 540 l 379 551 l 340 550 l 271 542 l 174 543 l 168 639 l 167 719 l 176 736 l 179 874 l 182 913 l 181 938 l 176 950 l 174 963 l 204 968 l 221 967 l 238 967 l 324 960 l 346 963 l 388 951 l 414 951 z m 256 1111 l 279 1085 l 288 1076 l 325 1086 l 326 1096 l 292 1135 l 233 1218 l 224 1226 l 171 1208 l 165 1197 l 194 1165 l 256 1111 z "},"":{"ha":478,"x_min":0,"x_max":0,"o":"m 414 951 l 418 997 l 417 1022 l 324 1021 l 246 1017 l 222 1021 l 146 1021 l 111 1017 l 115 944 l 122 940 l 115 913 l 117 824 l 115 708 l 115 594 l 111 540 l 121 399 l 126 394 l 117 374 l 118 301 l 119 233 l 114 201 l 111 139 l 108 79 l 103 26 l 108 0 l 176 -1 l 188 6 l 256 6 l 343 -3 l 424 -4 l 433 6 l 439 65 l 408 69 l 371 63 l 249 53 l 226 53 l 182 63 l 181 78 l 178 226 l 171 233 l 179 261 l 169 303 l 179 493 l 210 492 l 342 485 l 379 482 l 383 510 l 390 540 l 379 551 l 340 550 l 271 542 l 174 543 l 168 639 l 167 719 l 176 736 l 179 874 l 182 913 l 181 938 l 176 950 l 174 963 l 204 968 l 221 967 l 238 967 l 324 960 l 346 963 l 388 951 l 414 951 z m 357 1165 l 386 1197 l 381 1208 l 328 1226 l 318 1218 l 260 1135 l 225 1094 l 225 1085 l 265 1075 l 275 1083 l 297 1111 l 357 1165 z "},"":{"ha":478,"x_min":0,"x_max":0,"o":"m 414 951 l 418 997 l 417 1022 l 324 1021 l 246 1017 l 222 1021 l 146 1021 l 111 1017 l 115 944 l 122 940 l 115 913 l 117 824 l 115 708 l 115 594 l 111 540 l 121 399 l 126 394 l 117 374 l 118 301 l 119 233 l 114 201 l 111 139 l 108 79 l 103 26 l 108 0 l 176 -1 l 188 6 l 256 6 l 343 -3 l 424 -4 l 433 6 l 439 65 l 408 69 l 371 63 l 249 53 l 226 53 l 182 63 l 181 78 l 178 226 l 171 233 l 179 261 l 169 303 l 179 493 l 210 492 l 342 485 l 379 482 l 383 510 l 390 540 l 379 551 l 340 550 l 271 542 l 174 543 l 168 639 l 167 719 l 176 736 l 179 874 l 182 913 l 181 938 l 176 950 l 174 963 l 204 968 l 221 967 l 238 967 l 324 960 l 346 963 l 388 951 l 414 951 z m 396 1082 l 410 1100 l 407 1114 l 372 1140 l 336 1179 l 303 1215 l 275 1218 l 246 1190 l 151 1101 l 161 1081 l 203 1075 l 218 1107 l 251 1150 l 269 1164 l 288 1154 l 333 1100 l 357 1068 l 396 1082 z "},"":{"ha":478,"x_min":0,"x_max":0,"o":"m 414 951 l 418 997 l 417 1022 l 324 1021 l 246 1017 l 222 1021 l 146 1021 l 111 1017 l 115 944 l 122 940 l 115 913 l 117 824 l 115 708 l 115 594 l 111 540 l 121 399 l 126 394 l 117 374 l 118 301 l 119 233 l 114 201 l 111 139 l 108 79 l 103 26 l 108 0 l 176 -1 l 188 6 l 256 6 l 343 -3 l 424 -4 l 433 6 l 439 65 l 408 69 l 371 63 l 249 53 l 226 53 l 182 63 l 181 78 l 178 226 l 171 233 l 179 261 l 169 303 l 179 493 l 210 492 l 342 485 l 379 482 l 383 510 l 390 540 l 379 551 l 340 550 l 271 542 l 174 543 l 168 639 l 167 719 l 176 736 l 179 874 l 182 913 l 181 938 l 176 950 l 174 963 l 204 968 l 221 967 l 238 967 l 324 960 l 346 963 l 388 951 l 414 951 z m 250 1150 l 215 1189 l 203 1190 l 156 1149 l 153 1132 l 176 1111 l 196 1092 l 211 1086 l 231 1111 l 257 1138 l 250 1150 z m 306 1128 l 340 1089 l 353 1086 l 400 1129 l 403 1147 l 382 1165 l 361 1186 l 343 1190 l 326 1165 l 300 1139 l 306 1128 z "},"":{"ha":301,"x_min":0,"x_max":0,"o":"m 132 610 l 126 525 l 122 478 l 122 89 l 110 0 l 132 -1 l 158 -3 l 189 6 l 192 29 l 186 57 l 183 86 l 183 499 l 182 506 l 181 532 l 178 572 l 172 640 l 176 715 l 181 910 l 188 950 l 192 1021 l 136 1032 l 111 1025 l 115 986 l 121 654 l 132 610 z m 131 1118 l 154 1092 l 163 1083 l 200 1093 l 201 1103 l 167 1142 l 108 1225 l 99 1233 l 46 1215 l 40 1204 l 69 1172 l 131 1118 z "},"":{"ha":301,"x_min":0,"x_max":0,"o":"m 132 610 l 126 525 l 122 478 l 122 89 l 110 0 l 132 -1 l 158 -3 l 189 6 l 192 29 l 186 57 l 183 86 l 183 499 l 182 506 l 181 532 l 178 572 l 172 640 l 176 715 l 181 910 l 188 950 l 192 1021 l 136 1032 l 111 1025 l 115 986 l 121 654 l 132 610 z m 232 1172 l 261 1204 l 256 1215 l 203 1233 l 193 1225 l 135 1142 l 100 1101 l 100 1092 l 140 1082 l 150 1090 l 172 1118 l 232 1172 z "},"":{"ha":301,"x_min":0,"x_max":0,"o":"m 132 610 l 126 525 l 122 478 l 122 89 l 110 0 l 132 -1 l 158 -3 l 189 6 l 192 29 l 186 57 l 183 86 l 183 499 l 182 506 l 181 532 l 178 572 l 172 640 l 176 715 l 181 910 l 188 950 l 192 1021 l 136 1032 l 111 1025 l 115 986 l 121 654 l 132 610 z m 267 1082 l 281 1100 l 278 1114 l 243 1140 l 207 1179 l 174 1215 l 146 1218 l 117 1190 l 22 1101 l 32 1081 l 74 1075 l 89 1107 l 122 1150 l 140 1164 l 158 1154 l 204 1100 l 228 1068 l 267 1082 z "},"":{"ha":301,"x_min":0,"x_max":0,"o":"m 132 610 l 126 525 l 122 478 l 122 89 l 110 0 l 132 -1 l 158 -3 l 189 6 l 192 29 l 186 57 l 183 86 l 183 499 l 182 506 l 181 532 l 178 572 l 172 640 l 176 715 l 181 910 l 188 950 l 192 1021 l 136 1032 l 111 1025 l 115 986 l 121 654 l 132 610 z m 124 1150 l 89 1189 l 76 1190 l 29 1149 l 26 1132 l 50 1111 l 69 1092 l 85 1086 l 104 1111 l 131 1138 l 124 1150 z m 179 1128 l 214 1089 l 226 1086 l 274 1129 l 276 1147 l 256 1165 l 235 1186 l 217 1190 l 200 1165 l 174 1139 l 179 1128 z "},"":{"ha":539,"x_min":0,"x_max":0,"o":"m 285 125 l 335 221 l 417 346 l 413 353 l 410 361 l 408 361 l 431 372 l 494 461 l 514 494 l 514 567 l 496 583 l 368 757 l 317 811 l 313 839 l 274 894 l 256 915 l 251 919 l 239 944 l 194 1000 l 165 1039 l 144 1029 l 103 1017 l 104 986 l 107 910 l 117 890 l 113 853 l 117 538 l 61 542 l 26 544 l 24 542 l 24 522 l 21 508 l 18 486 l 33 483 b 65 488 53 485 46 486 l 117 489 l 118 464 l 124 407 l 118 69 l 113 -3 l 171 -6 l 189 -12 l 285 125 z m 176 671 l 175 792 l 169 888 l 168 914 l 167 933 l 258 808 l 339 697 l 386 643 l 424 582 l 435 564 l 450 542 l 461 518 l 436 465 l 381 385 l 304 256 l 283 231 l 250 176 l 228 149 l 182 81 l 179 79 l 176 96 l 171 165 l 169 210 l 168 239 l 178 490 l 188 490 l 263 486 l 281 493 l 282 543 l 281 546 l 240 540 l 176 538 l 171 579 l 164 638 l 176 671 z "},"":{"ha":651,"x_min":0,"x_max":0,"o":"m 532 88 l 535 140 l 522 467 l 518 579 l 535 949 l 538 1015 l 510 1021 l 461 1019 l 463 938 l 474 919 l 475 919 l 461 915 l 464 869 l 465 767 l 469 661 l 464 653 l 460 653 l 354 797 l 342 806 l 304 871 l 182 1035 l 117 1017 l 117 969 l 124 904 l 126 814 l 131 722 l 126 419 l 135 397 l 140 388 l 128 335 l 124 239 l 118 126 l 118 96 l 119 79 l 113 -1 l 147 -7 l 192 -4 l 194 51 l 192 74 l 192 232 l 186 285 l 181 339 l 183 674 l 174 696 l 172 700 l 185 788 l 185 914 l 186 922 l 190 925 l 213 904 l 247 860 l 260 844 l 293 803 l 351 721 l 396 663 l 417 625 l 435 586 l 468 518 l 469 397 l 476 364 l 483 332 l 471 329 l 467 218 l 471 138 l 471 76 l 467 -4 l 481 -7 l 535 -6 l 542 8 l 532 88 z m 422 1089 l 499 1190 l 488 1204 l 450 1206 l 446 1186 l 418 1151 l 396 1149 l 307 1211 l 269 1213 l 243 1188 l 179 1117 l 189 1099 l 228 1099 l 235 1128 l 258 1157 l 285 1153 l 388 1083 l 422 1089 z "},"":{"ha":588,"x_min":0,"x_max":0,"o":"m 332 1029 l 282 1025 l 267 1022 l 258 997 l 251 983 l 164 783 l 163 779 l 163 772 l 161 760 l 142 740 l 57 546 l 44 532 l 53 483 l 89 403 l 115 340 l 143 279 l 174 208 l 194 208 l 200 153 l 258 22 l 261 -6 l 319 -14 l 331 -1 l 346 39 l 425 233 l 479 343 l 547 486 l 551 547 l 496 647 l 469 715 l 460 715 l 450 728 l 436 779 l 354 965 l 332 1029 z m 310 89 l 311 89 l 300 82 l 297 81 l 261 174 l 211 282 l 169 369 l 135 460 l 133 464 l 117 506 l 111 518 l 108 524 l 110 535 l 110 542 l 111 547 l 163 669 l 167 708 l 165 708 l 183 721 l 271 886 l 292 932 l 293 942 l 294 944 l 303 938 l 346 846 l 354 844 l 360 844 l 351 826 l 442 618 l 454 593 l 460 579 l 467 569 l 481 529 l 486 513 l 421 325 l 411 289 l 389 271 l 310 89 z m 281 1111 l 304 1085 l 313 1076 l 350 1086 l 351 1096 l 317 1135 l 258 1218 l 249 1226 l 196 1208 l 190 1197 l 219 1165 l 281 1111 z "},"":{"ha":588,"x_min":0,"x_max":0,"o":"m 332 1029 l 282 1025 l 267 1022 l 258 997 l 251 983 l 164 783 l 163 779 l 163 772 l 161 760 l 142 740 l 57 546 l 44 532 l 53 483 l 89 403 l 115 340 l 143 279 l 174 208 l 194 208 l 200 153 l 258 22 l 261 -6 l 319 -14 l 331 -1 l 346 39 l 425 233 l 479 343 l 547 486 l 551 547 l 496 647 l 469 715 l 460 715 l 450 728 l 436 779 l 354 965 l 332 1029 z m 310 89 l 311 89 l 300 82 l 297 81 l 261 174 l 211 282 l 169 369 l 135 460 l 133 464 l 117 506 l 111 518 l 108 524 l 110 535 l 110 542 l 111 547 l 163 669 l 167 708 l 165 708 l 183 721 l 271 886 l 292 932 l 293 942 l 294 944 l 303 938 l 346 846 l 354 844 l 360 844 l 351 826 l 442 618 l 454 593 l 460 579 l 467 569 l 481 529 l 486 513 l 421 325 l 411 289 l 389 271 l 310 89 z m 382 1165 l 411 1197 l 406 1208 l 353 1226 l 343 1218 l 285 1135 l 250 1094 l 250 1085 l 290 1075 l 300 1083 l 322 1111 l 382 1165 z "},"":{"ha":588,"x_min":0,"x_max":0,"o":"m 332 1029 l 282 1025 l 267 1022 l 258 997 l 251 983 l 164 783 l 163 779 l 163 772 l 161 760 l 142 740 l 57 546 l 44 532 l 53 483 l 89 403 l 115 340 l 143 279 l 174 208 l 194 208 l 200 153 l 258 22 l 261 -6 l 319 -14 l 331 -1 l 346 39 l 425 233 l 479 343 l 547 486 l 551 547 l 496 647 l 469 715 l 460 715 l 450 728 l 436 779 l 354 965 l 332 1029 z m 310 89 l 311 89 l 300 82 l 297 81 l 261 174 l 211 282 l 169 369 l 135 460 l 133 464 l 117 506 l 111 518 l 108 524 l 110 535 l 110 542 l 111 547 l 163 669 l 167 708 l 165 708 l 183 721 l 271 886 l 292 932 l 293 942 l 294 944 l 303 938 l 346 846 l 354 844 l 360 844 l 351 826 l 442 618 l 454 593 l 460 579 l 467 569 l 481 529 l 486 513 l 421 325 l 411 289 l 389 271 l 310 89 z m 421 1082 l 435 1100 l 432 1114 l 397 1140 l 361 1179 l 328 1215 l 300 1218 l 271 1190 l 176 1101 l 186 1081 l 228 1075 l 243 1107 l 276 1150 l 294 1164 l 313 1154 l 358 1100 l 382 1068 l 421 1082 z "},"":{"ha":588,"x_min":0,"x_max":0,"o":"m 332 1029 l 282 1025 l 267 1022 l 258 997 l 251 983 l 164 783 l 163 779 l 163 772 l 161 760 l 142 740 l 57 546 l 44 532 l 53 483 l 89 403 l 115 340 l 143 279 l 174 208 l 194 208 l 200 153 l 258 22 l 261 -6 l 319 -14 l 331 -1 l 346 39 l 425 233 l 479 343 l 547 486 l 551 547 l 496 647 l 469 715 l 460 715 l 450 728 l 436 779 l 354 965 l 332 1029 z m 310 89 l 311 89 l 300 82 l 297 81 l 261 174 l 211 282 l 169 369 l 135 460 l 133 464 l 117 506 l 111 518 l 108 524 l 110 535 l 110 542 l 111 547 l 163 669 l 167 708 l 165 708 l 183 721 l 271 886 l 292 932 l 293 942 l 294 944 l 303 938 l 346 846 l 354 844 l 360 844 l 351 826 l 442 618 l 454 593 l 460 579 l 467 569 l 481 529 l 486 513 l 421 325 l 411 289 l 389 271 l 310 89 z m 394 1089 l 471 1190 l 460 1204 l 422 1206 l 418 1186 l 390 1151 l 368 1149 l 279 1211 l 242 1213 l 215 1188 l 151 1117 l 161 1099 l 200 1099 l 207 1128 l 231 1157 l 257 1153 l 360 1083 l 394 1089 z "},"":{"ha":588,"x_min":0,"x_max":0,"o":"m 332 1029 l 282 1025 l 267 1022 l 258 997 l 251 983 l 164 783 l 163 779 l 163 772 l 161 760 l 142 740 l 57 546 l 44 532 l 53 483 l 89 403 l 115 340 l 143 279 l 174 208 l 194 208 l 200 153 l 258 22 l 261 -6 l 319 -14 l 331 -1 l 346 39 l 425 233 l 479 343 l 547 486 l 551 547 l 496 647 l 469 715 l 460 715 l 450 728 l 436 779 l 354 965 l 332 1029 z m 310 89 l 311 89 l 300 82 l 297 81 l 261 174 l 211 282 l 169 369 l 135 460 l 133 464 l 117 506 l 111 518 l 108 524 l 110 535 l 110 542 l 111 547 l 163 669 l 167 708 l 165 708 l 183 721 l 271 886 l 292 932 l 293 942 l 294 944 l 303 938 l 346 846 l 354 844 l 360 844 l 351 826 l 442 618 l 454 593 l 460 579 l 467 569 l 481 529 l 486 513 l 421 325 l 411 289 l 389 271 l 310 89 z m 275 1150 l 240 1189 l 228 1190 l 181 1149 l 178 1132 l 201 1111 l 221 1092 l 236 1086 l 256 1111 l 282 1138 l 275 1150 z m 331 1128 l 365 1089 l 378 1086 l 425 1129 l 428 1147 l 407 1165 l 386 1186 l 368 1190 l 351 1165 l 325 1139 l 331 1128 z "},"":{"ha":514,"x_min":0,"x_max":0,"o":"m 315 718 l 274 767 l 257 768 l 203 719 l 200 699 l 250 647 l 268 642 b 290 672 275 650 283 664 l 289 672 l 321 704 l 315 718 z m 313 329 l 274 376 l 256 378 l 201 328 l 199 306 l 224 281 l 249 257 l 267 251 b 289 282 274 260 282 274 l 288 282 l 319 314 l 313 329 z m 113 539 l 76 547 l 40 553 l 35 528 l 32 483 l 46 479 l 88 483 l 131 489 l 279 489 l 344 488 b 396 485 361 488 381 485 l 451 474 l 474 486 l 482 546 l 436 543 l 360 535 b 242 533 321 535 281 533 l 113 539 z "},"":{"ha":622,"x_min":0,"x_max":0,"o":"m 349 1029 l 299 1025 l 283 1022 l 275 997 l 268 983 l 181 783 l 179 779 l 179 772 l 178 760 l 158 740 l 74 546 l 61 532 l 69 483 l 106 403 l 132 340 l 154 289 l 150 281 l 147 254 l 119 221 l 90 157 l 71 132 l 115 94 l 128 99 l 150 156 l 150 172 l 181 231 l 190 208 l 211 208 l 217 153 l 275 22 l 278 -6 l 336 -14 l 347 -1 l 363 39 l 442 233 l 496 343 l 564 486 l 568 547 l 513 647 l 486 715 l 476 715 l 467 728 l 460 751 l 521 857 l 539 888 l 539 900 l 496 933 l 475 897 l 449 843 l 451 824 l 439 810 l 371 965 l 349 1029 z m 379 610 l 426 692 l 458 618 l 471 593 l 476 579 l 483 569 l 497 529 l 503 513 l 438 325 l 428 289 l 406 271 l 326 89 l 328 89 l 317 82 l 314 81 l 278 174 l 228 282 l 217 304 l 325 525 l 379 610 z m 360 674 l 303 551 l 282 528 l 192 358 l 186 369 l 151 460 l 150 464 l 133 506 l 128 518 l 125 524 l 126 535 l 126 542 l 128 547 l 179 669 l 183 708 l 182 708 l 200 721 l 288 886 l 308 932 l 310 942 l 311 944 l 319 938 l 363 846 l 371 844 l 376 844 l 368 826 l 401 749 l 396 735 l 360 674 z "},"":{"ha":643,"x_min":0,"x_max":0,"o":"m 131 219 l 122 106 l 124 49 l 186 -6 l 251 -7 l 288 14 l 444 86 l 461 69 l 468 29 l 475 -8 l 540 3 l 526 85 l 518 260 l 522 588 l 513 618 l 514 657 l 514 688 l 518 783 l 528 876 l 521 890 l 515 904 l 531 918 l 535 982 l 529 1018 l 499 1019 l 458 1018 l 456 951 l 461 785 l 471 779 l 469 779 l 474 778 l 463 758 l 460 640 l 465 549 l 471 457 l 467 263 l 458 156 l 422 135 l 424 135 l 375 107 l 368 103 l 369 103 l 307 81 l 269 65 l 250 58 l 226 63 l 189 93 l 183 131 l 172 310 l 185 489 l 181 600 l 179 615 l 178 708 l 189 768 l 189 792 l 188 807 l 188 879 l 193 926 l 194 1018 l 125 1021 l 118 1000 l 125 772 l 133 719 l 122 682 l 121 581 l 129 419 l 131 219 z m 307 1111 l 331 1085 l 339 1076 l 376 1086 l 378 1096 l 343 1135 l 285 1218 l 275 1226 l 222 1208 l 217 1197 l 246 1165 l 307 1111 z "},"":{"ha":643,"x_min":0,"x_max":0,"o":"m 131 219 l 122 106 l 124 49 l 186 -6 l 251 -7 l 288 14 l 444 86 l 461 69 l 468 29 l 475 -8 l 540 3 l 526 85 l 518 260 l 522 588 l 513 618 l 514 657 l 514 688 l 518 783 l 528 876 l 521 890 l 515 904 l 531 918 l 535 982 l 529 1018 l 499 1019 l 458 1018 l 456 951 l 461 785 l 471 779 l 469 779 l 474 778 l 463 758 l 460 640 l 465 549 l 471 457 l 467 263 l 458 156 l 422 135 l 424 135 l 375 107 l 368 103 l 369 103 l 307 81 l 269 65 l 250 58 l 226 63 l 189 93 l 183 131 l 172 310 l 185 489 l 181 600 l 179 615 l 178 708 l 189 768 l 189 792 l 188 807 l 188 879 l 193 926 l 194 1018 l 125 1021 l 118 1000 l 125 772 l 133 719 l 122 682 l 121 581 l 129 419 l 131 219 z m 408 1165 l 438 1197 l 432 1208 l 379 1226 l 369 1218 l 311 1135 l 276 1094 l 276 1085 l 317 1075 l 326 1083 l 349 1111 l 408 1165 z "},"":{"ha":643,"x_min":0,"x_max":0,"o":"m 131 219 l 122 106 l 124 49 l 186 -6 l 251 -7 l 288 14 l 444 86 l 461 69 l 468 29 l 475 -8 l 540 3 l 526 85 l 518 260 l 522 588 l 513 618 l 514 657 l 514 688 l 518 783 l 528 876 l 521 890 l 515 904 l 531 918 l 535 982 l 529 1018 l 499 1019 l 458 1018 l 456 951 l 461 785 l 471 779 l 469 779 l 474 778 l 463 758 l 460 640 l 465 549 l 471 457 l 467 263 l 458 156 l 422 135 l 424 135 l 375 107 l 368 103 l 369 103 l 307 81 l 269 65 l 250 58 l 226 63 l 189 93 l 183 131 l 172 310 l 185 489 l 181 600 l 179 615 l 178 708 l 189 768 l 189 792 l 188 807 l 188 879 l 193 926 l 194 1018 l 125 1021 l 118 1000 l 125 772 l 133 719 l 122 682 l 121 581 l 129 419 l 131 219 z m 447 1082 l 461 1100 l 458 1114 l 424 1140 l 388 1179 l 354 1215 l 326 1218 l 297 1190 l 203 1101 l 213 1081 l 254 1075 l 269 1107 l 303 1150 l 321 1164 l 339 1154 l 385 1100 l 408 1068 l 447 1082 z "},"":{"ha":643,"x_min":0,"x_max":0,"o":"m 131 219 l 122 106 l 124 49 l 186 -6 l 251 -7 l 288 14 l 444 86 l 461 69 l 468 29 l 475 -8 l 540 3 l 526 85 l 518 260 l 522 588 l 513 618 l 514 657 l 514 688 l 518 783 l 528 876 l 521 890 l 515 904 l 531 918 l 535 982 l 529 1018 l 499 1019 l 458 1018 l 456 951 l 461 785 l 471 779 l 469 779 l 474 778 l 463 758 l 460 640 l 465 549 l 471 457 l 467 263 l 458 156 l 422 135 l 424 135 l 375 107 l 368 103 l 369 103 l 307 81 l 269 65 l 250 58 l 226 63 l 189 93 l 183 131 l 172 310 l 185 489 l 181 600 l 179 615 l 178 708 l 189 768 l 189 792 l 188 807 l 188 879 l 193 926 l 194 1018 l 125 1021 l 118 1000 l 125 772 l 133 719 l 122 682 l 121 581 l 129 419 l 131 219 z m 301 1150 l 267 1189 l 254 1190 l 207 1149 l 204 1132 l 228 1111 l 247 1092 l 263 1086 l 282 1111 l 308 1138 l 301 1150 z m 357 1128 l 392 1089 l 404 1086 l 451 1129 l 454 1147 l 433 1165 l 413 1186 l 394 1190 l 378 1165 l 351 1139 l 357 1128 z "},"":{"ha":543,"x_min":0,"x_max":0,"o":"m 299 -4 l 311 6 l 307 44 l 303 83 l 304 143 l 299 172 l 304 285 l 304 322 l 303 339 l 301 393 l 301 479 l 350 597 l 407 750 l 435 833 l 451 868 l 468 904 l 485 928 l 515 1007 l 500 1018 l 479 1028 l 442 1032 l 436 1003 l 424 951 l 393 839 l 365 782 l 344 714 l 319 643 l 304 613 l 296 592 l 294 586 l 286 569 l 283 561 l 276 565 l 272 572 l 244 646 l 226 686 l 188 794 l 171 850 l 144 915 l 131 947 l 118 963 l 121 981 l 106 1029 l 76 1024 l 35 1013 l 31 990 l 89 890 l 93 865 l 142 754 l 185 646 l 200 611 l 235 522 l 236 511 l 240 482 l 246 442 l 243 371 l 249 174 l 251 160 l 247 142 l 233 40 l 231 -1 l 299 -4 z m 351 1165 l 381 1197 l 375 1208 l 322 1226 l 313 1218 l 254 1135 l 219 1094 l 219 1085 l 260 1075 l 269 1083 l 292 1111 l 351 1165 z "},"":{"ha":518,"x_min":0,"x_max":0,"o":"m 360 375 l 411 414 l 465 465 l 485 479 l 486 544 l 400 617 b 321 674 371 635 350 654 l 310 690 l 238 757 l 179 810 l 179 904 l 186 946 l 192 1014 l 140 1022 l 113 1015 l 118 982 l 125 688 l 131 454 l 144 450 l 128 421 l 126 250 l 126 121 l 108 -3 l 158 -7 l 190 -4 l 186 61 b 176 151 183 100 179 113 l 186 193 l 265 275 l 360 375 z m 181 342 l 175 554 l 183 700 l 188 718 l 349 582 l 378 550 l 422 511 l 415 496 l 358 432 l 253 322 b 193 281 233 310 213 294 b 181 286 193 281 185 283 l 182 332 l 181 342 z "},"":{"ha":543,"x_min":0,"x_max":0,"o":"m 299 -4 l 311 6 l 307 44 l 303 83 l 304 143 l 299 172 l 304 285 l 304 322 l 303 339 l 301 393 l 301 479 l 350 597 l 407 750 l 435 833 l 451 868 l 468 904 l 485 928 l 515 1007 l 500 1018 l 479 1028 l 442 1032 l 436 1003 l 424 951 l 393 839 l 365 782 l 344 714 l 319 643 l 304 613 l 296 592 l 294 586 l 286 569 l 283 561 l 276 565 l 272 572 l 244 646 l 226 686 l 188 794 l 171 850 l 144 915 l 131 947 l 118 963 l 121 981 l 106 1029 l 76 1024 l 35 1013 l 31 990 l 89 890 l 93 865 l 142 754 l 185 646 l 200 611 l 235 522 l 236 511 l 240 482 l 246 442 l 243 371 l 249 174 l 251 160 l 247 142 l 233 40 l 231 -1 l 299 -4 z m 244 1150 l 210 1189 l 197 1190 l 150 1149 l 147 1132 l 171 1111 l 190 1092 l 206 1086 l 225 1111 l 251 1138 l 244 1150 z m 300 1128 l 335 1089 l 347 1086 l 394 1129 l 397 1147 l 376 1165 l 356 1186 l 338 1190 l 321 1165 l 294 1139 l 300 1128 z "},"":{"ha":301,"x_min":0,"x_max":0,"o":"m 132 610 l 126 525 l 122 478 l 122 89 l 110 0 l 132 -1 l 158 -3 l 189 6 l 192 29 l 186 57 l 183 86 l 183 499 l 182 506 l 181 532 l 178 572 l 172 640 l 176 715 l 181 910 l 188 950 l 192 1021 l 136 1032 l 111 1025 l 115 986 l 121 654 l 132 610 z "},"":{"ha":451,"x_min":0,"x_max":0,"o":"m 340 60 l 192 57 l 176 71 l 183 78 l 182 135 l 175 240 l 164 260 l 163 260 l 175 265 l 171 342 l 171 349 l 168 468 l 167 476 l 214 504 l 260 525 l 339 557 l 351 574 l 326 621 l 279 592 l 229 561 l 167 529 l 167 556 l 176 721 l 183 888 l 189 939 l 190 1018 l 183 1024 l 140 1017 l 103 1017 l 111 917 l 125 906 l 117 874 l 119 507 l 82 490 l 74 478 l 60 482 l 33 468 l 1 456 l 6 442 l 13 425 l 28 401 l 40 404 l 64 426 l 88 442 l 119 456 l 121 374 l 110 128 l 118 85 l 107 54 l 107 0 l 132 -3 l 199 3 l 215 0 l 292 0 l 304 1 l 404 -6 l 415 6 l 422 64 l 417 76 l 375 71 l 340 60 z "},"":{"ha":451,"x_min":0,"x_max":0,"o":"m 340 60 l 192 57 l 176 71 l 183 78 l 182 135 l 175 240 l 164 260 l 163 260 l 175 265 l 171 342 l 171 349 l 168 468 l 167 476 l 214 504 l 260 525 l 339 557 l 351 574 l 326 621 l 279 592 l 229 561 l 167 529 l 167 556 l 176 721 l 183 888 l 189 939 l 190 1018 l 183 1024 l 140 1017 l 103 1017 l 111 917 l 125 906 l 117 874 l 119 507 l 82 490 l 74 478 l 60 482 l 33 468 l 1 456 l 6 442 l 13 425 l 28 401 l 40 404 l 64 426 l 88 442 l 119 456 l 121 374 l 110 128 l 118 85 l 107 54 l 107 0 l 132 -3 l 199 3 l 215 0 l 292 0 l 304 1 l 404 -6 l 415 6 l 422 64 l 417 76 l 375 71 l 340 60 z "},"":{"ha":675,"x_min":0,"x_max":0,"o":"m 628 964 l 631 1007 l 625 1028 l 604 1025 l 549 1025 l 468 1022 l 447 1024 l 432 1021 l 375 1022 l 328 1025 l 322 1022 l 190 803 l 179 761 l 150 728 l 26 540 l 25 513 l 24 483 l 82 406 l 160 278 l 224 189 l 240 147 l 324 15 l 335 -6 l 371 -4 l 375 -3 l 401 -4 l 414 4 l 483 0 l 629 -4 l 636 11 l 640 36 l 638 64 l 588 60 l 472 56 l 456 47 l 410 60 l 411 78 l 407 226 l 403 500 l 415 515 l 469 514 l 576 501 l 590 507 l 596 522 l 596 563 l 590 567 l 565 565 l 501 560 l 404 558 l 411 764 l 406 801 l 408 878 l 394 913 l 408 931 l 410 965 l 461 972 l 546 967 l 579 969 l 622 957 l 628 964 z m 354 92 l 279 197 l 218 303 l 179 353 l 114 475 l 93 501 l 97 538 l 178 690 l 233 785 l 303 896 l 313 906 l 322 924 l 349 950 l 358 896 l 357 826 l 356 615 l 350 551 l 351 438 l 356 419 l 349 390 l 354 240 l 356 201 l 353 132 l 350 121 l 354 92 z "},"":{"ha":675,"x_min":0,"x_max":0,"o":"m 628 964 l 631 1007 l 625 1028 l 604 1025 l 549 1025 l 468 1022 l 447 1024 l 432 1021 l 375 1022 l 328 1025 l 322 1022 l 190 803 l 179 761 l 150 728 l 26 540 l 25 513 l 24 483 l 82 406 l 160 278 l 224 189 l 240 147 l 324 15 l 335 -6 l 371 -4 l 375 -3 l 401 -4 l 414 4 l 483 0 l 629 -4 l 636 11 l 640 36 l 638 64 l 588 60 l 472 56 l 456 47 l 410 60 l 411 78 l 407 226 l 403 500 l 415 515 l 469 514 l 576 501 l 590 507 l 596 522 l 596 563 l 590 567 l 565 565 l 501 560 l 404 558 l 411 764 l 406 801 l 408 878 l 394 913 l 408 931 l 410 965 l 461 972 l 546 967 l 579 969 l 622 957 l 628 964 z m 354 92 l 279 197 l 218 303 l 179 353 l 114 475 l 93 501 l 97 538 l 178 690 l 233 785 l 303 896 l 313 906 l 322 924 l 349 950 l 358 896 l 357 826 l 356 615 l 350 551 l 351 438 l 356 419 l 349 390 l 354 240 l 356 201 l 353 132 l 350 121 l 354 92 z "},"":{"ha":472,"x_min":0,"x_max":0,"o":"m 336 332 l 263 215 l 239 183 l 240 183 l 219 169 l 179 117 l 138 67 l 101 35 l 96 13 l 151 -25 l 179 -4 l 197 29 l 215 64 l 272 142 l 307 192 l 358 254 l 414 329 l 417 400 l 383 426 l 243 569 l 217 586 l 189 608 l 133 671 l 168 728 l 206 785 l 300 900 l 307 932 l 363 967 l 379 1004 l 328 1039 l 311 1036 l 282 986 l 265 964 l 232 915 l 192 858 l 153 806 l 71 710 l 71 633 l 104 607 l 138 582 l 222 514 l 286 442 l 292 439 l 351 371 l 336 332 z m 132 1204 l 117 1186 l 119 1172 l 158 1146 l 201 1107 l 233 1072 l 268 1065 l 297 1097 l 396 1192 l 382 1213 l 338 1213 l 328 1182 l 294 1138 l 271 1122 l 250 1133 l 196 1188 l 171 1221 l 132 1204 z "},"":{"ha":472,"x_min":0,"x_max":0,"o":"m 336 332 l 263 215 l 239 183 l 240 183 l 219 169 l 179 117 l 138 67 l 101 35 l 96 13 l 151 -25 l 179 -4 l 197 29 l 215 64 l 272 142 l 307 192 l 358 254 l 414 329 l 417 400 l 383 426 l 243 569 l 217 586 l 189 608 l 133 671 l 168 728 l 206 785 l 300 900 l 307 932 l 363 967 l 379 1004 l 328 1039 l 311 1036 l 282 986 l 265 964 l 232 915 l 192 858 l 153 806 l 71 710 l 71 633 l 104 607 l 138 582 l 222 514 l 286 442 l 292 439 l 351 371 l 336 332 z m 132 1204 l 117 1186 l 119 1172 l 158 1146 l 201 1107 l 233 1072 l 268 1065 l 297 1097 l 396 1192 l 382 1213 l 338 1213 l 328 1182 l 294 1138 l 271 1122 l 250 1133 l 196 1188 l 171 1221 l 132 1204 z "},"":{"ha":543,"x_min":0,"x_max":0,"o":"m 299 -4 l 311 6 l 307 44 l 303 83 l 304 143 l 299 172 l 304 285 l 304 322 l 303 339 l 301 393 l 301 479 l 350 597 l 407 750 l 435 833 l 451 868 l 468 904 l 485 928 l 515 1007 l 500 1018 l 479 1028 l 442 1032 l 436 1003 l 424 951 l 393 839 l 365 782 l 344 714 l 319 643 l 304 613 l 296 592 l 294 586 l 286 569 l 283 561 l 276 565 l 272 572 l 244 646 l 226 686 l 188 794 l 171 850 l 144 915 l 131 947 l 118 963 l 121 981 l 106 1029 l 76 1024 l 35 1013 l 31 990 l 89 890 l 93 865 l 142 754 l 185 646 l 200 611 l 235 522 l 236 511 l 240 482 l 246 442 l 243 371 l 249 174 l 251 160 l 247 142 l 233 40 l 231 -1 l 299 -4 z m 244 1150 l 210 1189 l 197 1190 l 150 1149 l 147 1132 l 171 1111 l 190 1092 l 206 1086 l 225 1111 l 251 1138 l 244 1150 z m 300 1128 l 335 1089 l 347 1086 l 394 1129 l 397 1147 l 376 1165 l 356 1186 l 338 1190 l 321 1165 l 294 1139 l 300 1128 z "},"":{"ha":494,"x_min":0,"x_max":0,"o":"m 357 1018 l 271 1014 l 168 1014 l 157 1017 l 72 1019 l 64 947 l 75 938 l 97 942 l 154 954 l 244 960 l 315 960 b 340 961 324 960 335 961 l 349 956 l 347 956 l 338 918 l 328 878 l 300 786 l 310 782 l 308 782 l 297 768 l 229 563 l 186 406 l 125 256 l 125 225 l 60 51 l 78 0 l 133 0 l 204 4 l 288 3 l 393 3 l 431 -1 l 438 43 l 438 71 l 429 81 l 342 61 l 169 60 b 143 53 161 58 151 54 l 190 261 l 190 269 b 192 281 190 275 192 279 l 235 426 l 304 615 l 329 711 l 361 826 l 415 951 l 414 951 l 433 963 b 425 982 431 967 428 976 l 422 990 l 417 1021 l 399 1021 l 357 1018 z m 125 1204 l 110 1186 l 113 1172 l 151 1146 l 194 1107 l 226 1072 l 261 1065 l 290 1097 l 389 1192 l 375 1213 l 331 1213 l 321 1182 l 288 1138 l 264 1122 l 243 1133 l 189 1188 l 164 1221 l 125 1204 z "},"":{"ha":494,"x_min":0,"x_max":0,"o":"m 357 1018 l 271 1014 l 168 1014 l 157 1017 l 72 1019 l 64 947 l 75 938 l 97 942 l 154 954 l 244 960 l 315 960 b 340 961 324 960 335 961 l 349 956 l 347 956 l 338 918 l 328 878 l 300 786 l 310 782 l 308 782 l 297 768 l 229 563 l 186 406 l 125 256 l 125 225 l 60 51 l 78 0 l 133 0 l 204 4 l 288 3 l 393 3 l 431 -1 l 438 43 l 438 71 l 429 81 l 342 61 l 169 60 b 143 53 161 58 151 54 l 190 261 l 190 269 b 192 281 190 275 192 279 l 235 426 l 304 615 l 329 711 l 361 826 l 415 951 l 414 951 l 433 963 b 425 982 431 967 428 976 l 422 990 l 417 1021 l 399 1021 l 357 1018 z m 125 1204 l 110 1186 l 113 1172 l 151 1146 l 194 1107 l 226 1072 l 261 1065 l 290 1097 l 389 1192 l 375 1213 l 331 1213 l 321 1182 l 288 1138 l 264 1122 l 243 1133 l 189 1188 l 164 1221 l 125 1204 z "},"":{"ha":632,"x_min":0,"x_max":0,"o":"m 100 -3 l 139 3 l 156 0 l 233 0 l 246 1 l 515 -4 l 576 -1 l 578 22 l 579 115 l 564 128 l 574 163 l 569 667 l 578 899 l 574 943 l 582 975 l 579 1022 l 560 1025 l 493 1019 l 479 1022 l 346 1022 l 333 1021 l 61 1025 l 68 1006 l 58 1003 l 61 907 l 71 894 l 61 860 l 65 372 l 58 125 l 67 81 l 56 47 l 56 0 l 71 -3 l 93 0 l 100 -3 z m 111 131 l 110 126 l 110 236 l 93 244 l 110 267 l 106 340 l 106 347 l 104 468 l 103 486 l 103 556 l 111 724 l 117 888 l 118 897 l 119 974 l 528 975 l 526 883 l 525 803 l 542 779 l 525 772 l 529 699 l 529 692 l 531 571 l 532 553 l 532 483 l 524 315 l 522 150 l 517 49 l 493 49 l 107 46 l 111 131 z "},"":{"ha":314,"x_min":0,"x_max":0,"o":"m 272 1082 l 286 1100 l 283 1114 l 249 1140 l 213 1179 l 179 1215 l 151 1218 l 122 1190 l 28 1101 l 38 1081 l 79 1075 l 94 1107 l 128 1150 l 146 1164 l 164 1154 l 210 1100 l 233 1068 l 272 1082 z "},"":{"ha":335,"x_min":0,"x_max":0,"o":"m 43 1204 l 28 1186 l 31 1172 l 69 1146 l 113 1107 l 144 1072 l 179 1065 l 208 1097 l 307 1192 l 293 1213 l 249 1213 l 239 1182 l 206 1138 l 182 1122 l 161 1133 l 107 1188 l 82 1221 l 43 1204 z "},"":{"ha":186,"x_min":0,"x_max":0,"o":"m 158 1161 l 139 1178 l 126 1174 l 117 1199 l 104 1219 l 90 1221 l 63 1190 l 29 1163 l 28 1147 l 64 1118 l 75 1117 l 79 1110 l 78 1103 l 86 1090 l 97 1089 l 124 1124 l 158 1149 l 158 1161 z "},"":{"ha":300,"x_min":0,"x_max":0,"o":"m 28 1146 l 29 1132 l 31 1118 l 94 1054 l 121 1024 l 139 1004 l 160 1008 l 207 1065 l 206 1076 l 218 1076 l 272 1122 l 271 1146 l 224 1192 l 206 1206 l 204 1215 l 160 1264 l 138 1264 l 118 1236 l 103 1217 l 90 1200 l 28 1146 z m 104 1178 l 142 1213 l 150 1213 l 192 1168 l 222 1133 l 222 1122 l 189 1083 l 158 1054 l 153 1053 l 115 1090 l 97 1097 l 101 1104 l 72 1132 l 69 1140 l 99 1168 l 104 1178 z "},"":{"ha":375,"x_min":0,"x_max":0,"o":"m 271 1089 l 347 1190 l 336 1204 l 299 1206 l 294 1186 l 267 1151 l 244 1149 l 156 1211 l 118 1213 l 92 1188 l 28 1117 l 38 1099 l 76 1099 l 83 1128 l 107 1157 l 133 1153 l 236 1083 l 271 1089 z "},"":{"ha":667,"x_min":0,"x_max":0,"o":"m 185 1007 l 176 1019 l 154 1019 l 111 1014 l 107 979 l 115 913 l 114 576 l 122 485 l 114 413 l 114 367 l 111 247 l 111 142 l 107 108 l 88 3 l 114 -6 l 181 4 l 175 104 l 175 172 l 172 193 l 168 274 l 165 349 l 238 381 l 390 475 l 529 646 l 529 661 l 568 690 l 622 836 l 636 957 l 646 989 l 579 1008 l 567 1003 l 567 890 l 568 853 l 539 746 l 486 676 l 469 646 l 385 551 l 219 432 l 164 413 l 163 478 l 163 526 l 218 556 l 269 583 l 354 690 l 346 707 l 376 732 l 428 874 l 440 972 l 450 1004 l 382 1017 l 369 1011 l 369 924 l 368 886 l 340 783 l 303 719 l 282 689 l 249 647 l 200 599 l 163 593 l 163 631 l 172 746 l 172 810 l 174 885 l 174 892 l 178 933 l 185 1007 z "},"":{"ha":694,"x_min":0,"x_max":0,"o":"m 190 1008 l 182 1021 l 160 1022 l 114 1017 l 110 982 l 118 914 l 114 578 l 122 486 l 114 414 l 114 368 l 111 249 l 111 143 l 107 110 l 93 1 l 117 -8 l 181 1 l 175 106 l 175 174 l 172 194 l 168 275 l 165 346 l 238 378 l 407 472 l 543 643 l 543 658 l 582 688 l 636 833 l 650 951 l 660 983 l 593 1003 l 581 997 l 581 888 l 582 850 l 553 743 l 500 674 l 486 643 l 401 549 l 219 429 l 164 410 l 163 479 l 163 524 l 218 553 l 289 581 l 378 688 l 372 704 l 403 729 l 465 871 l 478 968 l 479 1000 l 419 1013 l 407 1007 l 407 921 l 406 883 l 369 781 l 329 717 l 308 686 l 275 644 l 200 596 l 163 590 l 163 632 l 172 747 l 172 811 l 176 885 l 176 892 l 183 933 l 190 1008 z m 354 953 l 336 969 b 325 967 333 969 328 967 l 318 988 l 304 1010 l 289 1011 b 264 982 282 1001 271 992 l 232 954 l 231 936 l 267 906 b 276 903 268 906 275 903 l 279 899 l 278 900 l 276 892 l 286 878 l 299 876 l 324 913 l 354 938 l 354 953 z "},"":{"ha":588,"x_min":0,"x_max":0,"o":"m 163 617 l 172 743 l 172 807 l 171 882 l 169 924 l 219 861 l 313 693 l 350 604 l 374 547 l 422 432 l 439 235 l 438 168 l 438 -6 l 449 -17 l 528 7 l 514 76 l 501 265 l 444 535 l 411 574 l 413 572 l 413 601 l 307 833 l 236 939 l 174 1014 l 154 1014 l 114 1008 l 104 974 l 118 910 l 114 563 l 122 460 l 114 410 l 114 364 l 111 244 l 111 139 l 107 106 l 88 -6 l 114 -15 l 181 -3 l 175 101 l 175 169 l 172 190 l 171 240 l 163 454 l 163 617 z "},"":{"ha":588,"x_min":0,"x_max":0,"o":"m 163 617 l 172 743 l 172 807 l 171 888 l 169 929 l 219 867 l 313 693 l 350 604 l 374 547 l 422 432 l 439 235 l 438 168 l 439 1 l 450 -10 l 528 4 l 514 76 l 501 265 l 444 535 l 411 574 l 413 572 l 413 601 l 307 833 l 236 944 l 174 1019 l 154 1019 l 114 1014 l 104 979 l 118 915 l 114 563 l 122 460 l 114 410 l 114 364 l 111 244 l 111 139 l 107 106 l 94 0 l 121 -10 l 181 -3 l 175 101 l 175 169 l 172 190 l 171 240 l 163 454 l 163 617 z m 285 267 l 276 208 l 275 38 l 271 -1 l 286 -1 l 310 -3 l 338 1 l 340 11 l 335 24 l 333 36 l 333 218 l 322 281 l 326 314 l 331 399 l 336 417 l 340 449 l 290 453 l 268 450 l 272 433 l 275 286 l 285 267 z "},"":{"ha":588,"x_min":0,"x_max":0,"o":"m 163 617 l 172 743 l 172 811 l 171 886 l 169 928 l 219 865 l 313 693 l 350 604 l 374 547 l 422 432 l 439 235 l 438 168 l 438 -3 l 449 -14 l 528 17 l 514 76 l 501 265 l 444 535 l 411 574 l 413 572 l 413 601 l 307 838 l 236 943 l 174 1018 l 154 1018 l 114 1013 l 104 978 l 118 914 l 114 563 l 122 460 l 114 410 l 114 364 l 111 244 l 111 139 l 107 106 l 90 1 l 117 -8 l 181 3 l 175 101 l 175 169 l 172 190 l 171 240 l 163 454 l 163 617 z m 365 296 l 347 313 b 336 310 344 313 339 310 l 329 331 l 315 353 l 300 354 b 275 325 293 344 282 335 l 243 297 l 242 279 l 278 249 b 288 246 279 249 286 246 l 290 242 l 289 243 l 288 235 l 297 221 l 310 219 l 335 256 l 365 281 l 365 296 z "},"":{"ha":588,"x_min":0,"x_max":0,"o":"m 163 617 l 172 743 l 172 807 l 171 886 l 169 928 l 219 861 l 313 693 l 350 604 l 374 547 l 422 432 l 439 235 l 438 168 l 438 1 l 449 -10 l 528 13 l 514 76 l 501 265 l 444 535 l 413 572 l 413 601 l 307 833 l 236 943 l 174 1018 l 154 1018 l 114 1013 l 104 978 l 118 914 l 114 563 l 122 460 l 114 410 l 114 364 l 111 244 l 111 139 l 107 106 l 93 1 l 119 -8 l 181 1 l 175 101 l 175 169 l 172 190 l 171 240 l 163 454 l 163 542 l 228 451 l 264 368 l 279 225 l 274 4 l 303 -7 l 351 -1 l 343 188 l 325 253 l 326 251 l 314 368 l 225 544 l 163 610 l 163 617 z "},"":{"ha":500,"x_min":0,"x_max":0,"o":"m 346 389 l 397 428 l 451 479 l 471 493 l 472 558 l 386 631 b 307 688 357 649 336 668 l 296 704 l 224 771 l 165 824 l 165 904 l 172 946 l 178 1014 l 126 1022 l 99 1015 l 104 982 l 111 701 l 117 468 l 131 464 l 114 435 l 113 264 l 113 121 l 94 -3 l 144 -7 l 176 -4 l 172 61 b 163 151 169 100 165 113 l 172 207 l 251 289 l 346 389 z m 167 356 l 161 568 l 169 714 l 174 732 l 335 596 l 364 564 l 408 525 l 401 510 l 344 446 l 239 336 b 179 294 219 324 199 308 b 167 300 179 294 171 297 l 168 346 l 167 356 z "},"":{"ha":500,"x_min":0,"x_max":0,"o":"m 346 389 l 397 428 l 451 479 l 471 493 l 472 558 l 386 631 b 307 688 357 649 336 668 l 296 704 l 224 771 l 165 824 l 165 904 l 172 946 l 178 1014 l 126 1022 l 99 1015 l 104 982 l 111 701 l 117 468 l 131 464 l 114 435 l 113 264 l 113 121 l 94 -3 l 144 -7 l 176 -4 l 172 61 b 163 151 169 100 165 113 l 172 207 l 251 289 l 346 389 z m 167 356 l 161 568 l 169 714 l 174 732 l 335 596 l 364 564 l 408 525 l 401 510 l 344 446 l 239 336 b 179 294 219 324 199 308 b 167 300 179 294 171 297 l 168 346 l 167 356 z m 322 522 l 304 539 b 293 536 301 539 296 536 l 286 557 l 272 579 l 257 581 b 232 551 250 571 239 561 l 200 524 l 199 506 l 235 475 b 244 472 236 475 243 472 l 247 468 l 246 469 l 244 461 l 254 447 l 267 446 l 292 482 l 322 507 l 322 522 z "},"":{"ha":492,"x_min":0,"x_max":0,"o":"m 119 535 l 118 418 l 118 243 l 122 206 l 111 104 l 111 53 l 111 -1 l 182 -6 l 190 -3 l 190 31 l 182 53 l 188 72 l 183 151 l 176 229 l 179 433 l 178 554 l 178 594 l 181 644 l 240 613 l 333 551 l 390 521 l 408 551 l 424 582 l 374 608 l 342 619 l 264 654 l 182 711 l 185 733 l 181 771 l 182 942 l 222 925 l 301 881 l 335 861 l 400 813 l 418 804 l 421 811 l 436 842 l 440 856 l 446 872 l 408 889 l 394 896 l 364 910 l 335 929 l 257 965 l 240 985 l 225 990 l 160 1031 l 133 1019 l 107 1010 l 111 942 l 128 892 l 119 844 l 119 813 l 122 646 l 122 613 l 138 594 l 119 535 z "},"":{"ha":475,"x_min":0,"x_max":0,"o":"m 189 938 l 219 911 l 279 871 l 313 835 l 367 831 l 425 919 l 475 989 l 456 1003 l 419 1017 l 393 961 l 340 888 l 288 925 l 254 951 l 238 971 l 222 976 l 188 1008 l 164 1026 l 138 1015 l 111 1008 l 115 940 l 131 890 l 122 843 l 119 811 l 122 644 l 122 611 l 140 593 l 119 533 l 118 444 l 118 243 l 122 206 l 114 104 l 113 53 l 113 -1 l 186 -6 l 196 -3 l 194 31 l 189 53 l 196 72 l 189 151 l 181 229 l 178 432 l 179 553 l 182 593 l 185 643 l 185 644 l 214 618 l 261 578 l 308 542 l 361 538 l 421 626 l 471 696 l 451 710 l 415 724 l 389 668 l 331 596 l 283 632 l 249 658 l 232 678 l 217 683 l 185 714 l 188 732 l 183 769 l 185 940 l 189 938 z "},"":{"ha":475,"x_min":0,"x_max":0,"o":"m 119 533 l 118 444 l 118 243 l 122 206 l 114 104 l 113 53 l 113 -1 l 186 -6 l 196 -3 l 194 31 l 189 53 l 196 72 l 189 151 l 181 229 l 178 432 l 179 553 l 182 593 l 185 643 l 244 617 l 338 556 l 396 525 l 413 556 l 428 586 l 378 613 l 346 625 l 268 658 l 185 710 l 188 732 l 183 769 l 185 940 l 226 918 l 285 881 l 332 844 l 385 846 l 425 928 l 475 996 l 456 1010 l 419 1024 l 393 968 l 350 907 l 301 933 l 261 958 l 244 978 l 229 983 l 164 1026 l 138 1015 l 111 1008 l 115 940 l 131 890 l 122 843 l 119 811 l 122 644 l 122 611 l 140 593 l 119 533 z "},"":{"ha":492,"x_min":0,"x_max":0,"o":"m 117 538 l 115 444 l 115 243 l 119 206 l 111 104 l 108 53 l 108 -1 l 182 -6 l 190 -3 l 190 31 l 183 53 l 190 72 l 183 151 l 176 229 l 175 460 l 176 557 l 172 597 l 179 647 l 240 615 l 333 554 l 390 524 l 408 554 l 424 585 l 374 611 l 342 622 l 264 657 l 181 714 l 182 736 l 176 774 l 181 944 l 219 928 l 301 882 l 335 865 l 400 815 l 418 807 l 421 814 l 436 844 l 440 858 l 446 878 l 408 894 l 364 914 l 335 933 l 257 965 l 240 982 l 225 993 l 161 1036 l 136 1019 l 107 1013 l 111 944 l 128 894 l 119 847 l 117 815 l 119 649 l 119 615 l 136 597 l 117 538 z "},"":{"ha":461,"x_min":0,"x_max":0,"o":"m 208 608 l 206 525 l 201 478 l 201 438 l 200 439 l 89 492 l 60 515 l 35 525 l 22 518 b 15 494 21 514 18 501 l -1 469 l 10 460 l 39 449 l 79 440 l 201 381 l 201 89 l 189 0 l 211 -1 l 238 -3 l 268 6 l 271 29 l 265 57 l 263 86 l 263 354 l 265 354 l 390 278 l 417 279 l 439 340 l 263 408 l 263 499 l 261 506 l 260 532 l 258 572 l 256 601 l 315 582 l 335 567 l 407 521 l 432 514 l 460 568 l 435 585 l 393 594 l 344 615 l 265 650 l 254 657 l 256 715 l 260 910 l 267 950 l 271 1021 l 215 1026 l 190 1025 l 194 986 l 199 685 l 85 750 l 53 772 l 32 747 l 26 733 l 15 713 l 26 706 l 65 690 l 103 682 l 206 625 l 208 608 z "},"":{"ha":483,"x_min":0,"x_max":0,"o":"m 119 290 l 111 101 l 111 -4 l 182 -8 l 190 -6 l 190 28 l 182 50 l 188 69 l 183 149 l 178 310 l 178 350 l 181 400 l 240 368 l 333 307 l 390 276 l 408 307 l 424 338 l 374 364 l 342 375 l 264 410 l 182 467 l 185 475 l 181 513 l 182 683 l 219 663 l 299 619 l 329 600 l 394 554 l 413 546 l 415 553 l 431 583 l 435 597 l 440 614 l 403 631 l 389 638 l 358 656 l 329 668 l 254 696 l 238 722 l 222 728 l 182 757 l 182 910 l 189 950 l 193 1021 l 138 1026 l 113 1019 l 117 981 l 121 767 l 118 765 l 122 697 l 128 647 l 119 600 l 119 568 l 122 401 l 122 368 l 138 350 l 119 290 z "},"":{"ha":474,"x_min":0,"x_max":0,"o":"m 335 346 l 343 368 l 343 401 l 346 568 l 346 600 l 338 647 l 343 697 l 347 765 l 344 767 l 349 979 l 353 1018 l 328 1025 l 272 1019 l 276 949 l 283 910 l 285 757 l 243 728 l 228 717 l 210 696 l 74 640 l 36 624 l 42 607 l 61 563 l 64 556 l 82 564 l 167 619 l 246 663 l 283 683 l 285 513 l 281 475 l 283 467 l 201 410 l 124 375 l 92 364 l 42 338 l 57 307 l 75 276 l 132 307 l 225 368 l 285 400 l 288 350 l 288 310 l 282 149 l 278 69 l 283 50 l 275 31 l 275 -3 l 283 -6 l 354 -1 l 354 101 l 346 290 l 335 346 z "},"":{"ha":483,"x_min":0,"x_max":0,"o":"m 267 626 l 371 682 l 410 690 l 449 706 l 460 713 l 449 733 l 443 747 l 422 772 l 390 750 l 275 685 l 279 986 l 283 1018 l 258 1025 l 203 1022 l 207 950 l 214 910 l 218 715 l 222 651 l 211 644 l 129 615 l 85 599 l 43 593 l 14 574 l 46 522 l 71 522 l 139 567 l 158 582 l 219 601 l 217 572 l 214 532 l 213 506 l 211 499 l 211 408 l 35 340 l 57 279 l 83 278 l 208 354 l 211 354 l 211 86 l 208 57 l 203 29 l 206 6 l 236 -3 l 263 -1 l 285 0 l 272 89 l 272 381 l 394 440 l 435 449 l 464 460 l 475 469 l 458 494 b 451 518 456 501 453 514 l 439 525 l 414 515 l 385 492 l 274 439 l 272 438 l 272 478 l 268 525 l 263 610 l 267 626 z "},"":{"ha":472,"x_min":0,"x_max":0,"o":"m 258 626 l 363 682 l 401 690 l 440 706 l 451 713 l 440 733 l 435 747 l 414 772 l 382 750 l 267 685 l 271 986 l 275 1018 l 250 1025 l 194 1022 l 199 950 l 206 910 l 210 715 l 214 651 l 203 644 l 121 615 l 76 599 l 35 593 l 6 574 l 38 522 l 63 522 l 131 567 l 150 582 l 211 601 l 208 572 l 206 532 l 204 506 l 203 499 l 203 408 l 26 340 l 49 279 l 75 278 l 200 354 l 203 354 l 203 86 l 200 57 l 194 29 l 197 6 l 228 -3 l 254 -1 l 276 0 l 264 89 l 264 381 l 264 478 l 260 525 l 254 610 l 258 626 z "},"":{"ha":550,"x_min":0,"x_max":0,"o":"m 224 460 l 229 435 l 253 394 l 306 311 l 319 278 l 375 175 l 394 139 l 446 13 l 460 -14 l 524 17 l 529 39 l 486 89 l 456 149 l 436 182 l 424 193 l 419 224 l 369 308 l 331 364 l 325 389 l 289 457 l 346 522 l 375 568 l 425 618 l 486 694 l 483 760 l 436 801 l 424 804 l 394 838 l 171 1042 l 106 1018 l 111 911 l 124 614 l 119 340 l 121 300 l 122 279 l 122 260 l 113 197 l 106 1 l 158 -3 l 185 6 l 183 96 l 171 121 l 169 121 l 179 126 l 174 261 l 179 383 l 169 506 l 176 574 l 174 692 l 167 715 l 167 751 l 176 911 l 175 933 l 175 956 l 211 928 l 231 925 l 243 901 l 364 788 l 376 778 l 425 722 l 421 715 l 397 667 l 335 592 l 224 460 z "},"":{"ha":356,"x_min":0,"x_max":0,"o":"m 125 606 l 128 593 l 89 572 l 40 525 l 40 482 l 49 475 l 124 404 l 136 401 l 174 354 l 225 324 l 225 304 l 231 289 l 261 257 l 293 278 l 311 311 l 278 336 l 204 400 l 190 411 l 101 507 l 186 590 l 229 636 l 257 656 l 314 706 l 304 722 l 263 749 l 215 700 l 218 699 l 153 632 l 125 606 z "},"":{"ha":428,"x_min":0,"x_max":0,"o":"m 119 290 l 111 101 l 111 -4 l 182 -8 l 190 -6 l 190 28 l 182 50 l 188 74 l 183 181 l 181 188 l 240 136 l 329 35 l 371 -11 l 393 18 l 417 47 l 374 79 l 342 107 l 264 178 l 182 264 l 185 272 l 181 513 l 182 910 l 189 950 l 193 1021 l 138 1026 l 113 1019 l 117 981 l 121 767 l 118 765 l 122 697 l 128 647 l 119 600 l 119 568 l 122 401 l 122 368 l 138 350 l 119 290 z "},"":{"ha":585,"x_min":0,"x_max":0,"o":"m 188 1004 l 179 1017 l 157 1017 l 114 1011 l 110 976 l 118 910 l 114 574 l 122 482 l 114 410 l 114 364 l 111 244 l 111 139 l 107 106 l 88 -6 l 114 -15 l 181 -3 l 175 101 l 175 169 l 172 190 l 168 271 l 163 454 l 204 474 l 339 556 l 458 700 l 454 715 l 486 743 l 529 871 l 540 975 l 549 1003 l 483 1017 l 474 1013 l 474 918 l 475 885 l 449 793 l 418 732 l 396 704 l 326 622 l 189 518 l 163 508 l 163 628 l 172 743 l 172 807 l 174 882 l 174 889 l 181 931 l 188 1004 z "},"":{"ha":585,"x_min":0,"x_max":0,"o":"m 188 1004 l 179 1017 l 157 1017 l 114 1011 l 110 976 l 118 910 l 114 574 l 122 482 l 114 410 l 114 364 l 111 244 l 111 139 l 107 106 l 88 -6 l 114 -15 l 181 -3 l 175 101 l 175 169 l 172 190 l 168 271 l 163 454 l 204 474 l 339 556 l 458 700 l 454 715 l 486 743 l 529 871 l 540 975 l 549 1003 l 483 1017 l 474 1013 l 474 918 l 475 885 l 449 793 l 418 732 l 396 704 l 326 622 l 189 518 l 163 508 l 163 628 l 172 743 l 172 807 l 174 882 l 174 889 l 181 931 l 188 1004 z m 385 951 l 367 968 b 356 965 364 968 358 965 l 349 986 l 335 1008 l 319 1010 b 294 981 313 1000 301 990 l 263 953 l 261 935 l 297 904 b 307 901 299 904 306 901 l 310 897 l 308 899 l 307 890 l 317 876 l 329 875 l 354 911 l 385 936 l 385 951 z "},"":{"ha":585,"x_min":0,"x_max":0,"o":"m 188 1004 l 179 1017 l 157 1017 l 114 1011 l 110 976 l 118 910 l 114 574 l 115 557 b 99 536 108 550 103 543 l 50 497 l 49 471 l 101 426 b 115 424 103 426 110 424 l 114 410 l 114 364 l 111 244 l 111 139 l 107 106 l 88 -6 l 114 -15 l 181 -3 l 175 101 l 175 169 l 172 190 l 168 271 l 164 408 l 183 436 l 228 472 l 228 488 l 339 556 l 458 700 l 454 715 l 486 743 l 529 871 l 540 975 l 549 1003 l 483 1017 l 474 1013 l 474 918 l 475 885 l 449 793 l 418 732 l 396 704 l 326 622 l 189 518 l 189 524 l 175 544 l 163 565 l 163 628 l 172 743 l 172 807 l 174 882 l 174 889 l 181 931 l 188 1004 z "},"":{"ha":558,"x_min":0,"x_max":0,"o":"m 58 56 l 42 13 l 86 -6 l 114 -12 l 125 11 l 165 160 l 201 249 l 281 456 l 389 168 l 400 161 l 399 161 l 397 128 l 431 35 l 431 17 l 444 -12 l 513 10 l 510 43 l 492 71 l 442 189 l 426 214 l 386 336 l 340 443 l 314 533 l 336 594 l 403 750 l 463 885 l 463 906 l 461 906 l 471 914 l 517 1011 l 461 1035 l 456 1035 l 443 1032 l 433 985 l 424 939 l 376 819 l 360 761 l 322 675 l 288 593 l 236 713 l 218 757 l 210 776 l 194 838 l 161 915 l 131 1033 l 79 1026 l 53 1010 l 113 871 l 131 856 l 124 842 l 189 690 l 206 644 l 225 597 l 251 532 l 200 383 l 175 311 l 172 311 l 133 224 l 103 143 l 58 56 z "},"":{"ha":558,"x_min":0,"x_max":0,"o":"m 58 56 l 42 13 l 86 -6 l 114 -12 l 125 11 l 165 160 l 201 249 l 281 456 l 389 168 l 400 161 l 399 161 l 397 128 l 431 35 l 431 17 l 444 -12 l 513 10 l 510 43 l 492 71 l 442 189 l 426 214 l 388 329 l 408 349 l 443 396 l 456 399 l 525 471 l 532 478 l 532 521 l 488 568 l 451 590 l 454 603 l 428 629 l 375 686 l 403 750 l 463 885 l 463 906 l 461 906 l 471 914 l 517 1011 l 461 1035 l 456 1035 l 443 1032 l 433 985 l 424 939 l 376 819 l 360 761 l 322 675 l 288 593 l 236 713 l 218 757 l 208 764 l 210 776 l 194 838 l 161 915 l 131 1033 l 79 1026 l 53 1010 l 113 871 l 131 856 l 124 842 l 188 693 l 129 629 l 103 603 l 106 590 l 69 568 l 25 521 l 25 478 l 32 471 l 101 399 l 114 396 l 149 349 l 178 321 l 175 311 l 172 311 l 133 224 l 103 143 l 58 56 z m 164 406 l 75 503 l 160 588 l 200 633 l 207 639 l 225 597 l 251 532 l 200 385 l 196 375 l 176 394 l 164 406 z m 357 632 l 397 586 l 481 503 l 393 406 l 381 394 l 367 381 l 340 443 l 314 533 l 336 593 l 353 633 l 357 632 z "},"":{"ha":507,"x_min":0,"x_max":0,"o":"m 301 496 l 344 543 l 375 572 l 403 603 l 429 633 l 478 676 l 482 743 l 381 836 l 317 888 l 303 913 l 172 1036 l 157 1033 l 114 1011 l 117 940 l 119 911 l 122 875 l 122 654 l 131 656 l 119 632 l 118 260 l 125 225 l 110 0 l 158 -4 l 188 -1 l 178 175 l 165 178 l 167 178 l 178 193 l 178 219 l 175 324 l 192 365 l 263 443 l 301 496 z m 178 532 l 175 643 l 175 675 l 174 708 l 172 775 l 181 924 l 183 944 l 292 839 l 310 835 l 314 821 l 333 803 l 385 753 l 422 715 l 422 708 l 421 700 l 376 651 l 367 639 l 338 601 l 292 550 l 249 506 l 183 440 l 181 439 l 176 458 l 179 514 l 178 532 z "},"":{"ha":653,"x_min":0,"x_max":0,"o":"m 524 417 l 532 583 l 525 732 l 535 824 l 535 829 l 540 919 l 536 954 l 542 982 l 547 1010 l 532 1026 l 465 1018 l 471 943 l 481 875 l 479 771 l 481 711 l 471 539 l 469 500 l 353 553 l 332 551 l 306 561 l 282 578 l 272 578 l 185 635 l 176 685 l 181 825 l 183 963 l 189 1010 l 183 1022 l 151 1021 l 111 1018 l 110 986 l 118 901 l 125 775 l 131 640 l 125 569 l 122 540 l 118 272 l 115 82 l 107 42 l 106 1 l 119 -1 l 178 -1 l 185 15 l 175 103 l 168 135 l 179 153 l 179 464 l 186 483 l 188 561 l 311 514 l 318 514 l 460 442 l 469 438 l 468 428 l 476 167 l 478 161 l 469 81 l 463 14 l 465 -1 l 486 -4 l 544 1 l 543 38 l 538 208 l 524 417 z "},"":{"ha":650,"x_min":0,"x_max":0,"o":"m 522 357 l 531 535 l 524 690 l 533 782 l 533 829 l 539 919 l 535 954 l 546 1010 l 531 1026 l 464 1018 l 469 943 l 479 875 l 478 729 l 479 669 l 476 590 l 318 661 l 178 744 l 179 825 l 182 963 l 188 1010 l 182 1022 l 150 1021 l 110 1018 l 108 986 l 117 901 l 124 740 l 129 619 l 124 535 l 121 506 l 117 272 l 114 82 l 106 42 l 104 1 l 118 -1 l 176 -1 l 183 15 l 174 103 l 167 135 l 178 153 l 178 332 l 185 365 l 186 443 l 310 386 l 317 386 l 458 313 l 468 308 l 467 299 l 475 167 l 476 161 l 468 81 l 461 14 l 464 -1 l 485 -4 l 543 1 l 542 38 l 536 204 l 522 357 z m 468 371 l 351 428 l 281 451 l 219 493 l 181 517 l 175 567 l 176 671 l 335 604 l 474 528 l 469 410 l 468 371 z "},"":{"ha":469,"x_min":0,"x_max":0,"o":"m 19 649 l 11 624 l 139 563 l 190 533 l 124 500 l 79 478 l 38 465 l 8 446 l 40 393 l 65 400 l 133 451 l 153 467 l 214 499 l 211 465 l 206 301 l 206 86 l 203 57 l 197 29 l 200 6 l 231 -3 l 257 -1 l 279 0 l 267 89 l 267 274 l 257 496 l 296 474 l 378 411 l 425 383 l 453 418 l 461 440 l 376 483 l 282 533 l 365 585 l 404 601 l 443 617 l 454 624 l 443 644 l 438 658 l 417 683 l 385 661 l 265 578 l 264 754 l 274 986 l 278 1018 l 253 1025 l 197 1022 l 201 950 l 208 910 l 213 608 l 215 571 l 156 604 l 40 681 l 19 649 z "},"":{"ha":326,"x_min":0,"x_max":0,"o":"m 258 535 l 229 560 l 213 568 l 201 588 l 189 606 l 188 640 l 190 715 l 194 910 l 201 950 l 206 1021 l 150 1032 l 125 1025 l 129 986 l 139 654 l 142 610 l 142 604 l 118 579 l 69 536 l 68 508 l 124 461 l 138 457 l 139 456 l 139 446 l 138 440 l 139 438 l 136 89 l 124 0 l 146 -1 l 172 -3 l 203 6 l 206 29 l 200 57 l 197 86 l 194 449 l 211 472 l 258 510 l 258 535 z "},"":{"ha":472,"x_min":0,"x_max":0,"o":"m 208 613 l 208 574 l 176 593 l 85 654 l 76 663 l 49 683 l 40 686 l 28 672 l 17 640 l 18 611 l 29 613 l 74 597 l 72 597 l 186 528 l 207 519 l 207 483 l 204 369 l 217 357 l 204 335 l 204 89 l 189 3 l 215 1 l 240 0 l 271 10 l 274 31 l 265 86 l 263 492 l 365 419 l 411 382 l 433 383 l 456 443 l 417 458 l 342 496 l 275 532 l 260 540 l 257 642 l 258 715 l 263 896 l 269 935 l 278 1001 l 219 1014 l 193 1007 l 197 969 l 203 656 l 208 613 z "},"":{"ha":403,"x_min":0,"x_max":0,"o":"m 133 613 l 133 574 l 132 519 l 132 483 l 129 369 l 142 357 l 129 335 l 129 89 l 114 3 l 140 1 l 165 0 l 196 10 l 199 31 l 190 86 l 188 492 l 290 419 l 336 382 l 358 383 l 381 443 l 342 458 l 267 496 l 200 532 l 185 540 l 182 642 l 183 715 l 188 896 l 194 935 l 203 1001 l 144 1014 l 118 1007 l 122 969 l 128 656 l 133 613 z "},"":{"ha":474,"x_min":0,"x_max":0,"o":"m 15 649 l 11 624 l 139 560 l 154 551 l 149 546 l 147 521 l 197 478 b 211 474 200 478 210 474 l 211 472 l 211 465 l 206 301 l 206 86 l 203 57 l 197 29 l 200 6 l 231 -3 l 257 -1 l 279 0 l 267 89 l 267 274 l 258 461 l 276 485 l 296 474 l 378 411 l 425 383 l 453 418 l 461 440 l 376 483 l 314 517 l 321 522 l 321 544 l 294 568 b 279 564 292 568 283 564 l 269 593 l 265 600 l 264 754 l 274 986 l 278 1018 l 253 1025 l 197 1022 l 201 950 l 208 910 l 213 608 l 213 607 l 193 585 l 192 583 l 156 604 l 40 688 l 15 649 z "},"":{"ha":301,"x_min":0,"x_max":0,"o":"m 132 610 l 126 525 l 122 478 l 122 89 l 110 0 l 132 -1 l 158 -3 l 189 6 l 192 29 l 186 57 l 183 86 l 183 499 l 182 506 l 181 532 l 178 572 l 172 640 l 176 715 l 181 910 l 188 950 l 192 1021 l 136 1032 l 111 1025 l 115 986 l 121 654 l 132 610 z "},"":{"ha":326,"x_min":0,"x_max":0,"o":"m 261 535 l 232 565 l 213 574 l 201 593 l 189 611 l 188 646 l 190 715 l 194 910 l 201 950 l 206 1021 l 150 1032 l 125 1025 l 129 986 l 139 660 l 142 615 l 142 610 l 118 585 l 67 536 l 65 508 l 124 453 l 138 449 l 139 447 l 139 438 l 138 432 l 139 429 l 136 89 l 124 0 l 146 -1 l 172 -3 l 203 6 l 206 29 l 200 57 l 197 86 l 194 440 l 211 464 l 261 510 l 261 535 z "},"":{"ha":635,"x_min":0,"x_max":0,"o":"m 513 533 l 532 561 l 540 558 l 574 582 l 597 599 l 597 639 l 596 647 l 533 697 l 501 715 l 501 714 l 454 758 l 376 835 l 378 835 l 374 843 l 333 882 l 319 885 l 276 843 l 293 813 l 326 793 l 349 785 l 349 786 l 410 733 l 432 721 l 432 722 l 525 628 l 519 614 l 438 528 l 356 457 l 333 436 l 285 410 l 314 372 l 354 353 l 378 393 l 415 436 l 414 436 l 467 494 l 513 533 z m 135 489 l 104 464 l 74 432 l 51 419 l 50 383 l 51 375 l 110 332 l 125 310 l 144 310 l 190 271 l 294 174 l 293 174 l 308 151 l 325 149 l 372 201 l 339 219 l 296 239 l 242 290 l 119 401 l 124 414 l 122 414 l 208 499 l 208 497 l 314 578 l 350 606 l 336 638 l 288 658 l 258 622 l 238 586 l 176 528 l 135 489 z "},"":{"ha":421,"x_min":0,"x_max":0,"o":"m 306 635 l 242 700 l 240 699 l 242 715 l 246 910 l 253 950 l 257 1021 l 201 1025 l 176 1018 l 181 986 l 185 693 l 179 700 l 117 635 l 89 608 l 92 596 l 54 574 l 7 526 l 7 483 l 14 476 l 88 404 l 100 401 l 136 354 l 182 314 l 186 303 l 189 294 l 189 89 l 176 0 l 199 -1 l 224 -3 l 254 6 l 257 29 l 251 57 l 249 86 l 249 321 l 286 354 l 322 401 l 335 404 l 408 476 l 415 483 l 415 526 l 368 574 l 331 596 l 333 608 l 306 635 z m 193 610 l 192 486 l 189 439 l 189 371 l 165 394 l 153 411 l 54 508 l 149 593 l 189 638 l 193 610 z m 274 593 l 365 508 l 269 406 l 257 394 l 249 386 l 249 460 l 247 467 l 246 493 l 243 572 l 238 632 l 274 593 z m 178 703 l 179 700 l 181 701 l 178 703 z m 242 701 l 242 700 l 244 703 l 242 701 z "},"":{"ha":476,"x_min":0,"x_max":0,"o":"m 268 529 l 372 585 l 411 593 l 450 608 l 461 615 l 450 636 l 444 650 l 424 675 l 392 653 l 276 588 l 281 986 l 285 1018 l 260 1025 l 204 1022 l 208 950 l 215 910 l 219 618 l 224 554 l 213 547 l 131 504 l 86 488 l 44 474 l 15 454 l 47 403 l 72 403 l 140 456 l 160 476 l 221 504 l 218 475 l 215 435 l 214 408 l 213 401 l 213 86 l 210 57 l 204 29 l 207 6 l 238 -3 l 264 -1 l 286 0 l 274 89 l 274 381 l 269 428 l 264 513 l 268 529 z "},"":{"ha":394,"x_min":0,"x_max":0,"o":"m 265 529 l 271 588 l 275 986 l 279 1018 l 254 1025 l 199 1022 l 203 950 l 210 910 l 214 625 l 218 592 l 207 585 l 125 517 l 81 488 l 39 469 l 10 450 l 42 390 l 67 399 l 135 461 l 154 483 l 215 522 l 213 493 l 210 435 l 208 408 l 207 401 l 207 86 l 204 57 l 199 29 l 201 6 l 232 -3 l 258 -1 l 281 0 l 268 89 l 268 381 l 264 428 l 261 513 l 265 529 z "},"":{"ha":489,"x_min":0,"x_max":0,"o":"m 264 558 l 264 651 l 251 708 l 261 731 l 268 769 l 271 939 l 376 875 l 446 817 l 472 850 l 482 878 l 410 913 l 344 954 l 329 971 l 314 976 l 249 1021 l 221 1004 l 199 997 l 204 932 l 215 885 l 208 808 l 211 613 l 221 594 l 215 351 l 221 296 l 213 272 l 217 235 l 214 56 l 133 110 l 53 178 l 38 185 l 14 147 l 6 119 l 72 83 l 100 76 l 142 44 l 158 26 l 172 21 l 236 -22 l 283 3 l 271 118 l 276 194 l 269 386 l 260 404 l 268 440 l 264 558 z "},"":{"ha":508,"x_min":0,"x_max":0,"o":"m 118 539 l 117 428 l 117 235 l 121 197 l 113 100 l 111 64 l 111 31 l 110 7 l 136 0 l 163 -12 l 222 39 l 244 67 l 279 94 l 314 115 l 389 43 l 424 -11 l 472 36 l 469 54 l 406 93 l 367 139 l 331 179 l 300 174 l 225 101 l 181 61 l 181 82 l 176 221 l 181 442 l 179 558 l 183 708 l 171 735 l 182 767 l 183 931 l 264 872 l 303 835 l 343 826 l 374 863 l 481 960 l 486 979 l 433 1018 l 388 953 l 324 888 l 278 924 l 257 936 l 240 957 l 228 964 l 163 1013 l 136 1001 l 110 994 l 114 929 l 129 882 l 118 806 l 121 646 l 121 614 l 139 596 l 118 539 z "},"":{"ha":556,"x_min":0,"x_max":0,"o":"m 254 560 l 249 510 l 244 463 l 244 388 l 256 365 l 244 346 l 244 89 l 232 3 l 256 -1 l 283 -3 l 313 7 l 315 31 l 307 86 l 307 483 l 297 589 l 301 626 l 301 646 l 335 692 l 540 929 l 522 963 l 489 982 l 432 910 l 433 889 l 406 863 l 332 749 l 303 715 l 304 882 l 308 938 l 317 1004 l 261 1017 l 235 1010 l 239 972 l 243 726 l 150 856 l 79 954 l 71 969 l 54 978 l 14 933 l 25 910 l 114 817 l 200 713 l 242 647 l 243 604 l 254 560 z "},"":{"ha":454,"x_min":0,"x_max":0,"o":"m 160 869 l 161 857 l 106 831 l 42 779 l 42 729 l 51 722 l 157 639 l 175 635 l 294 540 l 321 525 l 288 499 l 193 422 l 156 392 l 160 378 l 104 353 l 38 297 l 38 250 l 47 242 l 147 169 l 175 156 l 217 111 l 283 65 l 346 -8 l 381 14 l 403 51 l 365 81 l 264 154 l 233 167 l 110 278 l 228 374 l 289 426 l 342 467 l 386 500 l 385 551 l 367 564 l 246 646 l 106 758 l 226 854 l 285 906 l 331 929 l 399 975 l 388 1000 l 354 1036 l 288 978 l 194 900 l 160 869 z "},"":{"ha":625,"x_min":0,"x_max":0,"o":"m 350 582 l 293 532 l 178 439 l 181 747 l 171 771 l 181 799 l 182 986 l 186 1018 l 161 1025 l 106 1022 l 110 950 l 117 771 l 121 469 l 117 360 l 174 353 l 274 460 l 343 517 l 343 518 l 446 601 l 444 460 l 456 422 l 443 388 l 442 40 l 438 8 l 463 1 l 518 4 l 514 76 l 507 117 l 506 263 l 507 343 l 503 571 l 506 681 l 451 690 l 350 582 z "},"":{"ha":283,"x_min":0,"x_max":0,"o":"m 169 540 l 172 560 l 172 604 l 171 786 l 178 915 l 168 922 l 178 936 l 182 1015 l 157 1022 l 101 1018 l 106 929 l 113 889 l 114 789 l 113 590 l 107 543 l 131 535 l 169 540 z "},"":{"ha":278,"x_min":0,"x_max":0,"o":"m 224 538 l 199 560 l 183 560 l 174 585 l 169 590 l 169 604 l 168 786 l 175 915 l 165 922 l 175 936 l 179 1015 l 154 1022 l 99 1018 l 103 929 l 110 889 l 111 789 l 110 590 l 108 588 l 100 576 l 56 539 l 54 514 l 104 472 l 119 464 l 117 453 l 131 435 l 147 432 l 182 482 l 224 517 l 224 538 z "},"":{"ha":500,"x_min":0,"x_max":0,"o":"m 450 654 l 469 675 l 481 683 l 463 710 l 438 733 l 428 733 l 404 696 l 369 646 l 288 567 l 282 661 l 286 931 l 292 1008 l 281 1024 l 249 1021 l 215 1018 l 222 943 l 226 826 l 225 660 l 226 585 l 221 563 l 129 657 l 114 668 l 71 733 l 56 735 l 25 704 l 19 688 l 128 590 l 226 490 l 278 486 l 397 613 l 450 654 z "},"":{"ha":510,"x_min":0,"x_max":0,"o":"m 401 903 l 282 1029 l 231 1025 l 132 925 l 24 828 l 29 811 l 56 779 l 82 782 l 118 847 l 133 858 b 225 951 164 885 196 926 b 231 929 226 942 229 938 b 229 856 231 906 229 879 l 219 746 b 231 694 222 729 228 711 l 221 551 l 224 422 l 221 222 b 222 196 221 214 222 204 l 210 79 l 213 1 l 249 -4 l 285 -7 l 307 8 b 288 92 301 36 293 65 l 286 425 l 289 503 l 289 617 l 285 700 b 286 854 285 751 286 803 l 292 949 l 374 869 l 408 819 l 436 778 l 467 806 l 485 832 l 474 840 l 454 861 l 401 903 z "},"":{"ha":422,"x_min":0,"x_max":0,"o":"m 297 1022 l 235 1025 l 131 926 l 0 824 l 6 807 l 32 772 l 58 778 l 114 851 l 132 860 l 233 951 l 235 929 l 233 856 l 224 746 l 235 694 l 225 551 l 228 422 l 225 222 l 226 196 l 214 79 l 217 1 l 253 -4 l 289 -7 l 311 8 l 292 92 l 290 425 l 293 503 l 293 617 l 289 700 l 290 854 l 296 949 l 297 1022 z "},"":{"ha":426,"x_min":0,"x_max":0,"o":"m 176 490 l 231 444 l 247 428 l 247 425 l 250 229 l 243 151 l 239 72 l 244 53 l 236 31 l 236 -3 l 244 -6 l 315 -1 l 315 104 l 304 206 l 308 243 l 308 436 l 315 440 l 371 489 l 369 515 l 319 563 l 299 596 l 304 613 l 304 646 l 307 813 l 307 844 l 299 892 l 315 942 l 319 1010 l 293 1017 l 267 1028 l 201 979 l 189 974 l 172 954 l 110 908 l 83 888 l 10 843 l 42 793 l 65 794 l 110 840 l 135 857 l 204 914 l 244 942 l 246 771 l 242 733 l 244 711 l 246 644 l 243 594 l 243 581 l 239 579 l 228 558 l 213 549 l 176 513 l 176 490 z "},"":{"ha":535,"x_min":0,"x_max":0,"o":"m 290 60 l 313 79 l 336 100 l 388 139 l 446 188 l 497 243 l 507 307 l 494 321 l 354 444 l 322 471 l 276 513 l 272 518 l 393 628 l 475 718 l 479 779 l 465 790 l 374 865 l 188 1035 l 107 1003 l 110 951 l 113 935 l 117 918 l 113 863 l 118 697 l 124 536 l 115 463 l 115 244 l 121 172 l 108 -4 l 153 -14 l 199 -26 l 290 60 z m 250 460 l 344 376 l 382 339 l 414 306 l 443 275 l 429 258 l 424 246 l 371 188 l 349 175 l 308 132 l 189 42 l 188 42 l 179 86 l 181 183 l 167 224 l 179 232 l 178 417 l 172 489 l 179 589 l 171 606 l 169 647 l 168 690 l 174 769 l 174 860 l 175 950 l 176 960 l 179 960 l 332 826 l 365 793 l 419 746 l 419 740 l 364 681 l 344 644 l 328 643 l 214 536 l 211 489 l 250 460 z "},"":{"ha":504,"x_min":0,"x_max":0,"o":"m 139 411 l 121 393 l 124 363 l 122 201 l 126 169 l 129 125 l 114 78 l 110 1 l 138 -6 l 200 6 l 197 79 l 183 201 l 179 275 l 183 407 l 242 454 l 257 472 l 375 560 l 404 581 l 463 606 l 458 624 l 449 647 l 435 668 l 432 675 l 410 664 l 335 593 l 303 572 l 224 501 l 181 475 l 174 639 l 176 658 l 179 682 l 264 757 l 379 846 l 413 878 l 413 876 l 465 903 l 457 942 l 432 975 l 375 922 l 240 786 l 181 744 l 179 843 l 186 869 l 186 965 l 188 1014 l 179 1017 l 106 1011 l 108 971 l 111 924 l 121 810 l 117 774 l 117 579 l 118 468 l 139 411 z "},"":{"ha":544,"x_min":0,"x_max":0,"o":"m 292 65 l 314 85 l 338 106 l 389 144 l 447 193 l 499 249 l 508 313 l 496 326 l 356 450 l 324 476 l 278 518 l 274 524 l 394 633 l 476 724 l 481 785 l 467 796 l 375 871 l 189 1040 l 108 1008 l 111 957 l 114 940 l 118 924 l 114 868 l 119 703 l 125 542 l 117 468 l 117 250 l 122 178 l 110 1 l 154 -8 l 200 -21 l 292 65 z m 251 465 l 346 382 l 383 344 l 415 311 l 444 281 l 431 264 l 425 251 l 372 193 l 350 181 l 310 138 l 190 47 l 189 47 l 181 92 l 182 189 l 168 229 l 181 238 l 179 422 l 174 494 l 181 594 l 172 611 l 171 653 l 169 696 l 175 775 l 175 865 l 176 956 l 178 965 l 181 965 l 333 832 l 367 799 l 421 751 l 421 746 l 365 686 l 346 650 l 329 649 l 215 542 l 213 494 l 251 465 z m 338 756 l 319 772 b 308 769 317 772 311 769 l 301 790 l 288 813 l 272 814 b 247 785 265 804 254 794 l 215 757 l 214 739 l 250 708 b 260 706 251 708 258 706 l 263 701 l 261 703 l 260 694 l 269 681 l 282 679 l 307 715 l 338 740 l 338 756 z m 340 300 l 322 317 b 311 314 319 317 314 314 l 304 335 l 290 357 l 275 358 b 250 329 268 349 257 339 l 218 301 l 217 283 l 253 253 b 263 250 254 253 261 250 l 265 246 l 264 247 l 263 239 l 272 225 l 285 224 l 310 260 l 340 285 l 340 300 z "},"":{"ha":578,"x_min":0,"x_max":0,"o":"m 363 315 l 269 496 l 250 525 l 263 560 l 378 758 l 372 765 l 385 779 l 450 882 l 489 940 l 533 988 l 517 1006 l 456 1031 l 421 942 l 347 800 l 263 656 l 246 619 l 231 606 l 201 553 l 185 513 l 218 456 l 267 372 l 272 374 l 279 374 l 278 353 l 314 288 l 325 267 l 328 246 l 417 78 l 454 -11 l 481 -15 l 539 26 l 497 85 l 476 99 l 478 99 l 476 117 l 424 207 l 363 315 z m 101 1018 l 107 982 l 113 947 l 110 828 l 117 642 l 119 599 l 124 556 l 118 228 l 117 222 l 115 201 l 110 124 l 124 89 l 125 89 l 106 83 l 103 -3 l 146 -4 l 185 -1 l 186 35 l 182 56 l 179 79 l 178 153 l 172 226 l 178 496 l 164 596 l 169 678 l 186 1021 l 167 1026 l 101 1018 z "},"":{"ha":651,"x_min":0,"x_max":0,"o":"m 210 922 l 150 1028 l 138 1025 l 93 1017 l 94 974 l 100 951 l 106 931 l 99 903 l 104 838 l 110 767 l 101 175 l 103 133 l 113 131 l 101 119 l 100 113 l 99 71 l 90 18 l 94 -3 l 172 0 l 175 24 l 163 242 l 150 419 l 160 488 l 160 675 l 149 682 l 158 697 l 163 806 l 161 817 l 161 853 l 156 904 l 157 906 l 174 883 l 189 864 l 208 828 l 268 725 l 285 700 l 296 660 l 329 653 l 339 650 l 363 700 l 361 700 l 376 725 l 382 735 l 393 760 l 428 817 l 474 883 l 486 906 l 489 908 l 490 828 l 494 742 l 485 418 l 494 347 l 499 338 l 492 317 l 492 140 l 482 40 l 479 4 l 488 -4 l 561 -1 l 557 54 l 554 106 l 539 764 l 533 785 l 540 825 l 550 1015 l 535 1028 l 496 1029 l 464 974 l 433 919 l 435 919 l 429 917 l 419 890 l 374 811 l 333 750 l 325 736 l 319 724 l 313 736 l 307 751 l 293 782 l 289 786 l 210 922 z "},"":{"ha":668,"x_min":0,"x_max":0,"o":"m 399 651 l 497 539 l 506 519 l 503 410 l 511 340 l 519 325 l 508 307 l 513 135 l 506 35 l 504 4 l 511 -4 l 581 -1 l 574 100 l 567 381 l 565 481 l 551 519 l 556 750 l 553 769 l 558 810 l 569 989 l 554 1006 l 514 1017 l 453 939 l 436 913 l 388 853 l 347 796 l 332 790 l 304 828 l 225 919 l 146 1014 l 115 1000 l 90 993 l 90 956 l 99 915 l 94 889 l 107 753 l 107 593 l 101 500 l 96 169 l 96 133 l 115 126 l 96 104 l 93 65 l 88 14 l 90 -3 l 163 0 l 167 19 l 157 235 l 146 411 l 156 476 l 156 492 l 235 589 l 339 708 l 399 651 z m 236 653 l 157 590 l 156 592 l 156 840 l 147 847 l 154 858 l 151 907 l 157 910 l 197 876 l 211 868 l 224 850 l 290 774 l 306 750 l 236 653 z m 432 826 l 497 903 l 497 901 l 504 910 l 513 728 l 508 615 l 504 614 l 404 701 l 371 746 l 372 753 l 432 826 z "},"":{"ha":663,"x_min":0,"x_max":0,"o":"m 372 1004 l 364 1015 l 342 1015 l 299 1013 l 294 983 l 303 924 l 299 689 l 283 686 l 218 728 l 176 754 l 164 783 l 133 836 l 117 901 l 115 933 l 117 1007 l 104 1013 l 38 1004 l 44 975 l 57 890 l 93 792 l 117 769 l 108 756 l 200 672 l 265 640 l 299 631 l 307 482 l 299 410 l 299 364 l 296 244 l 296 139 l 292 106 l 272 -6 l 299 -15 l 365 -3 l 360 101 l 360 169 l 357 190 l 353 271 l 347 628 l 403 649 l 475 674 l 554 758 l 546 772 l 571 794 l 614 890 l 626 975 l 635 1000 l 567 1013 l 554 1008 l 556 933 l 554 901 l 528 836 l 497 783 l 486 757 l 449 721 l 385 694 l 347 690 l 347 719 l 357 804 l 357 835 l 358 900 l 358 906 l 365 942 l 372 1004 z "},"":{"ha":304,"x_min":0,"x_max":0,"o":"m 251 931 l 222 958 b 203 961 217 958 208 961 l 192 992 l 174 1022 l 139 1025 b 101 982 128 1010 113 999 l 49 933 l 46 903 l 106 847 b 122 843 108 847 119 843 l 124 842 l 124 838 l 122 831 l 124 828 l 121 746 l 126 694 l 117 551 l 119 422 l 117 222 l 118 196 l 106 79 l 108 1 l 144 -4 l 181 -7 l 203 8 l 183 92 l 182 425 l 185 503 l 185 617 l 181 700 l 182 832 l 201 860 l 251 906 l 251 931 z "},"":{"ha":454,"x_min":0,"x_max":0,"o":"m 119 561 l 118 444 l 118 243 l 122 206 l 114 104 l 113 53 l 113 -1 l 186 -6 l 194 -3 l 194 31 l 192 53 l 199 72 l 189 151 l 181 229 l 183 460 l 182 581 l 182 621 l 185 649 l 186 708 l 189 732 l 185 769 l 186 940 l 219 910 l 292 847 l 322 824 l 374 767 l 392 764 l 424 801 l 431 817 l 394 838 l 371 849 l 356 869 l 329 892 l 258 946 l 229 974 l 164 1028 l 138 1017 l 111 1008 l 115 940 l 131 890 l 122 843 l 119 811 l 122 644 l 122 639 l 140 621 l 119 561 z "},"":{"ha":478,"x_min":0,"x_max":0,"o":"m 243 513 l 215 538 b 200 533 213 538 204 533 l 189 564 l 185 571 l 185 594 l 188 644 l 189 711 l 192 733 l 188 771 l 189 942 l 229 918 l 306 869 l 331 849 l 392 796 l 410 788 l 413 794 l 431 825 l 435 839 l 444 856 l 407 872 l 390 879 l 360 897 l 331 917 l 261 958 l 244 978 l 232 983 l 167 1028 l 140 1017 l 114 1010 l 118 942 l 135 892 l 126 844 l 126 813 l 129 646 l 129 613 l 143 596 b 108 557 133 582 118 569 l 61 515 l 60 489 l 113 443 b 125 439 114 443 121 440 l 125 243 l 129 206 l 118 104 l 118 -1 l 189 -6 l 197 -3 l 197 31 l 189 53 l 194 72 l 190 151 l 183 229 l 186 433 l 186 436 l 197 453 l 243 490 l 243 513 z "},"":{"ha":583,"x_min":0,"x_max":0,"o":"m 299 810 l 282 803 l 260 808 l 146 663 l 129 647 l 88 604 l 25 533 l 19 497 l 65 453 l 114 394 l 171 349 l 213 288 l 250 244 l 253 221 l 325 208 l 357 254 l 396 310 l 426 357 l 486 421 l 557 493 l 563 529 l 508 592 l 447 654 l 385 747 l 360 764 l 340 806 l 299 810 z m 314 293 l 304 285 l 286 300 l 249 328 l 189 397 l 151 439 l 111 504 l 89 533 l 149 600 l 153 619 l 167 625 l 265 733 l 289 751 l 339 703 l 354 699 l 492 514 l 419 413 l 414 392 l 388 381 l 314 293 z "},"":{"ha":581,"x_min":0,"x_max":0,"o":"m 113 422 l 192 340 l 190 340 l 250 261 l 257 253 l 135 117 l 135 88 l 107 88 l 61 42 l 50 36 l 50 17 l 101 -22 l 133 10 l 238 153 l 253 172 l 268 201 l 283 219 l 403 76 l 432 35 l 467 -17 l 479 -6 l 490 -1 l 525 38 l 515 54 l 411 160 l 317 261 l 389 350 l 388 350 l 439 404 l 453 431 l 526 492 l 522 549 l 471 590 l 403 671 l 317 760 l 424 871 l 468 921 l 499 947 l 529 993 l 476 1035 l 444 1003 l 442 992 l 328 839 l 307 819 l 290 797 l 186 939 l 150 993 l 119 1031 l 103 1018 l 92 1017 l 63 986 l 72 967 l 125 919 l 124 919 l 258 761 l 194 688 l 138 619 l 121 597 l 124 597 l 51 535 l 64 467 l 113 422 z m 326 675 l 343 679 l 349 654 l 369 619 l 413 585 l 464 518 l 431 472 l 378 404 l 292 294 l 243 353 l 211 403 l 168 449 l 171 449 l 118 515 l 147 556 l 197 617 l 288 728 l 326 675 z "},"":{"ha":763,"x_min":0,"x_max":0,"o":"m 569 44 l 594 -7 l 611 -1 l 663 3 l 657 67 l 653 232 l 642 396 l 636 432 l 649 447 l 656 828 l 651 867 l 661 886 l 663 957 l 664 993 l 628 994 l 629 1001 l 608 1003 l 558 911 l 500 778 l 467 711 l 379 554 l 296 710 l 274 763 l 247 786 l 260 801 l 207 904 l 165 974 l 149 1004 l 128 989 l 97 982 l 99 888 l 104 868 l 106 828 l 113 450 l 118 396 l 111 67 l 107 1 l 158 -3 l 172 -12 l 201 44 l 242 128 l 269 210 l 378 446 l 432 368 l 436 332 l 464 274 l 524 138 l 569 44 z m 607 617 l 599 507 l 603 368 l 607 229 l 604 100 l 539 222 l 476 360 l 442 433 l 407 500 l 431 549 l 458 603 l 485 647 l 553 789 l 551 789 l 571 810 l 601 879 l 604 856 l 600 767 l 600 651 l 607 617 z m 164 649 l 164 767 l 161 851 l 161 882 l 208 788 l 306 589 l 333 547 l 354 499 l 339 467 l 335 451 l 326 433 l 290 360 l 264 300 l 236 240 l 224 228 l 165 93 l 156 229 l 165 507 l 151 631 l 164 649 z "},"":{"ha":603,"x_min":0,"x_max":0,"o":"m 551 710 l 554 738 l 433 888 l 417 889 l 410 917 l 376 969 l 338 1026 l 313 1021 l 275 1017 l 258 983 l 211 911 l 61 732 l 57 667 l 86 639 l 158 553 l 269 390 l 251 356 l 201 278 l 126 157 l 63 81 l 33 33 l 60 6 l 107 -10 l 151 79 l 157 111 l 263 285 l 282 303 l 308 349 l 319 324 l 415 168 l 439 144 l 432 132 l 508 -8 l 556 24 l 569 46 l 506 132 l 454 210 l 428 239 l 382 324 l 339 390 l 364 422 l 397 474 l 510 631 l 508 631 l 553 675 l 551 710 z m 131 693 l 121 704 l 149 739 l 149 772 l 181 779 l 244 878 l 301 935 l 313 953 l 372 881 l 379 878 l 388 858 l 463 750 l 497 706 l 490 694 l 464 646 l 432 592 l 363 507 l 311 438 l 219 561 l 131 693 z "},"":{"ha":639,"x_min":0,"x_max":0,"o":"m 356 938 l 379 913 l 419 871 l 451 826 l 506 822 l 572 919 l 628 989 l 608 1003 l 572 1017 l 542 961 l 479 879 l 433 925 l 400 953 l 388 978 l 354 1015 l 349 1024 l 322 1025 l 293 1024 l 253 976 l 207 925 l 161 879 l 96 961 l 65 1017 l 29 1003 l 10 989 l 65 919 l 135 822 l 189 826 l 221 871 l 290 938 l 296 890 l 290 843 l 288 811 l 289 644 l 289 611 l 307 593 l 286 533 l 285 444 l 286 243 l 288 206 l 281 104 l 279 53 l 279 -1 l 353 -6 l 363 -3 l 361 31 l 351 53 l 358 72 l 351 151 l 343 229 l 344 432 l 346 553 l 349 593 l 351 714 l 353 732 l 349 769 l 351 944 l 356 938 z "},"":{"ha":469,"x_min":0,"x_max":0,"o":"m 19 649 l 11 624 l 139 563 l 190 533 l 124 500 l 79 478 l 38 465 l 8 446 l 40 393 l 65 400 l 133 451 l 153 467 l 214 499 l 211 465 l 206 301 l 206 86 l 203 57 l 197 29 l 200 6 l 231 -3 l 257 -1 l 279 0 l 267 89 l 267 274 l 257 496 l 296 474 l 378 411 l 425 383 l 453 418 l 461 440 l 376 483 l 282 533 l 365 585 l 404 601 l 443 617 l 454 624 l 443 644 l 438 658 l 417 683 l 385 661 l 265 578 l 264 754 l 274 986 l 278 1018 l 253 1025 l 197 1022 l 201 950 l 208 910 l 213 608 l 215 571 l 156 604 l 40 681 l 19 649 z "},"":{"ha":622,"x_min":0,"x_max":0,"o":"m 347 938 l 371 911 l 411 871 l 443 826 l 497 822 l 564 919 l 619 989 l 600 1003 l 567 1022 l 533 961 l 471 879 l 425 925 l 394 951 l 379 978 l 346 1019 l 340 1028 l 314 1024 l 278 1011 l 282 938 l 288 890 l 282 843 l 279 811 l 281 644 l 281 611 l 299 593 l 278 533 l 276 444 l 279 243 l 281 206 l 279 107 l 278 76 l 251 101 l 217 140 l 178 186 l 129 183 l 61 86 l 3 17 l 22 3 l 58 -11 l 89 44 l 157 128 l 199 85 l 231 54 l 283 -4 l 288 -10 l 317 -3 l 350 8 l 346 33 l 339 53 l 344 72 l 342 151 l 336 229 l 336 432 l 338 553 l 340 593 l 343 714 l 344 732 l 340 769 l 343 940 l 347 938 z "},"":{"ha":592,"x_min":0,"x_max":0,"o":"m 261 396 l 260 353 l 218 288 l 118 183 l 29 90 l 18 67 l 58 22 l 75 31 l 83 46 l 154 144 l 261 274 l 257 42 l 253 4 l 279 -3 l 335 10 l 326 76 l 322 132 l 321 285 l 350 251 l 438 138 l 465 111 l 464 90 l 521 18 l 554 38 l 572 71 l 353 308 l 319 354 l 319 374 l 315 411 l 325 531 l 325 928 l 333 994 l 331 1018 l 303 1022 l 275 1021 l 254 1017 l 263 925 l 263 668 l 274 649 l 263 626 l 263 551 l 267 504 l 272 454 l 261 396 z "},"":{"ha":558,"x_min":0,"x_max":0,"o":"m 56 60 l 39 17 l 83 -1 l 111 -8 l 122 15 l 163 160 l 203 249 l 258 392 l 258 89 l 246 0 l 268 -1 l 294 -3 l 325 6 l 328 29 l 322 57 l 319 86 l 319 382 l 396 179 l 407 171 l 406 171 l 404 138 l 438 44 l 438 26 l 451 -3 l 519 19 l 517 53 l 499 81 l 449 201 l 433 218 l 389 332 l 410 351 l 444 399 l 457 401 l 533 478 l 533 521 l 489 568 l 453 590 l 456 603 l 429 629 l 379 686 l 406 750 l 467 878 l 467 899 l 465 899 l 475 907 l 521 1004 l 465 1025 l 463 1025 l 450 1022 l 442 975 l 429 932 l 382 819 l 365 761 l 325 675 l 308 633 l 308 640 l 313 715 l 317 910 l 324 950 l 328 1021 l 272 1026 l 247 1019 l 251 981 l 257 654 l 258 647 l 231 713 l 210 757 l 208 776 l 188 831 l 151 908 l 108 1025 l 67 1018 l 40 1001 l 106 864 l 124 849 l 117 835 l 189 693 l 131 629 l 104 603 l 107 590 l 71 568 l 26 521 l 26 478 l 33 471 l 103 399 l 115 396 l 150 349 l 179 321 l 176 311 l 174 311 l 135 224 l 100 143 l 56 60 z m 165 406 l 75 503 l 161 588 l 201 633 l 208 639 l 226 597 l 253 532 l 201 383 l 197 374 l 178 394 l 165 406 z m 358 633 l 399 588 l 483 503 l 394 408 l 382 397 l 368 383 l 342 446 l 317 528 l 317 536 l 336 582 l 357 633 l 358 633 z m 374 697 l 371 694 l 371 696 l 374 697 z m 192 696 l 190 694 l 189 697 l 192 696 z "},"":{"ha":694,"x_min":0,"x_max":0,"o":"m 582 756 l 579 775 l 585 818 l 594 997 l 578 1014 l 539 1025 l 475 947 l 458 921 l 407 861 l 365 801 l 350 796 l 321 836 l 239 928 l 158 1022 l 129 1008 l 103 1001 l 103 964 l 110 924 l 106 897 l 115 758 l 115 599 l 119 517 l 119 515 l 119 508 l 119 497 l 122 494 l 115 419 l 115 260 l 104 118 l 108 92 l 100 51 l 100 14 l 126 7 l 156 -3 l 239 93 l 321 179 l 350 217 l 365 211 l 407 154 l 458 100 l 475 74 l 542 -4 l 578 4 l 594 21 l 585 203 l 579 243 l 582 263 l 578 493 l 576 496 l 575 525 l 582 756 z m 357 299 l 242 410 l 171 479 l 169 528 l 249 600 l 357 714 l 419 657 l 522 544 l 529 526 l 531 501 l 533 489 l 522 468 l 419 356 l 357 299 z m 250 664 l 168 588 l 167 589 l 167 849 l 158 856 l 165 872 l 163 924 l 168 926 l 210 890 l 224 876 l 238 858 l 307 779 l 322 756 l 250 664 z m 315 253 l 307 233 l 238 163 l 224 144 l 210 136 l 169 100 l 164 103 l 167 151 l 160 163 l 168 169 l 167 417 l 168 418 l 243 346 l 315 253 z m 386 254 l 383 261 l 425 306 l 529 399 l 533 397 l 538 285 l 529 97 l 522 106 l 522 104 l 454 179 l 386 254 z m 454 835 l 522 915 l 522 914 l 529 922 l 538 733 l 533 614 l 529 613 l 425 707 l 390 751 l 392 758 l 454 835 z "},"":{"ha":663,"x_min":0,"x_max":0,"o":"m 301 10 l 310 -1 l 332 -1 l 374 1 l 378 31 l 369 90 l 371 325 l 386 328 l 454 286 l 496 260 l 508 231 l 539 178 l 556 113 l 557 81 l 556 7 l 568 1 l 635 10 l 628 39 l 615 124 l 579 222 l 556 244 l 564 258 l 472 342 l 404 374 l 371 383 l 365 532 l 374 604 l 374 650 l 376 769 l 374 875 l 378 908 l 383 1014 l 357 1021 l 308 1017 l 313 913 l 313 868 l 325 844 l 315 824 l 319 743 l 322 386 l 267 365 l 197 340 l 118 256 l 126 242 l 101 219 l 58 124 l 46 39 l 38 14 l 106 1 l 118 6 l 117 81 l 118 113 l 144 178 l 175 231 l 186 257 l 224 293 l 285 319 l 319 324 l 319 294 l 315 210 l 315 179 l 314 114 l 314 108 l 308 72 l 301 10 z "},"":{"ha":281,"x_min":0,"x_max":0,"o":"m 110 504 l 113 456 l 118 374 l 110 204 l 122 196 l 110 171 l 110 88 l 107 58 l 101 31 l 104 4 l 124 -4 l 161 0 l 182 3 l 171 90 l 169 450 l 171 458 l 174 504 l 154 513 l 110 504 z "},"":{"ha":501,"x_min":0,"x_max":0,"o":"m 450 161 l 469 182 l 481 190 l 463 217 l 432 244 l 404 203 l 369 153 l 290 76 l 288 92 l 282 425 l 281 468 l 271 504 l 282 550 l 285 617 l 281 700 b 282 854 281 751 282 803 l 288 949 l 369 869 l 404 819 l 432 778 l 463 806 l 481 832 l 469 840 l 450 861 l 397 903 l 278 1029 l 226 1025 l 128 925 l 19 828 l 25 811 l 51 779 l 78 782 l 114 847 l 129 858 b 221 951 160 885 192 926 b 226 929 222 942 225 938 b 225 856 226 906 225 879 l 221 746 b 229 694 224 729 226 711 l 225 551 l 228 422 l 224 222 l 236 203 l 224 190 l 218 79 l 217 75 b 129 164 189 100 157 139 l 114 175 l 78 240 l 51 243 l 25 211 l 19 194 l 128 97 l 226 -3 l 278 -7 l 397 119 l 450 161 z "},"":{"ha":507,"x_min":0,"x_max":0,"o":"m 242 447 l 313 369 l 329 328 l 326 219 l 326 193 l 338 178 l 339 178 l 326 175 l 317 -1 l 346 -4 l 394 0 l 379 225 l 386 260 l 385 632 l 374 656 l 382 654 l 382 875 l 385 911 l 388 940 l 390 1011 l 347 1033 l 332 1036 l 201 913 l 188 888 l 124 836 l 22 743 l 26 676 l 75 633 l 101 600 l 129 578 l 160 551 l 203 500 l 242 447 z m 325 519 l 325 474 l 321 457 l 318 458 l 256 511 l 213 557 l 167 610 l 138 639 l 128 651 l 83 700 l 82 708 l 82 715 l 119 753 l 171 803 l 190 821 l 194 835 l 213 839 l 321 944 l 324 924 l 332 775 l 331 708 l 329 675 l 329 643 l 326 538 l 325 519 z "},"":{"ha":635,"x_min":0,"x_max":0,"o":"m 88 800 l 21 811 l 13 808 l 14 767 l 11 743 l 29 740 l 92 750 l 128 750 l 129 469 l 125 360 l 182 353 l 282 460 l 351 517 l 351 518 l 454 601 l 453 460 l 464 422 l 451 388 l 450 286 l 417 288 l 353 299 l 344 296 l 346 254 l 343 231 l 361 228 l 421 239 l 450 238 l 450 40 l 446 8 l 471 1 l 526 4 l 522 76 l 515 117 l 514 238 l 528 238 l 604 226 l 624 236 l 622 289 l 615 299 l 567 290 l 514 288 l 515 343 l 511 571 l 514 681 l 460 690 l 358 582 l 301 532 l 186 439 l 189 747 l 188 750 l 196 750 l 272 739 l 292 749 l 290 801 l 283 811 l 235 803 l 185 800 l 192 986 l 196 1018 l 171 1025 l 115 1022 l 118 950 l 126 926 l 119 903 l 126 799 l 88 800 z "},"":{"ha":347,"x_min":0,"x_max":0,"o":"m 47 517 l 46 506 l 49 493 l 119 439 l 117 428 l 143 393 l 164 371 l 186 375 l 232 421 l 233 442 l 243 439 l 300 497 l 300 524 l 249 569 l 233 582 l 233 589 l 186 642 l 164 642 l 142 613 l 126 601 l 114 583 l 110 568 l 92 563 l 47 517 z "},"":{"ha":354,"x_min":0,"x_max":0,"o":"m 43 686 l 42 674 l 46 661 l 119 603 l 118 592 l 146 556 l 167 532 l 190 536 l 239 585 l 242 607 l 251 603 l 311 665 l 311 693 l 257 742 l 242 754 l 240 763 l 190 818 l 167 818 l 144 788 l 126 776 l 114 757 l 110 740 l 90 733 l 43 686 z m 43 321 l 42 308 l 46 294 l 119 236 l 118 225 l 146 188 l 168 165 l 192 169 l 240 218 l 243 240 l 253 236 l 313 299 l 313 326 l 258 376 l 243 389 l 242 397 l 192 453 l 168 453 l 144 422 l 128 410 l 115 390 l 110 374 l 92 368 l 43 321 z "},"":{"ha":521,"x_min":0,"x_max":0,"o":"m 189 525 l 153 525 l 101 536 l 71 546 l 40 547 l 29 526 l 31 469 l 44 467 l 107 474 l 185 481 l 238 483 l 238 450 l 226 322 l 219 292 l 214 251 l 221 238 l 264 238 l 303 246 l 299 281 l 296 317 l 278 483 l 313 483 l 393 468 l 461 461 l 483 471 l 492 510 l 486 543 l 428 538 l 378 526 l 283 518 l 278 518 l 278 519 l 282 596 l 303 710 l 301 771 l 232 772 l 221 750 l 232 639 l 238 631 l 240 554 l 239 519 l 189 525 z "},"":{"ha":563,"x_min":0,"x_max":0,"o":"m 238 561 l 236 444 l 236 243 l 240 206 l 232 104 l 231 53 l 231 -1 l 304 -6 l 313 -3 l 313 31 l 310 53 l 317 72 l 307 151 l 299 229 l 301 460 l 300 581 l 300 621 l 303 649 l 303 674 l 306 678 l 303 678 l 304 708 l 307 732 l 303 769 l 304 940 l 338 910 l 410 847 l 440 824 l 492 767 l 510 764 l 542 801 l 549 817 l 513 838 l 489 849 l 474 869 l 447 892 l 376 946 l 347 974 l 282 1028 l 256 1017 l 229 1008 l 233 940 l 249 890 l 240 843 l 238 811 l 240 656 l 214 635 l 185 607 l 114 553 l 88 531 l 72 510 l 49 499 l 13 478 l 19 463 l 51 425 l 69 428 l 121 485 l 151 508 l 224 571 l 249 594 l 238 561 z "},"":{"ha":688,"x_min":0,"x_max":0,"o":"m 375 71 l 368 113 l 368 118 l 367 183 l 367 214 l 360 299 l 360 331 l 397 326 l 463 292 l 493 264 l 514 238 l 551 182 l 576 117 l 578 85 l 578 10 l 590 6 l 658 18 l 649 43 l 636 128 l 588 226 l 557 249 l 565 263 l 483 356 l 415 372 l 369 393 l 364 515 l 369 622 l 415 643 l 483 668 l 563 756 l 554 769 l 585 792 l 636 890 l 649 975 l 658 1000 l 590 1013 l 578 1008 l 578 933 l 576 901 l 549 836 l 511 781 l 493 754 l 463 718 l 397 689 l 360 685 l 360 711 l 367 804 l 367 835 l 368 900 l 368 906 l 375 942 l 382 1004 l 374 1015 l 351 1015 l 308 1013 l 304 983 l 313 924 l 311 681 l 296 678 l 231 717 l 186 750 l 174 781 l 136 836 l 119 901 l 118 933 l 118 1006 l 106 1011 l 40 1004 l 47 975 l 60 890 l 100 792 l 126 769 l 118 756 l 210 669 l 278 635 l 311 625 l 311 618 l 311 610 l 317 517 l 311 404 l 311 397 l 311 390 l 278 381 l 210 354 l 118 263 l 126 249 l 100 226 l 60 128 l 47 43 l 40 14 l 106 7 l 118 13 l 118 85 l 119 117 l 136 182 l 174 238 l 186 268 l 231 293 l 296 338 l 311 335 l 313 94 l 304 29 l 308 0 l 351 -3 l 374 -3 l 382 8 l 375 71 z "},"":{"ha":539,"x_min":0,"x_max":0,"o":"m 304 807 l 303 807 l 306 910 l 313 950 l 317 1019 l 261 1029 l 236 1022 l 240 983 l 243 804 l 238 804 l 221 782 l 132 669 l 128 657 l 108 646 l 21 538 l 8 529 l 17 503 l 54 457 l 110 388 l 142 349 l 163 349 l 168 318 l 229 244 l 232 229 l 247 228 l 247 89 l 235 0 l 257 -1 l 283 -3 l 314 6 l 317 29 l 311 57 l 308 86 l 308 238 l 319 254 l 400 363 l 456 424 l 526 504 l 531 538 l 474 594 l 446 632 l 426 639 l 411 668 l 328 772 l 304 807 z m 253 610 l 251 525 l 247 478 l 247 307 l 232 329 l 181 390 l 138 439 l 100 492 l 83 515 l 74 525 l 75 531 l 131 604 l 135 625 l 133 625 l 151 632 l 243 728 l 246 731 l 247 654 l 253 610 z m 319 706 l 328 704 l 333 704 l 325 694 l 418 578 l 436 556 l 443 550 l 457 528 l 464 518 l 396 414 l 386 393 l 363 383 l 308 315 l 306 499 l 306 532 l 303 572 l 297 640 l 301 715 l 301 725 l 319 706 z "},"":{"ha":694,"x_min":0,"x_max":0,"o":"m 92 540 l 57 542 l 22 544 l 19 529 l 22 510 l 21 485 l 35 481 l 67 486 l 96 492 l 461 488 l 524 492 l 572 490 l 658 488 l 679 497 l 681 549 l 622 543 l 593 539 l 563 536 l 349 540 l 268 539 l 254 528 l 243 539 l 92 540 z "},"":{"ha":1389,"x_min":0,"x_max":0,"o":"m 96 540 b 64 542 82 540 74 540 b 26 544 53 543 42 544 l 24 529 b 25 524 24 526 25 525 l 28 510 l 25 485 l 42 481 b 74 486 53 481 64 483 l 100 492 l 804 489 l 833 503 l 844 489 l 964 486 l 1026 492 l 1267 490 l 1349 485 l 1369 494 l 1374 549 l 1317 543 b 1196 540 1278 543 1239 542 l 1068 536 l 600 540 l 451 540 l 436 526 l 408 540 l 96 540 z "},"":{"ha":193,"x_min":0,"x_max":0,"o":"m 158 954 l 185 976 l 193 993 l 160 1019 l 142 1000 l 114 960 l 61 886 l 38 842 l 35 836 l 35 821 l 53 804 l 71 786 l 89 765 l 107 768 l 128 796 l 157 822 l 156 840 l 122 868 l 114 875 l 121 904 l 158 954 z "},"":{"ha":197,"x_min":0,"x_max":0,"o":"m 38 840 l 8 818 l 0 801 l 36 775 l 53 786 l 86 835 l 135 908 l 157 953 l 163 958 l 163 974 l 144 990 b 133 988 142 990 136 988 l 126 1008 l 113 1031 l 97 1032 b 72 1003 90 1022 79 1013 l 40 975 l 39 957 l 75 926 b 79 925 75 926 76 925 l 75 890 l 38 840 z "},"":{"ha":197,"x_min":0,"x_max":0,"o":"m 31 -75 l 1 -97 l -7 -114 l 29 -140 l 46 -129 l 79 -81 l 128 -7 l 150 38 l 156 43 l 156 58 l 138 75 b 126 72 135 75 129 72 l 119 93 l 106 115 l 90 117 b 65 88 83 107 72 97 l 33 60 l 32 42 l 68 11 b 72 10 68 11 69 10 l 68 -25 l 31 -75 z "},"":{"ha":369,"x_min":0,"x_max":0,"o":"m 158 954 l 185 976 l 193 993 l 160 1019 l 142 1000 l 114 960 l 61 886 l 38 842 l 35 836 l 35 821 l 53 804 l 71 786 l 89 765 l 107 768 l 128 796 l 157 822 l 156 840 l 122 868 l 114 875 l 121 904 l 158 954 z m 332 961 l 361 983 l 369 1000 l 333 1026 l 317 1015 l 283 967 l 235 893 l 213 849 l 207 843 l 207 828 l 225 811 b 236 814 228 811 233 814 l 243 793 l 257 771 l 272 769 b 297 799 279 779 290 789 l 329 826 l 331 844 l 294 875 b 290 876 294 875 293 876 l 294 911 l 332 961 z "},"":{"ha":369,"x_min":0,"x_max":0,"o":"m 211 838 l 185 815 l 176 799 l 210 772 l 228 792 l 256 832 l 308 906 l 332 950 l 335 956 l 335 971 l 317 988 l 299 1006 l 281 1026 l 263 1024 l 242 996 l 213 969 l 214 951 l 247 924 l 256 917 l 249 888 l 211 838 z m 38 831 l 8 808 l 0 792 l 36 765 l 53 776 l 86 825 l 135 899 l 157 943 l 163 949 l 163 964 l 144 981 b 133 978 142 981 136 978 l 126 999 l 113 1021 l 97 1022 b 72 993 90 1013 79 1003 l 40 965 l 39 947 l 75 917 b 79 915 75 917 76 915 l 75 881 l 38 831 z "},"":{"ha":357,"x_min":0,"x_max":0,"o":"m 204 -68 l 178 -90 l 169 -107 l 203 -133 l 221 -114 l 249 -74 l 301 0 l 325 44 l 328 50 l 328 65 l 310 82 l 292 100 l 274 121 l 256 118 l 235 90 l 206 64 l 207 46 l 240 18 l 249 11 l 242 -18 l 204 -68 z m 31 -75 l 1 -97 l -7 -114 l 29 -140 l 46 -129 l 79 -81 l 128 -7 l 150 38 l 156 43 l 156 58 l 138 75 b 126 72 135 75 129 72 l 119 93 l 106 115 l 90 117 b 65 88 83 107 72 97 l 33 60 l 32 42 l 68 11 b 72 10 68 11 69 10 l 68 -25 l 31 -75 z "},"":{"ha":464,"x_min":0,"x_max":0,"o":"m 144 738 l 31 764 l 11 717 l 15 704 l 24 678 l 56 675 l 149 692 l 215 690 l 211 510 l 221 492 l 211 483 l 211 371 l 208 260 l 203 144 l 214 119 l 200 96 l 199 67 l 207 35 l 225 -25 l 246 -24 l 268 32 l 275 71 l 264 296 l 251 343 l 260 411 l 260 678 l 257 690 l 275 690 l 394 678 l 447 679 l 453 728 l 446 758 l 313 738 l 257 733 l 260 771 l 261 831 l 274 924 l 276 979 l 275 1024 l 199 1022 l 194 1011 l 194 975 l 204 901 l 203 872 l 219 857 l 206 835 l 213 733 l 144 738 z "},"":{"ha":464,"x_min":0,"x_max":0,"o":"m 144 738 l 31 764 l 11 717 l 15 704 l 24 678 l 56 675 l 149 692 l 215 690 l 211 510 l 221 492 l 211 483 l 211 371 l 211 339 l 153 339 l 57 356 l 25 353 l 25 326 l 21 314 l 31 278 l 149 293 l 208 297 l 208 260 l 203 144 l 214 119 l 200 96 l 199 67 l 207 35 l 225 -25 l 246 -24 l 267 32 l 274 71 l 263 296 l 261 297 l 263 297 l 322 293 l 436 278 l 446 308 l 443 357 l 390 354 l 282 339 l 256 339 l 256 342 l 260 411 l 260 678 l 257 690 l 275 690 l 394 678 l 447 679 l 453 728 l 446 758 l 313 738 l 257 733 l 260 771 l 261 831 l 274 924 l 276 979 l 275 1024 l 199 1022 l 194 1011 l 194 975 l 204 901 l 203 872 l 219 857 l 206 835 l 213 733 l 144 738 z "},"":{"ha":431,"x_min":0,"x_max":0,"o":"m 35 524 l 33 507 l 38 489 l 138 411 l 135 396 l 172 346 l 201 315 l 233 321 l 299 386 l 301 415 l 315 411 l 396 494 l 396 532 l 322 599 l 301 615 l 300 626 l 233 701 l 201 701 l 171 660 l 147 644 l 131 618 l 124 596 l 99 588 l 35 524 z "},"":{"ha":515,"x_min":0,"x_max":0,"o":"m 143 58 l 125 75 b 114 72 122 75 117 72 l 107 93 l 93 115 l 78 117 b 53 88 71 107 60 97 l 21 60 l 19 42 l 56 11 b 65 8 57 11 64 8 l 68 4 l 67 6 l 65 -3 l 75 -10 l 88 -11 l 113 18 l 143 43 l 143 58 z m 319 58 l 301 75 b 290 72 299 75 293 72 l 283 93 l 269 115 l 254 117 b 229 88 247 107 236 97 l 197 60 l 196 42 l 232 11 b 242 8 233 11 240 8 l 244 4 l 243 6 l 242 -3 l 251 -10 l 264 -11 l 289 18 l 319 43 l 319 58 z m 496 58 l 478 75 b 467 72 475 75 469 72 l 460 93 l 446 115 l 431 117 b 406 88 424 107 413 97 l 374 60 l 372 42 l 408 11 b 418 8 410 11 417 8 l 421 4 l 419 6 l 418 1 l 428 -12 l 440 -14 l 465 18 l 496 43 l 496 58 z "},"":{"ha":1183,"x_min":0,"x_max":0,"o":"m 40 846 l 44 824 l 46 799 l 135 685 l 171 626 l 190 601 l 233 604 l 294 693 b 292 717 294 701 292 708 l 308 717 l 381 800 l 378 846 l 313 929 l 289 954 l 288 971 l 231 1046 l 189 1044 l 167 1007 l 150 983 b 135 954 147 975 139 963 l 40 846 z m 151 906 l 206 982 l 210 982 l 274 889 b 319 819 289 868 304 842 l 319 803 l 268 728 l 224 668 l 219 668 l 168 739 l 143 749 l 149 765 b 103 832 133 785 118 811 l 103 840 l 142 889 l 151 906 z m 415 229 l 419 207 l 421 182 l 510 75 l 546 17 l 564 -10 l 608 -7 l 669 83 b 667 106 669 90 667 97 l 683 106 l 754 196 l 751 242 l 694 310 b 661 342 688 317 671 333 l 660 361 l 603 435 l 560 433 l 539 397 l 522 374 b 507 344 519 365 511 353 l 415 229 z m 526 294 l 576 369 l 583 369 b 649 278 606 340 628 307 l 694 215 l 694 199 l 643 117 b 599 60 629 97 613 79 l 594 60 l 543 128 l 518 138 l 524 154 l 478 218 l 478 226 l 517 278 l 526 294 z m 489 686 l 540 819 l 621 983 l 635 1014 l 635 1029 l 578 1053 l 554 1015 l 535 953 l 496 800 l 496 801 l 460 744 l 376 553 l 363 528 l 315 410 l 229 186 l 238 161 l 206 126 l 174 75 l 154 51 l 138 13 l 194 -19 l 210 -12 l 219 11 b 226 44 221 22 225 33 l 243 88 l 288 208 l 419 529 l 489 686 z m 796 226 l 800 204 l 801 179 l 890 72 l 925 14 l 944 -12 l 989 -10 l 1050 81 b 1047 103 1050 88 1047 94 l 1064 103 l 1135 193 l 1132 239 l 1075 307 b 1042 339 1068 314 1051 331 l 1040 358 l 983 431 l 940 429 l 918 394 l 903 371 b 888 342 900 363 892 350 l 796 226 z m 906 292 l 957 367 l 964 367 b 1029 275 986 338 1008 304 l 1075 213 l 1075 196 l 1024 114 b 979 57 1010 94 993 76 l 975 57 l 922 125 l 899 135 l 903 151 l 858 215 l 858 224 l 897 275 l 906 292 z "},"":{"ha":338,"x_min":0,"x_max":0,"o":"m 101 583 l 104 571 l 68 549 l 24 501 l 24 458 l 31 451 l 100 379 l 113 376 l 147 329 l 194 297 l 194 278 l 200 263 l 228 231 l 258 251 l 275 285 l 244 310 l 175 375 l 163 386 l 81 483 l 158 568 l 199 614 l 225 633 l 278 685 l 268 701 l 229 728 l 186 678 l 189 676 l 128 610 l 101 583 z "},"":{"ha":338,"x_min":0,"x_max":0,"o":"m 235 583 l 208 610 l 147 676 l 150 678 l 107 728 l 68 701 l 58 685 l 111 633 l 138 614 l 178 568 l 256 483 l 174 386 l 161 375 l 92 310 l 61 285 l 78 251 l 108 231 l 136 263 l 142 278 l 142 297 l 189 329 l 224 376 l 236 379 l 306 451 l 313 458 l 313 501 l 268 549 l 232 571 l 235 583 z "},"":{"ha":453,"x_min":0,"x_max":0,"o":"m 313 690 l 364 825 l 446 990 l 460 1021 l 460 1032 l 407 1054 l 383 1019 l 364 957 l 325 804 l 289 746 l 204 553 l 190 528 l 143 408 l 57 185 l 65 160 l 35 128 l 0 71 l -19 47 l -35 11 l 18 -19 l 32 -12 l 42 10 l 49 43 l 65 88 l 110 208 l 243 532 l 313 690 z "},"":{"ha":513,"x_min":0,"x_max":0,"o":"m 324 414 l 347 410 l 376 404 l 386 418 l 396 431 l 392 442 l 396 463 l 379 467 l 349 464 l 319 461 l 213 463 l 185 463 l 182 522 l 185 567 l 210 567 l 368 564 l 389 574 l 397 624 l 340 618 l 206 614 l 228 653 l 297 774 l 372 894 l 379 926 l 411 939 l 451 996 l 439 1019 l 375 1033 l 360 1011 l 360 1003 l 276 853 l 274 843 l 160 651 l 161 651 l 128 614 l 83 615 l 54 617 l 18 619 l 15 604 l 17 594 l 19 582 l 17 560 l 35 557 l 65 563 l 89 568 l 128 567 l 131 547 l 132 513 l 128 464 l 43 467 l 11 456 l 15 406 l 68 411 l 136 413 l 188 332 l 243 257 l 264 224 l 371 63 l 393 17 l 414 -17 l 431 -18 l 479 18 l 468 44 l 371 157 l 299 274 l 233 369 l 233 368 l 222 407 l 217 414 l 258 415 l 324 414 z "},"":{"ha":686,"x_min":0,"x_max":0,"o":"m 217 1018 l 167 1017 l 129 1017 l 92 1018 l 28 1022 l 21 971 l 35 965 l 79 971 l 85 974 l 93 979 l 110 978 l 124 978 l 124 963 l 129 924 l 126 869 l 132 826 l 125 743 l 125 738 l 126 732 l 121 664 l 121 617 l 146 614 l 167 617 l 181 628 l 171 674 l 167 765 l 165 840 l 168 922 l 169 949 l 171 979 l 217 979 l 250 969 l 258 967 l 278 965 l 279 997 l 276 1019 l 254 1019 l 217 1018 z m 404 961 l 368 1026 l 344 1019 l 315 1015 l 315 988 l 322 960 l 318 944 l 326 863 l 326 764 l 324 699 l 332 696 l 324 688 l 322 672 l 322 661 l 318 629 l 321 614 l 372 617 l 375 632 l 371 699 l 367 919 l 360 921 l 365 928 l 364 940 l 363 946 l 379 931 l 394 908 l 436 838 l 447 811 l 472 804 l 499 821 l 504 842 l 539 900 l 568 938 l 578 847 l 576 774 l 575 703 l 571 643 l 571 617 l 625 615 l 621 682 l 611 863 l 607 878 l 613 899 l 618 1007 l 603 1022 l 578 1029 l 543 961 l 533 944 l 517 924 l 474 864 l 475 864 l 471 863 l 457 888 l 404 961 z "},"":{"ha":514,"x_min":0,"x_max":0,"o":"m 113 539 l 76 547 l 40 553 l 35 528 l 32 483 l 46 479 l 88 483 l 131 489 l 279 489 l 344 488 b 396 485 361 488 381 485 l 451 474 l 474 486 l 482 546 l 436 543 l 360 535 b 242 533 321 535 281 533 l 113 539 z "},"":{"ha":771,"x_min":0,"x_max":0,"o":"m 117 386 l 113 240 l 121 203 l 111 103 l 106 1 l 175 -7 l 192 -4 l 192 33 l 185 53 l 188 101 l 176 229 l 178 351 l 174 413 l 172 450 l 172 486 l 331 478 l 346 482 l 372 469 l 388 468 l 393 486 l 397 526 l 393 551 l 311 542 l 211 538 l 188 539 l 178 539 l 172 758 l 164 785 l 174 871 l 183 960 l 203 964 l 254 964 l 306 961 l 399 951 l 422 953 l 429 992 l 429 1025 l 314 1022 l 236 1017 l 199 1017 l 143 1021 l 107 1019 l 111 968 l 108 893 l 124 889 l 117 853 l 122 599 l 121 592 l 121 550 l 117 386 z m 601 610 l 596 525 l 592 478 l 592 89 l 579 0 l 601 -1 l 628 -3 l 658 6 l 661 29 l 656 57 l 653 86 l 653 499 l 651 506 l 650 532 l 647 572 l 642 640 l 646 715 l 650 910 l 657 950 l 661 1021 l 606 1032 l 581 1025 l 585 986 l 590 654 l 601 610 z "},"":{"ha":921,"x_min":0,"x_max":0,"o":"m 117 386 l 113 240 l 121 203 l 111 103 l 106 1 l 175 -7 l 192 -4 l 192 33 l 185 53 l 188 101 l 176 229 l 178 351 l 174 413 l 172 450 l 172 486 l 331 478 l 346 482 l 372 469 l 388 468 l 393 486 l 397 526 l 393 551 l 311 542 l 211 538 l 188 539 l 178 539 l 172 758 l 164 785 l 174 871 l 183 960 l 203 964 l 254 964 l 306 961 l 399 951 l 422 953 l 429 992 l 429 1025 l 314 1022 l 236 1017 l 199 1017 l 143 1021 l 107 1019 l 111 968 l 108 893 l 124 889 l 117 853 l 122 599 l 121 592 l 121 550 l 117 386 z m 810 60 l 661 57 l 646 71 l 653 78 l 651 135 l 644 240 l 633 260 l 632 260 l 644 265 l 640 342 l 640 349 l 638 468 l 636 486 l 636 556 l 646 721 l 653 888 l 658 939 l 660 1018 l 653 1024 l 610 1017 l 572 1017 l 581 917 l 594 906 l 586 874 l 590 374 l 579 128 l 588 85 l 576 54 l 576 0 l 601 -3 l 668 3 l 685 0 l 761 0 l 774 1 l 874 -6 l 885 6 l 892 64 l 886 76 l 844 71 l 810 60 z "}}}
